<?xml version="1.0" encoding="UTF-8"?>
<svg id="_レイヤー_2" data-name="レイヤー 2" xmlns="http://www.w3.org/2000/svg" width="339.66" height="225.01" viewBox="0 0 339.66 225.01">
  <defs>
    <style>
      .cls-1 {
        fill: #211815;
      }

      .cls-2 {
        fill: #f5f19b;
      }

      .cls-3 {
        fill: #ecbb6e;
      }

      .cls-4 {
        fill: #93c9ce;
      }

      .cls-5 {
        fill: #5c948d;
      }

      .cls-6 {
        fill: #fffba1;
      }

      .cls-7, .cls-8 {
        fill: #fff;
      }

      .cls-9 {
        fill: #d3f2c9;
      }

      .cls-10 {
        fill: #ceeaeb;
      }

      .cls-11 {
        fill: #f2ec67;
      }

      .cls-12 {
        fill: #f2d496;
      }

      .cls-8 {
        stroke: #ceeaeb;
        stroke-miterlimit: 10;
        stroke-width: 2.83px;
      }
    </style>
  </defs>
  <g id="_レイヤー_1-2" data-name="レイヤー 1">
    <g>
      <path class="cls-8" d="M329.77,1.42H90.4c-4.68,0-8.47,3.79-8.47,8.47v66.5s-9.69,9.69-9.69,9.69h9.69s0,.5,0,.5c0,4.68,3.79,8.47,8.47,8.47h239.38c4.68,0,8.47-3.79,8.47-8.47V9.89c0-4.68-3.79-8.47-8.47-8.47Z"/>
      <circle class="cls-9" cx="308.24" cy="195.01" r="30"/>
      <path class="cls-8" d="M9.89,134.51h239.38c4.68,0,8.47,3.79,8.47,8.47v43.9s9.69,9.69,9.69,9.69h-9.69s0,.5,0,.5c0,4.68-3.79,8.47-8.47,8.47H9.89c-4.68,0-8.47-3.79-8.47-8.47v-54.09c0-4.68,3.79-8.47,8.47-8.47Z"/>
      <g>
        <path d="M104.5,22.07h2.13c.68,0,1.1-.03,1.54-.09v1.63c-.48-.04-.93-.07-1.56-.07h-1.62c.86,1.5,2.1,2.74,3.58,3.58-.48.48-.69.78-.99,1.5-.61-.43-1.05-.85-1.62-1.5-.74-.85-1.05-1.32-1.53-2.22.03.54.04,1,.04,1.44v1.81c0,.67.03,1.2.09,1.67h-1.67c.06-.46.09-1,.09-1.68v-1.71c0-.4.02-.88.04-1.48-.91,1.65-1.93,2.76-3.39,3.73-.38-.71-.58-1-.9-1.36,1.54-.89,2.8-2.17,3.67-3.78h-.95c-.64,0-1.11.03-1.58.09v-.6c-.25.36-.43.69-.61,1.21-.38-.58-.6-1.05-.89-1.8.03.47.06,1.27.06,1.91v3.69c0,.77.03,1.32.09,1.77h-1.67c.06-.46.09-1.02.09-1.77v-3.1c0-.57.02-.93.11-1.86-.44,1.46-.87,2.43-1.51,3.41-.18-.68-.38-1.11-.68-1.6.72-.92,1.47-2.61,1.92-4.35h-.57c-.44,0-.69.02-.96.06v-1.53c.24.04.51.06.96.06h.72v-1.16c0-.76-.01-1.14-.08-1.5h1.65c-.06.39-.08.8-.08,1.5v1.16h.43c.36,0,.54-.02.78-.06v1.42c.57-1.02,1.05-2.52,1.09-3.49l1.46.38c-.06.16-.1.34-.21.79-.08.27-.1.4-.18.69h1.15v-.99c0-.61-.03-.99-.09-1.36h1.68c-.06.36-.09.77-.09,1.36v.99h1.7c.72,0,1.14-.03,1.54-.09v1.58c-.42-.04-.9-.08-1.54-.08h-1.7v1.81ZM101.37,20.26c-.25.62-.39.9-.81,1.6q-.36-.38-1.17-.94c.12-.17.17-.24.24-.35-.2-.03-.44-.04-.71-.04h-.38c.34.79.71,1.4,1.36,2.28v-.83c.45.06.87.09,1.56.09h1.53v-1.81h-1.63Z"/>
        <path d="M115.35,26.12c-.72,1.25-1.71,1.94-2.73,1.94-1.56,0-2.67-1.53-2.67-3.66,0-2.37,1.2-4.41,3.25-5.49,1-.54,2.08-.78,3.51-.78,3.14,0,5.46,2.22,5.46,5.19,0,2.62-1.29,4.51-3.78,5.58-.5.21-.89.33-1.08.33-.18,0-.25-.06-.45-.34-.25-.39-.54-.68-.95-.95,3.09-.79,4.49-2.25,4.49-4.68,0-1.25-.53-2.29-1.46-2.96-.53-.36-.95-.51-1.77-.64-.42,3.16-.92,4.89-1.83,6.46ZM113.19,20.81c-1,.88-1.58,2.15-1.58,3.55,0,1.16.38,1.83,1,1.83.75,0,1.52-1.04,2.08-2.82.36-1.12.54-1.98.77-3.65-1.07.23-1.59.48-2.28,1.08Z"/>
        <path d="M125.23,23.83c0-.52,0-1.03.03-1.6-.42.74-.62,1.02-1,1.5-.15-.6-.36-1.17-.65-1.71.96-1.06,1.59-2.14,2.13-3.58.35-.9.45-1.33.56-2.06l1.63.39q-.71,2.13-1.21,3.24v8.08c0,.63.01,1.12.07,1.67h-1.65c.06-.58.09-.97.09-1.68v-4.25ZM127.69,29.78c.06-.51.08-.89.08-1.77v-6.34c0-.72-.03-1.2-.09-1.62h1.6c-.04.45-.06.89-.06,1.64v6.04h6.34c.72,0,1.15-.01,1.59-.07v1.54c-.5-.06-.96-.09-1.61-.09h-6.33v.68h-1.53ZM129.34,19.06c-.58,0-.93.02-1.35.06v-1.52c.38.06.77.08,1.52.08h2.56c.06-.51.08-.65.11-1.2l1.59.09q-.14.8-.2,1.11h2.19c.69,0,1.02-.02,1.5-.09v1.53c-.42-.04-.84-.06-1.32-.06h-2.62c-.06.3-.13.61-.21.94h2.07c.6,0,.95-.02,1.21-.03-.04.46-.04.7-.04,1.38v4.36c0,.6,0,.82.04,1.27-.45-.02-.82-.03-1.23-.03h-3.71c-.42,0-.76.01-1.21.03.03-.31.04-.69.04-1.14v-4.71c0-.54-.01-.93-.04-1.17.36.03.57.03,1.16.03h.21c.1-.34.15-.58.22-.94h-2.49ZM131.74,21.97h3.15v-.75h-3.15v.75ZM131.74,23.81h3.15v-.77h-3.15v.77ZM131.74,25.73h3.15v-.84h-3.15v.84Z"/>
        <path d="M146.74,18.4c-.03.98-.12,1.46-.36,2.06-.28.72-.61,1.17-1.41,1.87-.41-.51-.57-.67-1.02-1-.54-.04-.62-.04-1.21-.04h-2.05v1.4h2.02c.72,0,.93-.02,1.35-.06v1.46c-.39-.03-.72-.04-1.33-.04h-2.04v1.72c1.58-.19,1.83-.24,3.52-.58l.03,1.4c-1.51.35-2.29.5-3.55.69v.95c0,.57.03,1,.09,1.53h-1.7c.06-.57.09-.98.09-1.52v-.75c-.24.04-.39.08-.48.09-.13.01-.15.01-.22.04l-.18-1.67c.17.02.21.02.25.02.15,0,.41-.02.63-.03v-6.99c0-.61-.02-.88-.08-1.32,1.41-.12,2.96-.45,3.87-.82.36-.14.38-.15.74-.38l.87,1.47q-.25.06-.88.27c-1.32.42-1.63.5-3,.75v1.04h2.04c.72,0,.93-.02,1.35-.06v1.12c.95-.75,1.25-1.55,1.25-3.29,0-.33-.01-.58-.04-.82.3.03.58.04,1.05.04h2.17c.55,0,.79-.02,1.14-.04-.03.38-.04.67-.04,1.2v2.08c0,.19.09.24.46.24.3,0,.39-.07.45-.36.06-.33.09-.66.11-1.35.43.27.75.4,1.25.57-.09,1.19-.2,1.69-.42,2.05-.23.35-.57.45-1.53.45-.66,0-1.17-.06-1.38-.18-.25-.13-.33-.33-.33-.82v-2.37h-1.46ZM151.15,23.26c-.15.23-.27.42-.39.65-.67,1.25-1.26,2.1-1.99,2.91.94.65,1.9,1.06,3.27,1.38-.36.52-.48.75-.76,1.5-1.59-.54-2.6-1.06-3.62-1.86-1.07.83-2.33,1.44-4.04,1.95-.21-.58-.42-.98-.79-1.47,1.63-.38,2.67-.79,3.76-1.54-.7-.88-1.06-1.53-1.51-2.8-.25.02-.39.03-.66.06v-1.59c.27.04.48.06.93.06h3.97c.54,0,.73-.01,1.02-.06l.81.82ZM146.52,23.96c.34.85.6,1.27,1.15,1.88.71-.72.92-.99,1.4-1.88h-2.55Z"/>
        <path d="M156.91,25.69c.04.06.06.1.06.16q0,.09-.25.78c-.32.92-.51,1.67-.57,2.25-.01.19-.08.27-.27.31-.21.06-.61.09-1,.09-.15,0-.22-.03-.27-.12-.13-.28-.38-1.32-.5-2.16-.1-.71-.15-1.44-.15-2.21,0-1.73.2-3.36.74-6.3.09-.48.12-.71.17-1.17.69.09,1.17.23,1.6.44.23.12.32.23.32.36,0,.09-.03.17-.11.29-.61,1.05-1.18,4.29-1.18,6.69,0,.36.01.93.06,1.65.36-.93.52-1.35.85-2.07.11.41.21.6.51,1.01ZM159.43,21.74c-.72,0-.87-.03-.92-.19-.04-.13-.09-.61-.09-.96,0-.12,0-.24.01-.51.41.03.64.04,1.14.04.81,0,1.32-.02,2.1-.08-.02-1.9-.03-2.15-.18-2.85.74.01,1.29.07,1.77.19.22.06.31.13.31.29,0,.06-.01.1-.06.22-.15.35-.23.93-.25,1.98.55-.07,1.03-.18,1.93-.39.08-.03.1-.03.15-.03.09,0,.13.04.17.15.03.14.07.71.07,1.02,0,.38-.01.44-.17.5-.24.12-.9.23-2.17.39,0,1.03.09,2.74.2,3.72.95.4,1.59.75,2.25,1.21.42.3.51.41.51.51,0,.16-.27.67-.58,1.11-.18.25-.27.33-.38.33s-.1,0-.45-.33c-.33-.33-.67-.58-1.33-1.02v.12c0,1.32-1.09,2.19-2.76,2.19s-2.8-.9-2.8-2.25,1.14-2.35,2.66-2.35c.55,0,.84.02,1.24.08q-.06-1.17-.1-3.18c-.65.04-1.67.09-2.26.09ZM160.66,26.15c-.75,0-1.25.34-1.25.87,0,.48.46.78,1.19.78.79,0,1.21-.36,1.21-1.05,0-.21-.02-.38-.02-.38-.39-.15-.73-.23-1.14-.23Z"/>
        <path d="M174.84,16.67c-.04.24-.09.94-.09,1.48,0,2.34.38,3.84,1.41,5.68.6,1.06,1.25,1.83,2.26,2.73.86.73,1.29,1.05,2.22,1.54-.54.57-.78.92-1.11,1.6-1.74-1.21-2.64-2.06-3.66-3.39-.88-1.17-1.42-2.29-1.91-3.94-.28,1.16-.54,1.81-1.14,2.91-.57,1.05-1.2,1.83-2.21,2.76-.76.69-1.23,1.05-2.23,1.67-.33-.68-.62-1.04-1.12-1.48,1.48-.79,2.25-1.37,3.15-2.42,1.86-2.13,2.64-4.48,2.64-7.93,0-.56-.01-.83-.07-1.21h1.86Z"/>
        <path d="M184.98,19.01c-.58.88-1.28,1.68-2.15,2.5-.38-.48-.67-.77-1.12-1.12,1.22-1.08,2.01-2.06,2.61-3.25.18-.36.27-.6.31-.9l1.73.25c-.04.07-.21.4-.51,1h6.64c.79,0,1.3-.03,1.8-.09v1.68c-.46-.04-1.05-.07-1.8-.07h-7.51ZM189.79,29.39c-.87-.85-1.5-1.42-2.49-2.22-1.14.96-2.1,1.56-4.17,2.59-.29-.51-.5-.78-1.08-1.36,1.95-.83,2.94-1.37,3.99-2.19-.84-.62-1.38-.96-2.5-1.64l1.05-.96c1.07.6,1.4.81,2.55,1.59.68-.7,1.08-1.3,1.25-1.84l1.54.73c-.15.18-.3.38-.61.81-.35.48-.57.78-.95,1.2.87.66,1.6,1.27,2.5,2.08l-1.08,1.2ZM184.21,23.2c-.73,0-1.23.03-1.65.08v-1.5c.3.06.66.08,1.25.08h7.32c.97,0,1.21-.02,1.67-.06-.04.45-.06.85-.06,1.33,0,1.48.13,2.76.4,3.67.17.55.25.75.5.97.2-.27.32-.94.34-2.13.48.44.75.63,1.23.87-.23,2.27-.66,3.18-1.54,3.18-.65,0-1.38-.76-1.79-1.84-.45-1.19-.63-2.5-.66-4.65h-7ZM184.56,19.67c.18.03.64.04,1.08.04h6.03c.74,0,1.2-.03,1.53-.07v1.44c-.41-.06-.79-.08-1.53-.08h-5.73c-.6,0-.99.02-1.38.06v-1.4Z"/>
        <path d="M198.9,20.62c-.39.09-.53.13-1.07.33-.19.08-.3.1-.39.1-.33,0-.63-.61-.9-1.9.96-.04,1.31-.09,2.97-.34,1.8-.27,4.08-.62,5.28-.77,1.35-.18,2.43-.36,3-.48.1-.03.15-.03.22-.03.2,0,.27.09.41.47.12.31.21.76.21.98,0,.18-.06.24-.27.24-.32,0-.6.03-.89.08-2.53.42-4.56,2.64-4.56,4.98,0,1.75,1.38,2.91,3.72,3.12.21.01.29.09.29.27,0,.38-.15,1.09-.29,1.42-.08.17-.19.24-.39.24s-.65-.09-1.11-.22c-2.55-.75-3.88-2.37-3.88-4.67,0-1.25.41-2.4,1.19-3.39.42-.54.78-.84,1.63-1.43-1.96.33-4.04.72-5.17,1.01ZM206.58,21.01c.21,0,1.48,1.43,1.48,1.65,0,.08-.09.17-.36.41-.29.24-.3.24-.42.28q-.08.03-.11.03c-.06,0-.08-.02-.34-.44-.24-.38-.5-.71-.97-1.2-.03-.03-.08-.1-.08-.12.03-.08.04-.12.06-.12.04-.06.3-.27.36-.31.15-.08.24-.14.25-.15.01-.03.04-.03.04-.03h.08ZM209.14,22.04c-.22.17-.36.25-.43.25-.06,0-.09-.03-.17-.15-.45-.67-.67-.96-1.16-1.42-.03-.05-.06-.09-.06-.12,0-.08.09-.17.3-.31s.39-.24.46-.24c.11,0,.29.14.6.45.44.45.84,1,.84,1.14,0,.09-.11.2-.39.41Z"/>
        <path d="M221.65,24.94q-.21.19-.87.82c-.63.63-1.19,1.1-1.83,1.56,1.56.55,2.77.76,5.1.85-.38.55-.62,1.03-.78,1.62-1.68-.22-2.38-.38-3.58-.72-.93-.29-1.38-.45-2.23-.85-1.86.85-3.32,1.21-6.13,1.52-.21-.65-.42-1.04-.78-1.52,2.29-.03,3.58-.24,5.38-.9-.69-.48-.99-.73-1.5-1.25-.73.46-1.29.73-2.21,1.08-.25-.51-.45-.79-.87-1.27,1.14-.35,2.14-.85,3.04-1.54.73-.57,1.17-1.04,1.5-1.59l1.44.58q-.09.12-.27.3s-.08.1-.17.21l-.15.18h2.73c.65,0,1.04-.03,1.26-.09l.92,1.01ZM214.57,19.99c-.41.81-.65,1.2-1.16,1.85-.45.57-.72.84-1.36,1.41-.12-.12-.23-.19-.3-.25q-.36-.31-.55-.46l-.24-.17c-.06-.03-.12-.08-.17-.1.62-.46.89-.71,1.26-1.12.52-.58.79-1,1.12-1.79l1.39.65ZM212.55,19.09c-.73,0-1.09.02-1.59.08v-1.54c.41.06.9.09,1.71.09h3.79v-.29c0-.37-.01-.64-.06-.93h1.79c-.05.29-.08.54-.08.92v.3h3.82c.75,0,1.28-.03,1.73-.09v1.54c-.46-.04-1-.08-1.7-.08h-2.26v2.92c0,.83-.32,1.08-1.4,1.08-.58,0-.73,0-1.08-.03-.05-.56-.17-.95-.45-1.41.46.08.75.1,1.09.1.27,0,.33-.04.33-.27v-2.4h-1.32c-.04,1.31-.21,2.02-.58,2.75-.39.72-.94,1.26-1.89,1.83-.33-.36-.67-.61-1.29-.96,1.12-.58,1.56-.94,1.86-1.62.27-.56.38-1.06.39-2h-2.82ZM215.53,25.27c.48.48,1.09.93,1.88,1.37.75-.45,1.16-.77,1.81-1.37h-3.69ZM221.13,19.48c.99.92,1.7,1.67,2.59,2.76l-1.35,1.02c-.81-1.26-1.26-1.83-2.43-2.98l1.18-.79Z"/>
        <path d="M228.27,27.2q0-1.63.01-2.34c-.75.83-1.26,1.48-1.51,1.95-.08.15-.18.24-.27.24-.15,0-.51-.31-.99-.85-.19-.24-.28-.38-.28-.44q0-.1.76-.85c.64-.65,1.51-1.67,2.33-2.74,0-.09,0-.44.01-1.04-.74.13-1.68.39-1.93.52-.15.08-.18.09-.25.09-.26,0-.47-.58-.66-1.75.79-.01,1.79-.12,2.88-.3,0-.54.01-1.31.01-1.73,0-.45-.03-.81-.09-1.11.95.06,1.41.12,1.83.23.22.06.31.15.31.31,0,.08-.03.15-.09.3-.15.3-.17.41-.29,1.59.36.22.71.6.71.79q0,.13-.46.7c-.04.06-.18.26-.41.54q-.01.48-.01.58c1.47-1.24,2.71-1.77,4.18-1.77,2.34,0,3.81,1.48,3.81,3.87,0,1.83-.84,3.19-2.57,4.12-.66.38-1.79.78-2.12.78-.09,0-.19-.03-.24-.09t-.23-.3c-.25-.36-.54-.65-.84-.85,2.99-.81,4.17-1.86,4.17-3.7,0-1.44-.85-2.37-2.21-2.37-.88,0-1.69.29-2.65.92q-.48.31-1.33,1.04.01.12.01.31c0,1.6,0,1.74.09,4.89.02.17.02.29.02.31,0,.29-.21.35-1.31.35-.39,0-.42-.04-.42-.47l.02-1.74Z"/>
        <path d="M247.8,21.77c2.12,0,3.62,1.44,3.62,3.48,0,1.4-.74,2.65-1.96,3.39-.86.51-1.91.77-3.09.77-1.91,0-3.02-.77-3.02-2.07,0-1.19.99-2.02,2.4-2.02,1.27,0,2.19.64,2.8,1.96.76-.56,1.08-1.14,1.08-1.95,0-1.29-.92-2.13-2.36-2.13s-3.04.73-4.35,2.04c-.24.24-.46.5-.73.84-.11.15-.18.21-.27.21-.27,0-1.33-1.05-1.33-1.32,0-.13.06-.21.39-.45.34-.27.84-.7,1.47-1.3,1.46-1.38,2.52-2.54,4.09-4.46-1.88.24-3.13.45-3.6.62-.08.02-.12.03-.17.03-.12,0-.2-.07-.29-.3-.18-.45-.27-.94-.32-1.6.41.06.69.08,1.02.08.72,0,1.93-.1,3.51-.29.55-.06.73-.1,1.16-.27.13-.06.21-.08.3-.08.21,0,.42.18.81.78.29.39.38.58.38.71,0,.19-.04.25-.38.46-.27.17-.43.3-.78.63-.75.72-.76.72-1.69,1.67-.66.67-.74.75-1.33,1.35.97-.54,1.74-.77,2.64-.77ZM246.36,26.96c-.23-.15-.48-.23-.77-.23-.46,0-.76.23-.76.58,0,.44.46.71,1.18.71.33,0,.62-.03.99-.14-.18-.5-.33-.72-.64-.93Z"/>
        <path d="M261.18,17.48c.18.12.25.21.25.31s-.01.12-.24.38c-.08.09-.3.42-.54.83q-.75,1.25-1.16,1.96c-.42.71-.69,1.19-.84,1.41q-.04.07-.25.45c-.2.35-.32.52-.53.81.97-.85,1.5-1.08,2.49-1.08.66,0,1.25.29,1.62.78.31.42.4.81.54,2.28.07.88.15,1.27.25,1.5.1.21.31.33.58.33,1.03,0,2.26-1.25,2.86-2.88.15.63.27.93.58,1.48.11.18.14.3.14.45,0,.17-.08.38-.26.66-.78,1.26-2.05,2.01-3.42,2.01-.86,0-1.58-.3-1.95-.79-.3-.42-.44-.98-.56-2.44-.07-.96-.15-1.29-.36-1.53-.17-.18-.41-.27-.74-.27-.99,0-2.29,1.33-3.06,3.1-.22.51-.38.97-.54,1.54-.06.22-.13.31-.24.31-.31,0-1.04-.3-1.42-.58-.1-.09-.15-.15-.15-.24,0-.07.03-.15.22-.57.12-.27.17-.35.27-.62q1.11-2.59,4.19-8.82c.34-.69.51-1.12.61-1.58.78.29,1.14.47,1.62.79Z"/>
        <path d="M269.59,21.5h-.09c-.08.02-.13.02-.17.02-.13,0-.21-.06-.25-.26-.09-.37-.15-.82-.18-1.41.21.02.38.02.48.02.81,0,1.75-.06,2.55-.17.15-.99.23-1.74.23-2.37v-.34c1.74.24,2.07.33,2.05.6,0,.08-.03.12-.09.26-.18.34-.2.39-.44,1.57.58-.1,1.33-.3,1.64-.4.06-.03.07-.03.12-.03.13,0,.16.06.28.58.06.3.12.72.12.84,0,.11-.04.17-.18.2q-.27.09-2.33.45c-.69,3.06-1.41,5.29-2.56,7.99-.08.2-.15.27-.24.27-.2,0-.72-.21-1.23-.49-.26-.14-.33-.2-.33-.29,0-.06.04-.17.12-.31,1.14-2.16,1.96-4.45,2.53-6.91-.66.07-1.12.12-2.04.19ZM276,27.2c.43.29,1.06.42,1.95.42.97,0,1.81-.09,2.29-.24.12-.03.15-.04.21-.04.13,0,.19.04.24.18.11.31.18.93.18,1.4,0,.19-.06.27-.25.31-.5.1-1.33.17-2.22.17-1.88,0-2.92-.3-3.61-1.02-.25-.27-.46-.6-.58-.98-.09-.22-.15-.48-.15-.57,0-.25.45-.52,1.23-.78.17.63.34.92.72,1.15ZM280.21,22.84c-.3-.04-.93-.08-1.46-.08-1.11,0-1.58.05-2.89.27-.03.02-.08.02-.11.02-.09,0-.13-.03-.17-.12-.04-.1-.1-.84-.1-1.15,0-.19.03-.29.15-.33.06-.03.15-.04.46-.1,1.02-.18,1.88-.25,2.92-.25.87,0,1.32.03,1.43.1.07.06.09.18.09.67,0,.44-.03.83-.06.92-.01.04-.08.08-.15.08-.03,0-.08,0-.12-.02ZM278.56,17.56c.2,0,1.47,1.42,1.47,1.65,0,.06-.1.19-.22.29-.06.04-.15.12-.25.21-.13.12-.18.15-.33.21t-.08.03c-.06,0-.06-.01-.34-.45-.25-.39-.74-.99-.99-1.22-.03-.03-.08-.09-.08-.1.03-.06.05-.09.05-.09.07-.09.33-.3.39-.34.15-.08.24-.14.25-.15.01-.03.03-.03.04-.03h.09ZM281.1,18.61c-.21.15-.36.24-.43.24-.06,0-.09-.03-.17-.15-.33-.54-.65-.93-1.14-1.43-.04-.04-.06-.07-.06-.12,0-.14.57-.56.76-.56.11,0,.29.15.62.5.48.49.83.94.83,1.09,0,.09-.11.19-.41.42Z"/>
        <path d="M285.81,21.1c-1.06.18-1.3.22-1.56.3-.15.04-.27.06-.36.06-.27,0-.4-.48-.46-1.65.87,0,1.35-.04,2.42-.24,0-.48.01-1.03.01-1.23,0-.58-.03-1.09-.09-1.47,1.58.07,2.04.18,2.04.46q0,.08-.13.39t-.2,1.62c.48.38.74.68.72.87,0,.04-.03.08-.09.14-.22.19-.25.22-.52.61q-.06.08-.15.19l-.06.09c0,.23,0,.25-.02.54.45-.51.87-.93,1.28-1.26,1.32-1.08,2.31-1.53,3.39-1.53s1.77.44,2.29,1.33c.45.78.69,1.88.69,3.17,0,.78-.06,1.38-.23,2.5.72.51,1.5,1.3,1.5,1.51,0,.24-.84,1.08-1.09,1.08-.1,0-.12-.02-.32-.31-.12-.17-.28-.36-.61-.72-.21.39-.33.56-.54.75-.55.51-1.3.78-2.19.78-1.56,0-2.56-.79-2.56-2,0-1.27,1.04-2.23,2.4-2.23.78,0,1.35.1,1.86.33.06-.56.08-.83.08-1.31,0-2.37-.45-3.3-1.59-3.3-.81,0-1.89.57-3.03,1.59-.41.38-.72.69-1.37,1.4v.87c0,1.99.04,4,.11,4.53v.06c0,.27-.21.34-.93.34-.66,0-.79-.06-.79-.34v-.12c.03-.44.04-.96.04-1.62q0-.99.01-2.17s-.03.04-.06.08c-.33.4-.87,1.14-1.22,1.63-.17.24-.25.31-.36.31-.15,0-.42-.27-.88-.87-.18-.23-.29-.42-.29-.5s.08-.17.45-.5c.27-.25,1.29-1.5,1.81-2.19.27-.38.46-.65.58-.84v-1.15ZM291.55,26.24c-.69,0-1.11.29-1.11.75s.32.69.89.69c.5,0,.9-.15,1.17-.45.13-.14.34-.51.34-.57h0c-.51-.33-.81-.42-1.29-.42Z"/>
        <path d="M305.26,28.24c0,.66-.52,1.18-1.18,1.18s-1.19-.52-1.19-1.18.53-1.19,1.19-1.19,1.18.52,1.18,1.19ZM304.74,26.02h-1.33l-.41-8.98h2.16l-.42,8.98Z"/>
        <path d="M314.58,20.62c-.39.09-.53.13-1.07.33-.19.08-.3.1-.39.1-.33,0-.63-.61-.9-1.9.96-.04,1.31-.09,2.97-.34,1.8-.27,4.08-.62,5.28-.77,1.35-.18,2.43-.36,3-.48.1-.03.15-.03.22-.03.2,0,.27.09.41.47.12.31.21.76.21.98,0,.18-.06.24-.27.24-.32,0-.6.03-.89.08-2.53.42-4.56,2.64-4.56,4.98,0,1.75,1.38,2.91,3.72,3.12.21.01.29.09.29.27,0,.38-.15,1.09-.29,1.42-.08.17-.19.24-.39.24s-.65-.09-1.11-.22c-2.55-.75-3.88-2.37-3.88-4.67,0-1.25.41-2.4,1.19-3.39.42-.54.78-.84,1.63-1.43-1.96.33-4.04.72-5.17,1.01ZM322.26,21.01c.21,0,1.48,1.43,1.48,1.65,0,.08-.09.17-.36.41-.29.24-.3.24-.42.28q-.08.03-.11.03c-.06,0-.08-.02-.34-.44-.24-.38-.5-.71-.97-1.2-.03-.03-.08-.1-.08-.12.03-.08.04-.12.06-.12.04-.06.3-.27.36-.31.15-.08.24-.14.25-.15.01-.03.04-.03.04-.03h.08ZM324.82,22.04c-.22.17-.36.25-.43.25-.06,0-.09-.03-.17-.15-.45-.67-.67-.96-1.16-1.42-.03-.05-.06-.09-.06-.12,0-.08.09-.17.3-.31s.39-.24.46-.24c.11,0,.29.14.6.45.44.45.84,1,.84,1.14,0,.09-.11.2-.39.41Z"/>
        <path d="M99.22,47.5c-1.07-.21-1.88-.52-2.43-.92-.27-.18-.33-.25-.33-.39,0-.17.12-.46.54-1.3.73.46,1.56.79,2.5.99.21-1.05.3-1.92.31-2.9.77.14,1.44.36,1.82.57.17.09.22.18.21.3,0,.06-.03.12-.11.27-.22.46-.24.51-.55,1.98.15.02.34.02.46.02h.11c.36-.02.63-.02.76-.02h.04c.13,0,.18.06.18.25,0,.66-.04,1.2-.1,1.31-.04.07-.24.1-.87.1-.29,0-.51-.02-.93-.03q-.32,1.54-.45,2.35c.51.04.62.04.87.04h.84c.15-.01.22.02.27.09.06.09.11.57.11,1.11,0,.27-.02.34-.11.39-.08.03-.4.05-.97.05-.27,0-.67-.02-1.2-.05-.01.27-.01.45-.01.57,0,1.38.64,2.01,2.05,2.01,1.58,0,2.52-.77,2.52-2.05,0-.47-.1-.89-.34-1.35-.3-.57-.58-.9-1.3-1.47h.13c.24,0,.75-.07,1.2-.16.24-.05.33-.06.41-.06.22,0,.38.1.67.48.69.84,1.04,1.72,1.04,2.65,0,2.11-1.71,3.51-4.31,3.51-2.43,0-3.64-1.21-3.64-3.67,0-.21,0-.38.03-.63-1.49-.31-2.29-1.05-2.29-2.12,0-.55.17-.96.58-1.38.04-.06.1-.07.17-.07.09,0,.19.07.54.36.27.23.31.27.31.35q0,.06-.09.19c-.06.1-.12.27-.12.36,0,.19.12.36.35.46.21.1.27.12.75.23l.39-2.43Z"/>
        <path d="M109.89,52.19c.27-.24.34-.3.45-.3.19,0,1.09.66,1.75,1.29.75.69,1.59,1.69,1.59,1.9,0,.14-.03.17-.46.56-.57.52-.69.61-.79.61-.09,0-.18-.06-.25-.21-.53-.93-1.73-2.16-2.79-2.85-.12-.09-.18-.15-.18-.24,0-.1.03-.15.69-.76Z"/>
        <path d="M120.09,45.92c0-.44-.02-1.02-.04-1.35.69.07,1.2.18,1.6.33.36.14.48.23.48.39q0,.09-.06.24c-.2.51-.25,1.08-.25,2.44,0,1.92.12,3.12.42,4.03.22.71.57,1.11.97,1.11.62,0,1.12-.72,1.68-2.38.28.77.39.99.81,1.53.08.1.12.21.12.31,0,.24-.22.75-.53,1.19-.58.85-1.33,1.32-2.13,1.32-1.15,0-2.02-.93-2.56-2.77-.34-1.2-.51-2.71-.51-4.81v-1.58ZM129.02,46.16c.09,0,.17.04.29.15.75.72,1.53,1.92,2.03,3.09.33.79.64,1.86.64,2.17,0,.15-.08.23-.39.39-.34.18-1.05.42-1.23.42-.13,0-.19-.08-.24-.34-.2-1.16-.46-2-.93-2.97-.42-.87-.45-.92-1.47-2.17.63-.46,1.12-.73,1.3-.73Z"/>
        <path d="M135.59,47.12c-.81,0-.84,0-.93-.18-.09-.15-.2-.78-.24-1.44.56.06,1.1.09,1.82.09.43,0,1.02-.01,1.63-.06.12-.9.15-1.22.15-1.77,0-.25-.02-.45-.04-.79.73.04,1.57.18,1.9.3.12.04.17.09.17.21,0,.09-.01.15-.1.33-.14.3-.2.54-.29,1.02-.04.28-.06.34-.09.54,1.23-.15,2.46-.42,3.31-.75.12-.03.18-.04.24-.04.1,0,.15.07.21.38.06.33.13.93.13,1.09,0,.18-.06.21-.51.31-1.18.24-2.67.46-3.71.56-.45,1.8-.66,2.38-1.2,3.39.84-.66,1.29-.92,2.01-1.17.64-.24,1.27-.34,1.95-.34,1.09,0,1.98.3,2.55.87.53.52.83,1.31.83,2.12,0,1.11-.52,2.01-1.65,2.76-.83.57-2.19,1.05-3.56,1.23-.24.03-.48.06-.57.06-.23,0-.33-.08-.44-.26-.29-.54-.52-.85-.92-1.23,1.4-.06,2.46-.25,3.54-.64,1.14-.41,1.8-1.1,1.8-1.89,0-1.02-.61-1.63-1.63-1.63-1.69,0-3.58,1.05-4.8,2.65-.09.1-.18.17-.27.17-.27,0-1.31-.94-1.31-1.19,0-.08.02-.1.17-.3.79-1.08,1.41-2.6,1.85-4.46-.26.02-1.85.08-2.01.08Z"/>
        <path d="M151.74,51.98c.04.06.06.1.06.17q0,.09-.25.78c-.31.92-.51,1.67-.57,2.25-.02.19-.08.27-.27.31-.21.06-.61.09-1,.09-.15,0-.22-.03-.27-.12-.14-.28-.38-1.32-.5-2.16-.11-.71-.15-1.44-.15-2.21,0-1.72.2-3.36.74-6.3.09-.48.12-.7.17-1.17.69.09,1.17.23,1.6.45.23.12.32.21.32.36,0,.08-.03.15-.11.27-.61,1.05-1.18,4.29-1.18,6.69,0,.36.01.93.06,1.65.36-.93.53-1.35.86-2.07.1.4.21.6.51,1ZM154.26,48.04c-.72,0-.87-.03-.91-.2-.05-.13-.09-.61-.09-.96,0-.12,0-.24.02-.51.4.03.64.04,1.14.04.81,0,1.32-.02,2.1-.06-.01-1.9-.03-2.15-.18-2.86.74.02,1.29.07,1.77.19.23.06.32.14.32.29,0,.07-.01.1-.06.23-.15.36-.23.94-.26,1.98.56-.08,1.04-.17,1.94-.38.08-.03.1-.03.15-.03.09,0,.14.04.17.15.03.14.08.71.08,1.02,0,.36-.01.44-.17.5-.24.1-.9.23-2.17.38,0,1.03.09,2.74.2,3.72.94.41,1.59.75,2.25,1.21.42.31.51.41.51.52,0,.15-.27.66-.58,1.1-.18.25-.27.33-.38.33s-.11,0-.45-.33c-.33-.33-.67-.57-1.33-1.02v.12c0,1.33-1.09,2.19-2.76,2.19s-2.8-.9-2.8-2.25,1.14-2.35,2.65-2.35c.56,0,.84.02,1.25.08q-.06-1.17-.1-3.17c-.65.04-1.67.08-2.27.08ZM155.49,52.45c-.75,0-1.25.34-1.25.87,0,.48.46.78,1.18.78.79,0,1.22-.36,1.22-1.04,0-.22-.02-.38-.02-.39-.39-.15-.73-.23-1.14-.23ZM159.5,44.66c-.21-.45-.34-.67-.81-1.31-.03-.04-.04-.07-.04-.1,0-.12.5-.46.68-.46.09,0,.19.1.49.48.38.5.79,1.19.79,1.33,0,.09-.04.15-.27.29-.22.17-.42.25-.51.25q-.11,0-.33-.48ZM160.31,42.32c.21-.12.35-.18.44-.18.1,0,.18.06.39.33.46.6.85,1.25.85,1.41,0,.09-.06.16-.3.3-.18.12-.39.23-.46.23-.06,0-.1-.04-.15-.15-.26-.57-.66-1.25-.95-1.58-.04-.04-.06-.09-.06-.12,0-.06.06-.13.24-.24Z"/>
        <path d="M169.55,43.73c.18.12.25.21.25.31s-.01.12-.24.38c-.08.09-.3.42-.54.83q-.75,1.25-1.16,1.96c-.42.71-.69,1.19-.84,1.41q-.04.07-.25.45c-.2.35-.32.52-.53.81.97-.85,1.5-1.08,2.49-1.08.66,0,1.25.29,1.62.78.31.42.4.81.54,2.28.07.88.15,1.27.25,1.5.1.21.31.33.58.33,1.03,0,2.26-1.25,2.86-2.88.15.63.27.93.58,1.48.11.18.14.3.14.45,0,.17-.08.38-.26.66-.78,1.26-2.05,2.01-3.42,2.01-.85,0-1.57-.3-1.95-.79-.3-.42-.44-.98-.56-2.44-.07-.96-.15-1.29-.36-1.53-.17-.18-.41-.27-.74-.27-.99,0-2.29,1.33-3.06,3.1-.22.51-.38.97-.54,1.54-.06.22-.13.31-.24.31-.31,0-1.04-.3-1.42-.58-.1-.09-.15-.15-.15-.24,0-.07.03-.15.22-.57.12-.27.17-.35.27-.62q1.11-2.59,4.19-8.82c.34-.69.51-1.12.61-1.58.78.29,1.14.47,1.62.79Z"/>
        <path d="M182.21,54.46c-1.33.25-1.49.29-2.94.5-.96.13-1.59.24-2.01.31l-.31-1.48c.09.02.15.02.21.02.25,0,.67-.03,1.25-.08v-4.47c-.62,0-.98.02-1.41.07v-1.38c.38.06.76.08,1.47.08h10.18c.72,0,1.09-.02,1.5-.08v1.38c-.45-.06-.83-.07-1.51-.07h-5v5.28c.74-.25,1.37-.58,1.95-1.02-.45-.5-.83-1.02-1.3-1.83l1.21-.55h-.38c-.46,0-.71.01-1.08.06v-1.35c.31.04.64.06,1.21.06h2.42c.48,0,.84-.02,1.08-.06l.73.81c-.09.15-.12.19-.22.42-.46.94-1.04,1.81-1.63,2.46.62.42,1.44.75,2.55,1.03-.29.42-.53.89-.74,1.41-1.54-.6-1.89-.78-2.82-1.48-.75.6-1.31.94-2.24,1.38-.19-.46-.43-.85-.75-1.2,0,.57.02,1.02.08,1.38h-1.59c.06-.34.09-.73.09-1.45v-.14ZM188.6,46.3c0,.56.02.87.04,1.25-.3-.03-.84-.04-1.32-.04h-7.3c-.62,0-1.04.01-1.49.04.04-.38.06-.72.06-1.25v-1.95c0-.54-.01-.87-.06-1.25.51.04.85.06,1.53.06h7.05c.69,0,1.03-.02,1.53-.06-.03.36-.04.67-.04,1.25v1.95ZM182.21,49.25h-2.4v.65h2.4v-.65ZM182.21,50.95h-2.4v.71h2.4v-.71ZM182.21,52.7h-2.4v.89c.85-.09.97-.1,2.4-.3v-.58ZM180.08,44.86h7.02v-.6h-7.02v.6ZM180.08,46.43h7.02v-.58h-7.02v.58ZM185.57,51.13c.38.75.58,1.05,1,1.51.42-.4.71-.82,1.08-1.51h-2.08Z"/>
        <path d="M194.94,50.78v3.42c0,.79.03,1.35.08,1.77h-1.67c.06-.5.09-1.11.09-1.77v-2.73s0-.25.01-.72c-.5.48-.93.84-1.63,1.33-.18-.56-.39-.95-.75-1.44.81-.5,1.47-1.02,2.12-1.67.81-.84,1.21-1.42,1.81-2.61h-2.05c-.51,0-1,.03-1.32.07v-1.53c.44.06.66.08,1.35.08h.48v-1.05c0-.52-.01-.88-.08-1.2h1.67c-.08.31-.09.58-.09,1.2v1.05h.3c.48,0,.78-.02,1.02-.06l.66.84c-.09.15-.17.29-.32.6-.39.87-.87,1.67-1.56,2.59.17.18.22.24.51.48.67-.78,1.04-1.3,1.38-2.02l1.11.84c-.96,1.33-.97,1.37-1.51,1.95.29.21.44.31.92.58-.33.36-.55.71-.81,1.21-.71-.51-1.21-.94-1.71-1.44v.21ZM198.69,45.13c-.69,0-1.29.03-1.73.08v-1.56c.44.06,1.05.09,1.73.09h4.15c.6,0,1.12-.03,1.38-.07q-.06.4-.1,3.09c-.06,3.88-.27,6.6-.57,7.63-.17.52-.39.82-.78,1.03-.31.17-.71.23-1.46.23-.4,0-.58-.02-1.5-.06-.08-.79-.14-1.05-.36-1.62.71.1,1.35.16,1.81.16.62,0,.75-.16.92-1.15.11-.61.24-2.19.3-3.38.06-1.47.06-1.95.09-4.47h-2c-.04,2.4-.21,3.87-.6,5.35-.36,1.41-.91,2.56-1.74,3.7-.44.58-.79.98-1.54,1.67-.33-.56-.67-.96-1.12-1.35,1-.81,1.62-1.54,2.14-2.58.72-1.41,1.08-2.88,1.23-4.96.03-.6.04-.75.04-1.83h-.3Z"/>
        <path d="M211.7,52.37c-.72,1.25-1.71,1.94-2.73,1.94-1.56,0-2.67-1.53-2.67-3.66,0-2.37,1.2-4.41,3.25-5.49,1-.54,2.08-.78,3.51-.78,3.14,0,5.46,2.22,5.46,5.19,0,2.62-1.29,4.51-3.78,5.58-.5.21-.89.33-1.08.33-.18,0-.25-.06-.45-.34-.25-.39-.54-.68-.95-.95,3.09-.79,4.49-2.25,4.49-4.68,0-1.25-.53-2.29-1.46-2.96-.53-.36-.95-.51-1.77-.64-.42,3.16-.92,4.89-1.83,6.46ZM209.54,47.06c-1,.88-1.58,2.15-1.58,3.55,0,1.16.38,1.83,1,1.83.75,0,1.52-1.04,2.08-2.82.36-1.12.54-1.98.77-3.65-1.07.23-1.59.48-2.28,1.08Z"/>
        <path d="M221.58,50.08c0-.52,0-1.03.03-1.6-.42.74-.62,1.02-1,1.5-.15-.6-.36-1.17-.65-1.71.96-1.06,1.59-2.14,2.13-3.58.35-.9.45-1.33.56-2.06l1.63.39q-.71,2.13-1.21,3.24v8.08c0,.63.01,1.12.07,1.67h-1.65c.06-.58.09-.97.09-1.68v-4.25ZM224.04,56.03c.06-.51.08-.89.08-1.77v-6.34c0-.72-.03-1.2-.09-1.62h1.6c-.04.45-.06.89-.06,1.64v6.04h6.34c.72,0,1.15-.01,1.59-.07v1.54c-.5-.06-.96-.09-1.61-.09h-6.33v.68h-1.53ZM225.69,45.31c-.58,0-.93.02-1.35.06v-1.52c.38.06.77.08,1.52.08h2.56c.06-.51.08-.65.11-1.2l1.59.09q-.14.8-.2,1.11h2.19c.69,0,1.02-.02,1.5-.09v1.53c-.42-.04-.84-.06-1.32-.06h-2.62c-.06.3-.13.61-.21.94h2.07c.6,0,.95-.02,1.21-.03-.04.46-.04.7-.04,1.38v4.36c0,.6,0,.82.04,1.27-.45-.02-.82-.03-1.23-.03h-3.71c-.42,0-.76.01-1.21.03.03-.31.04-.69.04-1.14v-4.71c0-.54-.01-.93-.04-1.17.36.03.57.03,1.16.03h.21c.1-.34.15-.58.22-.94h-2.49ZM228.09,48.22h3.15v-.75h-3.15v.75ZM228.09,50.06h3.15v-.77h-3.15v.77ZM228.09,51.98h3.15v-.84h-3.15v.84Z"/>
        <path d="M243.09,44.65c-.03.98-.12,1.46-.36,2.06-.28.72-.61,1.17-1.41,1.87-.41-.51-.57-.67-1.02-1-.54-.04-.62-.04-1.21-.04h-2.05v1.4h2.02c.72,0,.93-.02,1.35-.06v1.46c-.39-.03-.72-.04-1.33-.04h-2.04v1.72c1.58-.19,1.83-.24,3.52-.58l.03,1.4c-1.51.35-2.29.5-3.55.69v.95c0,.57.03,1,.09,1.53h-1.7c.06-.57.09-.98.09-1.52v-.75c-.24.04-.39.08-.48.09-.13.01-.15.01-.22.04l-.18-1.67c.17.02.21.02.25.02.15,0,.41-.02.63-.03v-6.99c0-.61-.02-.88-.08-1.32,1.41-.12,2.96-.45,3.87-.82.36-.14.38-.15.74-.38l.87,1.47q-.25.06-.88.27c-1.32.42-1.63.5-3,.75v1.04h2.04c.72,0,.93-.02,1.35-.06v1.12c.95-.75,1.25-1.55,1.25-3.29,0-.33-.01-.58-.04-.82.3.03.58.04,1.05.04h2.17c.55,0,.79-.02,1.14-.04-.03.38-.04.67-.04,1.2v2.08c0,.19.09.24.46.24.3,0,.39-.07.45-.36.06-.33.09-.66.11-1.35.43.27.75.4,1.25.57-.09,1.19-.2,1.69-.42,2.05-.23.35-.57.45-1.53.45-.66,0-1.17-.06-1.38-.18-.25-.13-.33-.33-.33-.82v-2.37h-1.46ZM247.5,49.51c-.15.23-.27.42-.39.65-.67,1.25-1.26,2.1-1.99,2.91.94.65,1.9,1.06,3.27,1.38-.36.52-.48.75-.76,1.5-1.59-.54-2.6-1.06-3.62-1.86-1.07.83-2.33,1.44-4.04,1.95-.21-.58-.42-.98-.79-1.47,1.63-.38,2.67-.79,3.76-1.54-.7-.88-1.06-1.53-1.51-2.8-.25.02-.39.03-.66.06v-1.59c.27.04.48.06.93.06h3.97c.54,0,.73-.01,1.02-.06l.81.82ZM242.87,50.21c.34.85.6,1.27,1.15,1.88.71-.72.92-.99,1.4-1.88h-2.55Z"/>
        <path d="M253.26,51.94c.04.06.06.1.06.16q0,.09-.25.78c-.32.92-.51,1.67-.57,2.25-.01.19-.08.27-.27.31-.21.06-.61.09-1,.09-.15,0-.22-.03-.27-.12-.13-.28-.38-1.32-.5-2.16-.1-.71-.15-1.44-.15-2.21,0-1.73.2-3.36.74-6.3.09-.48.12-.71.17-1.17.69.09,1.17.23,1.6.44.23.12.32.23.32.36,0,.09-.03.17-.11.29-.61,1.05-1.18,4.29-1.18,6.69,0,.36.01.93.06,1.65.36-.93.52-1.35.85-2.07.11.41.21.6.51,1.01ZM255.78,47.99c-.72,0-.87-.03-.92-.19-.04-.13-.09-.61-.09-.96,0-.12,0-.24.01-.51.41.03.64.04,1.14.04.81,0,1.32-.02,2.1-.08-.02-1.9-.03-2.15-.18-2.85.74.01,1.29.07,1.77.19.22.06.31.13.31.29,0,.06-.01.1-.06.22-.15.35-.23.93-.25,1.98.55-.07,1.03-.18,1.93-.39.08-.03.1-.03.15-.03.09,0,.13.04.17.15.03.14.07.71.07,1.02,0,.38-.01.44-.17.5-.24.12-.9.23-2.17.39,0,1.03.09,2.74.2,3.72.95.4,1.59.75,2.25,1.21.42.3.51.41.51.51,0,.16-.27.67-.58,1.11-.18.25-.27.33-.38.33s-.1,0-.45-.33c-.33-.33-.67-.58-1.33-1.02v.12c0,1.32-1.09,2.19-2.76,2.19s-2.8-.9-2.8-2.25,1.14-2.35,2.66-2.35c.55,0,.84.02,1.24.08q-.06-1.17-.1-3.18c-.65.04-1.67.09-2.26.09ZM257.01,52.4c-.75,0-1.25.34-1.25.87,0,.48.46.78,1.19.78.79,0,1.21-.36,1.21-1.05,0-.21-.02-.38-.02-.38-.39-.15-.73-.23-1.14-.23Z"/>
        <path d="M264.08,52.19c.27-.24.34-.3.45-.3.19,0,1.09.66,1.75,1.29.75.69,1.59,1.69,1.59,1.9,0,.14-.03.17-.46.56-.57.52-.69.61-.79.61-.09,0-.18-.06-.25-.21-.53-.93-1.73-2.16-2.79-2.85-.12-.09-.18-.15-.18-.24,0-.1.03-.15.69-.76Z"/>
        <path d="M277.82,47.77c-.19-.66-.25-1.06-.43-2.91-.06-.72-.12-1.08-.27-1.59.91.02,1.5.06,1.9.17.23.06.33.17.33.33,0,.06-.01.13-.04.25-.1.36-.15.63-.15,1.02,0,.73.15,1.94.32,2.46.09.28.18.39.34.39.36,0,1.68-.69,2.4-1.24.19-.15.22-.17.3-.17.13,0,.27.1.5.39.38.51.67,1.06.67,1.27,0,.17-.11.27-.36.34-.93.25-2.46.85-3.49,1.35-1.83.9-2.66,1.73-2.66,2.65s.76,1.29,2.7,1.29c1.12,0,2.14-.1,3.52-.33.06-.02.17-.03.2-.03.12,0,.19.06.25.18.04.15.15,1.06.15,1.43,0,.21-.06.28-.26.34-.33.08-2.14.18-3.28.18-1.92,0-3.2-.26-3.99-.79-.67-.47-1.04-1.2-1.04-2.1,0-.69.2-1.31.6-1.9.52-.78,1.09-1.27,2.35-2.02-.31-.29-.43-.5-.57-.96ZM283.26,44.41c.12-.09.2-.12.29-.12.21,0,1.51,1.38,1.51,1.6,0,.09-.12.23-.41.46-.3.25-.33.27-.4.27-.09,0-.11,0-.39-.42-.3-.42-.72-.9-1.04-1.17-.04-.04-.07-.09-.07-.14,0-.07.13-.21.51-.49ZM286.52,44.81c0,.09-.04.15-.22.3-.21.18-.5.38-.56.38-.09,0-.12-.04-.3-.28-.34-.5-.55-.73-1.09-1.23-.06-.06-.08-.09-.08-.14,0-.13.57-.57.75-.57.25,0,1.5,1.27,1.5,1.54Z"/>
        <path d="M292.5,46.85c.97-.25,1.62-.35,2.33-.35,2.13,0,3.36,1.26,3.36,3.42,0,1.88-.81,3.39-2.45,4.59-.87.65-2.19,1.29-2.62,1.29-.2,0-.24-.04-.56-.5-.22-.34-.45-.55-.82-.82,1.72-.58,2.44-.96,3.22-1.64.9-.79,1.35-1.75,1.35-2.89,0-1.22-.57-1.91-1.58-1.91-.81,0-1.86.31-3.22.98-.2.09-.3.17-.55.35-.06.03-.12.06-.18.06-.29,0-.77-.84-1.1-1.96.56-.04.84-.12,2.82-.61ZM293.51,43.19c.54.17,1.35.32,2.08.41.3.03.41.04,1.17.07.22,0,.29.06.29.23,0,.5-.11,1.31-.2,1.46-.03.09-.1.12-.21.12-.34,0-1.56-.17-2.26-.31-1.19-.24-2.22-.54-2.43-.71-.05-.04-.08-.1-.08-.17,0-.12.31-.93.46-1.21.08-.12.12-.15.21-.15q.08,0,.96.27Z"/>
        <path d="M311.87,45.08c2.03,0,3.3,1.21,3.3,3.17s-1.41,3.09-3.75,3.09c-.51,0-1.04-.06-1.23-.14-.12-.04-.18-.12-.21-.25-.1-.5-.3-.98-.66-1.57.93.22,1.5.31,2.13.31,1.21,0,1.94-.56,1.94-1.52,0-.38-.11-.75-.25-.96-.27-.38-.86-.61-1.53-.61-.86,0-2.04.38-4.51,1.44q.94,2.35,1.47,3.79c.63,1.7,1.16,3.23,1.16,3.36,0,.12-.09.2-.39.33-.43.2-.99.38-1.18.38-.15,0-.17-.03-.32-.58-.69-2.52-1.3-4.35-2.22-6.58-1.14.52-1.68.82-2,1.12-.09.07-.18.12-.28.12-.2,0-.38-.15-.66-.55-.3-.42-.42-.65-.67-1.12.96-.27,1.57-.48,2.98-1.06-.78-1.79-.88-2-1.47-2.75.96-.38,1.5-.54,1.84-.54.32,0,.39.09.43.5.05.42.08.57.26.99.01.03.15.34.46,1.15,1.32-.54,1.78-.72,2.77-1.04-.06-.03-.08-.04-.12-.1-.51-.66-.82-.99-1.48-1.54-.03-.06-.04-.09-.04-.13q0-.09.51-.54c.2-.18.5-.36.58-.36.08,0,.15.03.24.09.92.69,1.54,1.32,1.54,1.57,0,.12-.45.62-.81.89.83-.23,1.54-.33,2.17-.33Z"/>
        <path d="M320.28,48.29c1.89-.52,3.25-.77,4.27-.77,2.12,0,3.42,1.16,3.42,3.03,0,1.12-.46,2.12-1.35,2.87-.58.49-1.46.91-2.61,1.26-.64.18-1.33.31-1.63.31-.18,0-.27-.04-.33-.19-.21-.52-.45-.9-.76-1.21,3.3-.35,4.98-1.4,4.98-3.1,0-.87-.72-1.54-1.65-1.54-1.62,0-3.39.54-5.25,1.57-.15.08-.24.12-.3.12-.25,0-.67-.75-1.02-1.83.74-.1.99-.17,2.24-.51Z"/>
        <path d="M97.68,73.12c-.39.09-.53.13-1.07.33-.19.08-.3.1-.39.1-.33,0-.63-.61-.9-1.9.96-.04,1.31-.09,2.97-.34,1.8-.27,4.08-.62,5.28-.77,1.35-.18,2.43-.36,3-.48.1-.03.15-.03.22-.03.2,0,.27.09.41.47.12.31.21.76.21.98,0,.18-.06.24-.27.24-.32,0-.6.03-.89.08-2.53.42-4.56,2.64-4.56,4.98,0,1.75,1.38,2.91,3.72,3.12.21.01.29.09.29.27,0,.38-.15,1.09-.29,1.42-.08.17-.19.24-.39.24s-.65-.09-1.11-.22c-2.55-.75-3.88-2.37-3.88-4.67,0-1.25.41-2.4,1.19-3.39.42-.54.78-.84,1.63-1.43-1.96.33-4.04.72-5.17,1.01Z"/>
        <path d="M110.29,72.64c1.03.57,1.57.96,2.59,1.81l-.92,1.35c-.99-.92-1.54-1.35-2.59-1.98l.92-1.18ZM112.84,77.53c-.56,1.69-1.05,2.86-1.73,4.06q-.1.19-.18.34t-.12.21l-1.38-1.2c.81-.98,1.41-2.16,2.15-4.32l1.26.9ZM110.91,69.08c1.02.6,1.59,1.04,2.54,1.92l-1,1.29c-.92-.94-1.37-1.32-2.52-2.05l.99-1.16ZM118.39,76.58c.85,1.87,2.26,3.15,4.41,4-.39.51-.55.84-.84,1.64-2.16-1.1-3.78-2.71-4.53-4.5-.71,2.06-1.94,3.4-4.19,4.6-.25-.58-.49-.93-.99-1.46,2.28-.96,3.46-2.25,3.93-4.29h-1.38c-.67,0-1.17.03-1.62.09v-1.69c.45.04.96.07,1.6.07h1.62c.06-.84.09-1.65.11-2.46h-1.19c-.61,0-1.15.03-1.53.08v-1.63c.46.06.9.07,1.53.07h1.17v-.76c0-.68-.03-.96-.09-1.37h1.74c-.08.42-.09.68-.09,1.33v.79h2.22c.66,0,1-.01,1.33-.06-.04.29-.06.6-.06,1.16v2.85q.6-.01,1.2-.09v1.71c-.46-.06-.96-.09-1.59-.09h-2.77ZM120.04,75.05v-2.46h-2c-.01,1.14-.04,1.81-.1,2.46h2.1Z"/>
        <path d="M129.79,74.59q-.03-.73-.04-1.67c-.13.02-.27.02-.33.02-.99,0-2.26-.1-2.79-.24-.15-.04-.18-.07-.18-.22,0-.33.04-.74.15-1.32.84.17,1.88.27,2.77.27.08,0,.21,0,.38-.01v-.99c0-.52-.01-.76-.04-1.29.75.05,1.26.09,1.62.18.3.06.39.13.39.3,0,.08-.01.1-.12.35-.1.25-.12.31-.18,1.35.9-.1,1.62-.26,2.33-.47.04-.01.06-.01.08-.01.1,0,.1.01.27.49.11.31.21.71.21.83,0,.1-.04.17-.19.21-.5.17-1.79.39-2.73.5,0,1.06,0,1.11.01,1.63,1.05-.13,1.62-.29,2.81-.72.07-.03.1-.04.15-.04.09,0,.12.04.27.41.15.38.29.79.29.94,0,.08-.06.13-.17.18-.83.3-2.33.66-3.27.76.03.57.06.89.15,2.06.84.25,1.18.39,1.83.73.72.36,1.11.61,1.75,1.12.12.09.17.17.17.29,0,.1-.14.36-.42.81-.33.5-.5.69-.6.69-.04,0-.09-.01-.13-.06-.9-.85-1.49-1.28-2.49-1.77-.06.72-.22,1.12-.63,1.5-.51.49-1.36.76-2.43.76-1.84,0-2.98-.81-2.98-2.11,0-.57.24-1.12.64-1.5.58-.54,1.47-.83,2.59-.83.36,0,.67.03,1.05.08-.07-.98-.1-1.32-.12-1.63-.34.01-.54.01-.72.01-1.04,0-2.29-.16-3-.38-.15-.04-.21-.12-.21-.24,0-.23.09-.71.23-1.32.93.23,2.11.36,3.22.36h.43ZM128.76,79.16c-.96,0-1.49.29-1.49.79,0,.45.43.69,1.28.69.97,0,1.42-.34,1.42-1.09v-.25c-.39-.1-.69-.14-1.21-.14Z"/>
        <path d="M146.58,74.27c2.12,0,3.62,1.44,3.62,3.48,0,1.4-.74,2.65-1.96,3.39-.86.51-1.91.77-3.09.77-1.91,0-3.02-.77-3.02-2.07,0-1.19.99-2.02,2.4-2.02,1.27,0,2.19.64,2.8,1.96.76-.56,1.08-1.14,1.08-1.95,0-1.29-.92-2.13-2.36-2.13s-3.04.73-4.35,2.04c-.24.24-.46.5-.73.84-.11.15-.18.21-.27.21-.27,0-1.33-1.05-1.33-1.32,0-.13.06-.21.39-.45.34-.27.84-.7,1.47-1.3,1.46-1.38,2.52-2.54,4.09-4.46-1.88.24-3.13.45-3.6.62-.08.02-.12.03-.17.03-.12,0-.2-.07-.29-.3-.18-.45-.27-.94-.32-1.6.41.06.69.08,1.02.08.72,0,1.93-.1,3.51-.29.55-.06.73-.1,1.15-.27.14-.06.21-.08.3-.08.21,0,.42.18.81.78.29.39.38.58.38.71,0,.19-.04.25-.38.46-.27.17-.43.3-.78.63-.75.72-.76.72-1.69,1.67-.66.67-.74.75-1.33,1.35.97-.54,1.74-.77,2.64-.77ZM145.14,79.46c-.23-.15-.48-.23-.77-.23-.46,0-.76.23-.76.58,0,.44.46.71,1.18.71.33,0,.62-.03.99-.14-.18-.5-.33-.72-.64-.93Z"/>
        <path d="M158.73,78.62c-.72,1.25-1.71,1.94-2.73,1.94-1.56,0-2.67-1.53-2.67-3.66,0-2.37,1.2-4.41,3.25-5.49,1-.54,2.08-.78,3.51-.78,3.14,0,5.46,2.22,5.46,5.19,0,2.62-1.29,4.51-3.78,5.58-.5.21-.89.33-1.08.33-.18,0-.25-.06-.45-.34-.25-.39-.54-.68-.95-.95,3.09-.79,4.49-2.25,4.49-4.68,0-1.25-.53-2.29-1.46-2.96-.53-.36-.95-.51-1.77-.64-.42,3.16-.92,4.89-1.83,6.46ZM156.57,73.31c-1,.88-1.58,2.15-1.58,3.55,0,1.16.38,1.83,1,1.83.75,0,1.52-1.04,2.08-2.82.36-1.12.54-1.98.77-3.65-1.07.23-1.59.48-2.28,1.08Z"/>
        <path d="M170.11,71.99c.34-.9.67-1.38,1.25-1.86.69-.57,1.51-.84,2.56-.84,2.25,0,3.69,1.23,3.69,3.15,0,.65-.18,1.26-.53,1.75-.27.39-.39.51-1.23,1.27-1.17,1.05-1.42,1.46-1.42,2.25v.79h-1.53v-.84c0-.67.13-1.27.41-1.75.21-.38.43-.63,1.03-1.23.63-.61.83-.84.99-1.11.21-.3.33-.72.33-1.12,0-1-.67-1.63-1.74-1.63s-1.69.55-2.14,1.86l-1.67-.69ZM174.9,80.74c0,.66-.53,1.18-1.19,1.18s-1.18-.52-1.18-1.18.52-1.19,1.18-1.19,1.19.52,1.19,1.19Z"/>
      </g>
      <circle class="cls-10" cx="31.42" cy="83.49" r="30"/>
      <g>
        <path d="M13.33,152.61c0-.44-.02-1.02-.04-1.35.69.07,1.2.18,1.6.33.36.14.48.23.48.39q0,.09-.06.24c-.2.51-.25,1.08-.25,2.44,0,1.92.12,3.12.42,4.04.22.71.57,1.11.97,1.11.62,0,1.12-.72,1.68-2.38.28.77.39.99.81,1.53.08.1.12.21.12.31,0,.24-.22.75-.53,1.19-.58.85-1.33,1.32-2.13,1.32-1.15,0-2.02-.93-2.56-2.77-.34-1.2-.51-2.71-.51-4.81v-1.58ZM22.25,152.85c.09,0,.17.04.29.15.75.72,1.53,1.92,2.03,3.09.33.79.64,1.86.64,2.17,0,.15-.08.23-.39.39-.34.18-1.05.42-1.23.42-.13,0-.19-.08-.24-.34-.2-1.16-.46-2-.93-2.97-.42-.87-.45-.92-1.47-2.17.63-.46,1.12-.73,1.3-.73Z"/>
        <path d="M27.79,152.61c0-.44-.02-1.02-.04-1.35.69.07,1.2.18,1.6.33.36.14.48.23.48.39q0,.09-.06.24c-.2.51-.25,1.08-.25,2.44,0,1.92.12,3.12.42,4.04.22.71.57,1.11.97,1.11.62,0,1.12-.72,1.68-2.38.28.77.39.99.81,1.53.08.1.12.21.12.31,0,.24-.22.75-.53,1.19-.58.85-1.33,1.32-2.13,1.32-1.15,0-2.02-.93-2.56-2.77-.34-1.2-.51-2.71-.51-4.81v-1.58ZM36.71,152.85c.09,0,.17.04.29.15.75.72,1.53,1.92,2.03,3.09.33.79.64,1.86.64,2.17,0,.15-.08.23-.39.39-.34.18-1.05.42-1.23.42-.13,0-.19-.08-.24-.34-.2-1.16-.46-2-.93-2.97-.42-.87-.45-.92-1.47-2.17.63-.46,1.12-.73,1.3-.73Z"/>
        <path d="M53.17,151.42c.45,0,.77-.02,1.11-.06v1.41c-.36-.06-.65-.08-1.09-.08h-.95v1.25c.29-.01.34-.01.57-.03-.04.42-.06.84-.06,1.92v2.94c0,.84.02,1.33.06,1.65-.36-.04-.84-.06-1.53-.06h-1.04c.57.25.99.42,1.23.5.88.28,1.56.4,2.91.52-.34.54-.38.6-.72,1.47-2.19-.38-3.17-.71-4.79-1.63l1.17-.85h-4.52l1.16.9c-1.77.96-2.64,1.26-4.68,1.58-.25-.62-.36-.83-.78-1.46,2.19-.24,2.88-.41,4.02-1.02h-.83c-.67,0-1.17.01-1.54.06.04-.43.06-.9.06-1.69v-2.9c0-.72,0-.9-.03-1.39-.15.34-.28.52-.69,1.02-.45-.55-.69-.79-1.2-1.23.84-.84,1.16-1.86,1.16-3.72,0-.14-.03-.51-.06-.68.11,0,.2.02.24.02h.3c.77,0,1.95-.11,2.66-.24.57-.12.97-.22,1.42-.43l.9,1.21c-1.35.38-1.92.46-3.98.58,0,.22,0,.29-.01.43h2.85c.46,0,.81-.01,1.07-.06v1.41c-.34-.04-.63-.06-1.04-.06h-.38v1.26h1.84c-.25-.25-.39-.36-.69-.6.58-.74.83-1.62.83-3.01,0-.2-.02-.32-.05-.53.26.03.35.03.47.03.46,0,1.8-.11,2.35-.18.79-.1,1.32-.22,2-.46l.93,1.2c-2.34.45-2.5.46-4.21.55-.01.23-.01.33-.03.47h3.58ZM44.71,153.96v-1.26h-1.19c-.09.48-.19.78-.38,1.23.45.03.72.03,1.23.03h.33ZM44.47,155.77h6.75v-.62h-6.75v.62ZM44.47,157.44h6.75v-.6h-6.75v.6ZM44.47,159.15h6.75v-.63h-6.75v.63ZM49.39,152.7c-.17.57-.29.86-.5,1.26h1.89v-1.26h-1.39Z"/>
        <path d="M57.82,160.87c0,.87.03,1.39.09,1.77h-1.69c.06-.45.09-.87.09-1.78v-9.43c0-.77-.01-1.14-.06-1.62.47.04.78.06,1.47.06h2.53c.75,0,1.07-.01,1.49-.06-.04.43-.04.75-.04,1.33v2.38c0,.67,0,.96.03,1.29-.41-.02-.83-.03-1.32-.03h-2.58v6.09ZM57.82,151.78h2.46v-.75h-2.46v.75ZM57.82,153.66h2.46v-.76h-2.46v.76ZM65.09,159.36c0,.43.01.72.04.99-.33-.03-.62-.04-1.02-.04h-3.21v.96h-1.53c.04-.39.07-.85.07-1.39v-3.09c0-.39-.01-.74-.04-1.02.33.03.65.04,1.07.04h3.55c.45,0,.78-.01,1.11-.04-.03.27-.04.57-.04.99v2.61ZM60.91,158.98h2.73v-1.89h-2.73v1.89ZM68.33,160.89c0,1.32-.36,1.61-2.01,1.61-.22,0-.39,0-1.37-.04-.09-.71-.17-1-.39-1.53.58.08,1.3.12,1.75.12.42,0,.5-.06.5-.36v-5.89h-2.79c-.45,0-1.02.01-1.32.03.03-.35.04-.69.04-1.29v-2.38c0-.51-.01-.92-.04-1.33.45.04.75.06,1.47.06h2.73c.71,0,1.02-.01,1.49-.06-.04.46-.06.93-.06,1.6v9.48ZM64.18,151.78h2.64v-.75h-2.64v.75ZM64.18,153.66h2.64v-.76h-2.64v.76Z"/>
        <path d="M72.95,154.03c-1.06.18-1.3.22-1.56.3-.15.04-.27.06-.36.06-.27,0-.4-.48-.46-1.65.87,0,1.35-.04,2.42-.24,0-.48.01-1.03.01-1.23,0-.58-.03-1.09-.09-1.47,1.58.07,2.04.18,2.04.46q0,.08-.13.39t-.2,1.62c.48.38.74.67.72.87,0,.04-.03.08-.09.13-.22.2-.25.22-.52.62q-.06.08-.15.19l-.06.09c0,.22,0,.25-.02.54.45-.51.87-.93,1.28-1.26,1.32-1.08,2.31-1.53,3.39-1.53s1.77.43,2.29,1.33c.45.78.69,1.88.69,3.17,0,.78-.06,1.38-.23,2.5.72.51,1.5,1.3,1.5,1.51,0,.24-.84,1.08-1.09,1.08-.1,0-.12-.02-.32-.32-.12-.17-.28-.36-.61-.72-.21.39-.33.55-.54.75-.55.51-1.3.78-2.19.78-1.56,0-2.56-.79-2.56-2,0-1.28,1.04-2.24,2.4-2.24.78,0,1.35.11,1.86.33.06-.55.08-.83.08-1.3,0-2.37-.45-3.3-1.59-3.3-.81,0-1.89.57-3.03,1.59-.41.38-.72.69-1.37,1.39v.87c0,2,.04,4,.11,4.53v.06c0,.27-.21.34-.93.34-.66,0-.79-.06-.79-.34v-.12c.03-.43.04-.96.04-1.62q0-.99.01-2.17s-.03.04-.06.08c-.33.41-.87,1.14-1.22,1.63-.17.24-.25.32-.36.32-.15,0-.42-.27-.88-.87-.18-.22-.29-.42-.29-.5s.08-.17.45-.5c.27-.25,1.29-1.5,1.81-2.19.27-.38.46-.65.58-.84v-1.16ZM78.7,159.18c-.69,0-1.11.29-1.11.75s.32.69.89.69c.5,0,.9-.15,1.17-.45.13-.13.34-.51.34-.57h0c-.51-.33-.81-.42-1.29-.42Z"/>
        <path d="M92.41,161.17c0,.66-.52,1.18-1.18,1.18s-1.19-.52-1.19-1.18.53-1.18,1.19-1.18,1.18.52,1.18,1.18ZM91.88,158.95h-1.33l-.41-8.98h2.16l-.42,8.98Z"/>
        <path d="M108.55,155.01h2.13c.68,0,1.1-.03,1.54-.09v1.63c-.48-.04-.93-.07-1.56-.07h-1.62c.86,1.5,2.1,2.74,3.58,3.58-.48.48-.69.78-.99,1.5-.61-.43-1.05-.85-1.62-1.5-.74-.86-1.05-1.32-1.53-2.22.03.54.04,1,.04,1.44v1.81c0,.67.03,1.2.09,1.67h-1.67c.06-.46.09-1,.09-1.68v-1.71c0-.41.02-.88.04-1.49-.91,1.65-1.93,2.76-3.39,3.74-.38-.71-.58-1-.9-1.37,1.54-.88,2.8-2.17,3.67-3.78h-.95c-.64,0-1.11.03-1.58.09v-.6c-.25.36-.43.69-.61,1.22-.38-.59-.6-1.05-.89-1.8.03.47.06,1.28.06,1.91v3.69c0,.77.03,1.32.09,1.77h-1.67c.06-.46.09-1.02.09-1.77v-3.1c0-.57.02-.93.11-1.86-.44,1.46-.87,2.43-1.51,3.41-.18-.67-.38-1.11-.68-1.6.72-.92,1.47-2.61,1.92-4.35h-.57c-.44,0-.69.02-.96.06v-1.53c.24.04.51.06.96.06h.72v-1.16c0-.76-.01-1.14-.08-1.5h1.65c-.06.39-.08.79-.08,1.5v1.16h.43c.36,0,.54-.02.78-.06v1.42c.57-1.02,1.05-2.52,1.09-3.49l1.46.38c-.06.17-.1.34-.21.79-.08.27-.1.4-.18.69h1.15v-.99c0-.61-.03-.99-.09-1.36h1.68c-.06.36-.09.76-.09,1.36v.99h1.7c.72,0,1.14-.03,1.54-.09v1.58c-.42-.04-.9-.08-1.54-.08h-1.7v1.81ZM105.41,153.19c-.25.62-.39.9-.81,1.6q-.36-.38-1.17-.94c.12-.17.17-.24.24-.35-.2-.03-.44-.04-.71-.04h-.38c.34.79.71,1.4,1.36,2.28v-.83c.45.06.87.09,1.56.09h1.53v-1.81h-1.63Z"/>
        <path d="M119.39,159.06c-.72,1.25-1.71,1.94-2.73,1.94-1.56,0-2.67-1.53-2.67-3.66,0-2.37,1.2-4.41,3.25-5.49,1-.54,2.08-.78,3.51-.78,3.14,0,5.46,2.22,5.46,5.19,0,2.62-1.29,4.51-3.78,5.58-.5.21-.89.33-1.08.33-.18,0-.25-.06-.45-.34-.25-.39-.54-.68-.95-.95,3.09-.79,4.49-2.25,4.49-4.68,0-1.25-.53-2.29-1.46-2.96-.53-.36-.95-.51-1.77-.64-.42,3.16-.92,4.89-1.83,6.46ZM117.23,153.75c-1,.88-1.58,2.15-1.58,3.55,0,1.16.38,1.83,1,1.83.75,0,1.52-1.04,2.08-2.82.36-1.12.54-1.98.77-3.65-1.07.23-1.59.48-2.28,1.08Z"/>
        <path d="M141.05,156.76c-.64-.07-1.33-.1-2.19-.1h-8.52c-.79,0-1.59.04-2.21.1v-1.92c.64.08,1.26.11,2.21.11h8.52c.97,0,1.65-.03,2.19-.11v1.92Z"/>
        <path d="M153.83,152.98c.75,0,1.18-.03,1.58-.09v1.48c-.46-.06-.96-.09-1.58-.09h-2.47c1.29,1.11,2.76,1.86,4.56,2.33-.39.52-.57.85-.83,1.48-.57-.25-.78-.36-1.32-.63v3.74c0,.67.01,1.02.07,1.51h-1.57v-.66h-6.39v.66h-1.56c.04-.42.08-.99.08-1.5v-3.73c-.41.21-.58.31-1.2.61-.2-.55-.43-.96-.84-1.42,1.8-.52,3.1-1.26,4.27-2.38h-2.35c-.62,0-1.16.03-1.59.09v-1.48c.41.06.88.09,1.59.09h1.2c-.2-.38-.21-.41-.65-1.14l1-.35c-.87.03-1.02.04-1.92.04-.21-.66-.3-.88-.61-1.36.66.01.97.03,1.38.03,1.79,0,2.73-.04,5.04-.27,1.65-.17,2.95-.38,3.76-.63l1.08,1.32q-.14.03-.44.06s-.18.03-.38.06c-.78.12-1.71.24-4.03.5v1.74h1.29c.42-.65.66-1.14.92-1.88l1.52.38c-.24.5-.51.96-.87,1.5h1.26ZM145.88,158.61h2.4v-.9h-2.4v.9ZM145.88,160.77h2.4v-.9h-2.4v.9ZM152.06,156.45c-1.05-.72-1.67-1.26-2.37-2.12.01.29.03.44.03.5v.41c0,.43.01.73.06.93h-1.61c.05-.41.06-.57.06-.92v-.39c0-.09.01-.25.04-.51-.69.85-1.29,1.42-2.25,2.1h6.03ZM148.24,151.38q-.55.05-2.05.11c.24.38.55.99.78,1.5h1.28v-1.61ZM149.72,158.62h2.55v-.92h-2.55v.92ZM149.72,160.77h2.55v-.9h-2.55v.9Z"/>
        <path d="M162.2,161.14c-1.33.25-1.49.29-2.94.5-.96.13-1.59.24-2.01.32l-.31-1.49c.09.02.15.02.21.02.25,0,.67-.03,1.25-.08v-4.47c-.62,0-.98.01-1.41.07v-1.38c.38.06.76.08,1.47.08h10.18c.72,0,1.09-.01,1.5-.08v1.38c-.45-.06-.83-.07-1.51-.07h-5v5.28c.74-.25,1.37-.58,1.95-1.02-.45-.5-.83-1.02-1.3-1.83l1.21-.55h-.38c-.46,0-.71.01-1.08.06v-1.35c.31.04.64.06,1.21.06h2.42c.48,0,.84-.01,1.08-.06l.73.81c-.09.15-.12.2-.22.42-.46.95-1.04,1.82-1.63,2.46.62.42,1.44.75,2.55,1.04-.29.42-.53.88-.74,1.41-1.54-.6-1.89-.78-2.82-1.49-.75.6-1.31.95-2.24,1.38-.2-.46-.43-.85-.75-1.2,0,.57.02,1.02.08,1.38h-1.59c.06-.34.09-.73.09-1.45v-.14ZM168.59,152.98c0,.55.02.87.04,1.25-.3-.03-.84-.04-1.32-.04h-7.3c-.62,0-1.04.01-1.49.04.04-.38.06-.72.06-1.25v-1.95c0-.54-.01-.87-.06-1.25.51.04.86.06,1.53.06h7.05c.69,0,1.03-.02,1.53-.06-.03.36-.04.68-.04,1.25v1.95ZM162.2,155.94h-2.4v.64h2.4v-.64ZM162.2,157.63h-2.4v.71h2.4v-.71ZM162.2,159.39h-2.4v.89c.85-.09.97-.11,2.4-.3v-.58ZM160.07,151.54h7.02v-.6h-7.02v.6ZM160.07,153.12h7.02v-.58h-7.02v.58ZM165.56,157.81c.38.75.58,1.05,1,1.51.42-.41.71-.83,1.08-1.51h-2.08Z"/>
        <path d="M174.94,157.47v3.42c0,.79.03,1.35.08,1.77h-1.67c.06-.5.09-1.11.09-1.77v-2.73s0-.25.01-.72c-.5.48-.93.84-1.63,1.33-.18-.56-.39-.95-.75-1.44.81-.5,1.47-1.02,2.12-1.67.81-.84,1.21-1.42,1.81-2.61h-2.05c-.51,0-1,.03-1.32.07v-1.53c.44.06.66.08,1.35.08h.48v-1.05c0-.52-.01-.88-.08-1.2h1.67c-.08.31-.09.58-.09,1.2v1.05h.3c.48,0,.78-.02,1.02-.06l.66.84c-.09.15-.17.29-.32.6-.39.87-.87,1.67-1.56,2.59.17.18.22.24.51.48.67-.78,1.04-1.3,1.38-2.02l1.11.84c-.96,1.33-.97,1.37-1.51,1.95.29.21.44.31.92.58-.33.36-.55.71-.81,1.21-.71-.51-1.21-.95-1.71-1.44v.21ZM178.69,151.81c-.69,0-1.29.03-1.73.08v-1.56c.44.06,1.05.09,1.73.09h4.15c.6,0,1.12-.03,1.38-.07q-.06.4-.1,3.09c-.06,3.88-.27,6.6-.57,7.63-.17.52-.39.82-.78,1.03-.31.17-.71.23-1.46.23-.4,0-.58-.02-1.5-.06-.08-.79-.14-1.05-.36-1.62.71.1,1.35.16,1.81.16.62,0,.75-.16.92-1.15.11-.62.24-2.19.3-3.38.06-1.47.06-1.95.09-4.47h-2c-.04,2.4-.21,3.87-.6,5.35-.36,1.41-.91,2.57-1.74,3.71-.44.58-.79.97-1.54,1.67-.33-.55-.67-.96-1.12-1.35,1-.81,1.62-1.54,2.14-2.58.72-1.41,1.08-2.88,1.23-4.96.03-.6.04-.75.04-1.83h-.3Z"/>
        <path d="M191.69,159.06c-.72,1.25-1.71,1.94-2.73,1.94-1.56,0-2.67-1.53-2.67-3.66,0-2.37,1.2-4.41,3.25-5.49,1-.54,2.08-.78,3.51-.78,3.14,0,5.46,2.22,5.46,5.19,0,2.62-1.29,4.51-3.78,5.58-.5.21-.89.33-1.08.33-.18,0-.25-.06-.45-.34-.25-.39-.54-.68-.95-.95,3.09-.79,4.49-2.25,4.49-4.68,0-1.25-.53-2.29-1.46-2.96-.53-.36-.95-.51-1.77-.64-.42,3.16-.92,4.89-1.83,6.46ZM189.53,153.75c-1,.88-1.58,2.15-1.58,3.55,0,1.16.38,1.83,1,1.83.75,0,1.52-1.04,2.08-2.82.36-1.12.54-1.98.77-3.65-1.07.23-1.59.48-2.28,1.08Z"/>
        <path d="M201.58,156.76c0-.52,0-1.03.03-1.6-.42.74-.62,1.02-1,1.5-.15-.6-.36-1.17-.65-1.71.96-1.07,1.59-2.14,2.13-3.58.35-.9.45-1.33.56-2.05l1.63.39q-.71,2.13-1.21,3.24v8.08c0,.63.01,1.12.07,1.66h-1.65c.06-.58.09-.97.09-1.68v-4.25ZM204.04,162.72c.06-.51.08-.88.08-1.77v-6.34c0-.72-.03-1.2-.09-1.62h1.6c-.04.45-.06.88-.06,1.63v6.04h6.34c.72,0,1.15-.01,1.59-.08v1.54c-.5-.06-.96-.09-1.61-.09h-6.33v.67h-1.53ZM205.69,151.99c-.58,0-.93.02-1.35.06v-1.52c.38.06.77.08,1.52.08h2.56c.06-.51.08-.64.11-1.2l1.59.09q-.14.79-.2,1.11h2.19c.69,0,1.02-.01,1.5-.09v1.53c-.42-.04-.84-.06-1.32-.06h-2.62c-.06.3-.13.62-.21.95h2.07c.6,0,.95-.02,1.21-.03-.04.46-.04.71-.04,1.38v4.37c0,.6,0,.82.04,1.27-.45-.01-.82-.03-1.23-.03h-3.71c-.42,0-.76.01-1.21.03.03-.31.04-.69.04-1.14v-4.71c0-.54-.01-.93-.04-1.17.36.03.57.03,1.16.03h.21c.1-.34.15-.58.22-.95h-2.49ZM208.09,154.9h3.15v-.75h-3.15v.75ZM208.09,156.75h3.15v-.76h-3.15v.76ZM208.09,158.67h3.15v-.84h-3.15v.84Z"/>
        <path d="M223.09,151.33c-.03.98-.12,1.46-.36,2.06-.28.72-.61,1.17-1.41,1.88-.41-.51-.57-.68-1.02-1.01-.54-.04-.62-.04-1.21-.04h-2.05v1.4h2.02c.72,0,.93-.02,1.35-.06v1.46c-.39-.03-.72-.04-1.33-.04h-2.04v1.72c1.58-.19,1.83-.24,3.52-.58l.03,1.4c-1.51.34-2.29.5-3.55.69v.95c0,.57.03,1,.09,1.53h-1.7c.06-.57.09-.98.09-1.52v-.75c-.24.04-.39.08-.48.09-.13.01-.15.01-.22.04l-.18-1.67c.17.01.21.01.25.01.15,0,.41-.01.63-.03v-6.99c0-.62-.02-.88-.08-1.32,1.41-.12,2.96-.45,3.87-.82.36-.14.38-.15.74-.38l.87,1.47q-.25.06-.88.27c-1.32.42-1.63.5-3,.75v1.04h2.04c.72,0,.93-.01,1.35-.06v1.12c.95-.75,1.25-1.54,1.25-3.29,0-.33-.01-.58-.04-.83.3.03.58.04,1.05.04h2.17c.55,0,.79-.01,1.14-.04-.03.38-.04.67-.04,1.2v2.08c0,.19.09.24.46.24.3,0,.39-.08.45-.36.06-.33.09-.66.11-1.35.43.27.75.4,1.25.57-.09,1.19-.2,1.7-.42,2.05-.23.35-.57.45-1.53.45-.66,0-1.17-.06-1.38-.18-.25-.13-.33-.33-.33-.83v-2.37h-1.46ZM227.5,156.19c-.15.22-.27.42-.39.64-.67,1.25-1.26,2.1-1.99,2.91.94.64,1.9,1.06,3.27,1.38-.36.53-.48.75-.76,1.5-1.59-.54-2.6-1.07-3.62-1.86-1.07.83-2.33,1.44-4.04,1.95-.21-.58-.42-.97-.79-1.47,1.63-.38,2.67-.79,3.76-1.54-.7-.88-1.06-1.53-1.51-2.8-.25.01-.39.03-.66.06v-1.59c.27.04.48.06.93.06h3.97c.54,0,.73-.01,1.02-.06l.81.83ZM222.86,156.9c.34.85.6,1.27,1.15,1.88.71-.72.92-.99,1.4-1.88h-2.55Z"/>
        <path d="M233.26,158.62c.04.06.06.11.06.17q0,.09-.25.78c-.32.92-.51,1.67-.57,2.25-.01.19-.08.27-.27.31-.21.06-.61.09-1,.09-.15,0-.22-.03-.27-.12-.13-.28-.38-1.32-.5-2.16-.1-.71-.15-1.44-.15-2.21,0-1.73.2-3.36.74-6.3.09-.48.12-.71.17-1.17.69.09,1.17.22,1.6.43.23.12.32.23.32.36,0,.09-.03.17-.11.29-.61,1.05-1.18,4.29-1.18,6.69,0,.36.01.93.06,1.65.36-.93.52-1.35.85-2.07.11.41.21.6.51,1ZM235.78,154.68c-.72,0-.87-.03-.92-.19-.04-.13-.09-.62-.09-.96,0-.12,0-.24.01-.51.41.03.64.04,1.14.04.81,0,1.32-.02,2.1-.08-.02-1.91-.03-2.15-.18-2.85.74.01,1.29.07,1.77.19.22.06.31.14.31.29,0,.06-.01.11-.06.22-.15.35-.23.93-.25,1.98.55-.08,1.03-.18,1.93-.39.08-.03.1-.03.15-.03.09,0,.13.04.17.15.03.14.07.71.07,1.02,0,.38-.01.43-.17.5-.24.12-.9.22-2.17.39,0,1.04.09,2.75.2,3.72.95.41,1.59.75,2.25,1.21.42.3.51.41.51.51,0,.17-.27.67-.58,1.11-.18.25-.27.33-.38.33s-.1,0-.45-.33c-.33-.33-.67-.58-1.33-1.02v.12c0,1.32-1.09,2.19-2.76,2.19s-2.8-.9-2.8-2.25,1.14-2.35,2.66-2.35c.55,0,.84.01,1.24.08q-.06-1.17-.1-3.18c-.65.04-1.67.09-2.26.09ZM237.01,159.09c-.75,0-1.25.34-1.25.87,0,.48.46.78,1.19.78.79,0,1.21-.36,1.21-1.05,0-.21-.02-.38-.02-.38-.39-.15-.73-.23-1.14-.23Z"/>
        <path d="M13.57,182.31v-7.04h4.79v1.63h-3v5.4h-1.79Z"/>
        <path d="M25.12,176.65q-.06.08-.12.21s-.04.08-.09.15q-.07.13-.18.36c-.54,1.14-1.44,2.48-2.4,3.54-.69.78-1.16,1.21-2.21,2.07-.38-.65-.65-1.02-1.1-1.5,1.59-1.08,2.66-2.21,3.56-3.72.45-.75.67-1.28.76-1.77l1.77.66ZM30.32,188.94c-.38-.81-.53-1.09-.76-1.53-2.48.4-5.1.67-7.79.81-1.06.06-1.25.08-1.68.15l-.29-1.83c.29.01.66.03,1.05.03.33,0,.41,0,.83-.02.72-1.26,1.47-2.76,2.12-4.26.48-1.11.67-1.69.83-2.47l1.9.5c-.1.18-.13.25-.29.61-.67,1.73-1.96,4.38-2.68,5.57,2.07-.11,3.36-.21,5.21-.48-.67-1.09-1-1.56-1.83-2.56l1.41-.79c1.42,1.83,2.56,3.54,3.54,5.37l-1.56.92ZM28.21,175.98c.21.75.87,1.92,1.61,2.82.45.57.94,1.08,1.59,1.64.36.31.54.43,1.37.97-.48.55-.72.9-1.08,1.59-1.63-1.3-2.4-2.07-3.32-3.33-.54-.73-.97-1.46-1.33-2.17q-.04-.09-.15-.33c-.03-.06-.08-.17-.13-.29q-.08-.15-.14-.24l1.59-.66Z"/>
        <path d="M35.81,187.14c0,.86.02,1.33.08,1.75h-1.67c.06-.42.09-.88.09-1.78v-9.5c0-.76-.01-1.16-.06-1.62.39.04.76.06,1.47.06h2.61c.76,0,1.09-.02,1.48-.06-.03.44-.04.83-.04,1.33v2.21c0,.66,0,.9.03,1.29-.46-.01-.78-.03-1.32-.03h-2.67v6.34ZM35.81,177.88h2.55v-.75h-2.55v.75ZM35.81,179.68h2.55v-.78h-2.55v.78ZM38.21,183.97c.03-.51.03-.69.03-1.33-.67,0-1.05.02-1.44.06v-1.29c.39.04.78.06,1.46.06h4.18c.71,0,1.09-.01,1.5-.06v1.29c-.41-.04-.76-.06-1.5-.06v1.33h.21c.72,0,1.08-.01,1.49-.06v1.3c-.45-.04-.77-.06-1.49-.06h-.21v2.13c0,.66.01.95.06,1.23h-1.5c.06-.36.08-.6.08-1.23v-2.13h-1.62c-.15,1.51-.63,2.47-1.75,3.55-.38-.41-.64-.64-1.15-.99.97-.75,1.36-1.39,1.56-2.56-.78,0-1.16.01-1.53.06v-1.3c.39.04.75.06,1.49.06h.15ZM39.59,182.64q0,.62-.04,1.33h1.53v-1.33h-1.48ZM46.42,187.12c0,1.27-.43,1.6-2.05,1.6-.24,0-.43,0-.95-.03-.07-.65-.15-.95-.39-1.52.55.08.99.11,1.33.11.46,0,.55-.06.55-.38v-6.12h-2.83c-.48,0-.99.02-1.32.03.04-.5.04-.6.04-1.29v-2.21c0-.57-.02-.94-.04-1.33.39.04.73.06,1.47.06h2.76c.72,0,1.08-.02,1.49-.06-.04.53-.06.88-.06,1.61v9.52ZM42.23,177.88h2.68v-.75h-2.68v.75ZM42.23,179.68h2.68v-.78h-2.68v.78Z"/>
        <path d="M49.36,183.03c0-.57.02-.99.03-1.58-.25.51-.57.99-.95,1.49-.19-.71-.34-1.11-.63-1.73.92-1,1.59-2.16,2.16-3.73.32-.87.45-1.35.54-1.98l1.54.63c-.11.32-.15.44-.27.8q-.28.88-.93,2.37v8.04c0,.79.02,1.23.06,1.67h-1.65c.08-.57.09-.99.09-1.68v-4.29ZM59.8,179.83c.54,0,.98-.01,1.31-.06-.04.38-.06.76-.06,1.35v5.99c0,.72.03,1.21.09,1.8h-1.65v-.79h-6.1v.78h-1.59c.05-.48.08-1.05.08-1.57v-6.17c0-.51-.03-.99-.06-1.38.41.04.72.06,1.3.06h1.37v-1.93h-.72c-.69,0-1.23.03-1.7.08v-1.61c.42.06.92.09,1.7.09h6.03c.79,0,1.32-.03,1.75-.09v1.61c-.42-.04-1.02-.08-1.71-.08h-1.49v1.93h1.46ZM53.32,181.21v5.5h1.16v-5.5h-1.16ZM56.96,177.9h-1.11v1.93h1.11v-1.93ZM55.85,186.72h1.11v-5.5h-1.11v5.5ZM58.34,186.72h1.2v-5.5h-1.2v5.5Z"/>
        <path d="M67.69,184.08c-.22-.46-.32-.6-.58-.95-.06.09-.08.14-.13.24-.5-.81-.51-.84-.86-1.62.04.66.06,1.17.06,1.88v3.6c0,.74.03,1.32.09,1.77h-1.67c.06-.45.09-1.05.09-1.77v-2.94q.04-1.2.11-1.86c-.51,1.62-.75,2.19-1.29,3.11-.33-.67-.51-.92-.92-1.32.87-1.26,1.62-2.96,1.96-4.5h-.55c-.45,0-.77.02-1.07.06v-1.51c.24.06.57.07,1.08.07h.67v-1.21c0-.73-.03-1.12-.09-1.48h1.65c-.06.4-.07.81-.07,1.48v1.21h.42c.36,0,.61-.01.84-.06v1.06c1.14-1.12,2-2.56,2.23-3.76l1.59.27c-.07.17-.1.22-.24.58-.03.07-.08.17-.15.34h2.01c.65,0,.99-.01,1.26-.08l.87.95c-.13.19-.18.27-.39.63-.6,1.05-1.21,1.86-1.96,2.62,1.27.78,2.37,1.25,3.67,1.6-.39.5-.62.9-.81,1.5l-.63-.25c-.01.18-.01.27-.01.62v3.15c0,.67.01,1.11.08,1.46h-1.65v-.73h-3.63v.73h-1.6c.06-.39.08-.75.08-1.42v-3.67l-.45.21ZM66.22,179.71c.39.95.84,1.64,1.59,2.49-.13.12-.18.17-.27.29,1.07-.44,1.91-.88,2.83-1.53-.5-.48-.67-.67-1.21-1.35-.43.52-.66.76-1.11,1.18-.26-.42-.56-.78-.9-1.06-.2-.02-.38-.02-.54-.02h-.39ZM73.78,183.42h.3c-.85-.39-1.68-.88-2.56-1.51-.78.62-1.28.93-2.45,1.51h4.71ZM69.67,186.79h3.63v-2.01h-3.63v2.01ZM70.13,178.18q-.08.13-.15.24c.58.83.92,1.19,1.49,1.65.69-.66,1.02-1.11,1.45-1.89h-2.79Z"/>
        <path d="M81.58,182.29v7.02h-4.78v-1.63h3.01v-5.38h1.77Z"/>
        <path d="M92.97,181.23c1.89-.53,3.25-.77,4.27-.77,2.12,0,3.42,1.16,3.42,3.03,0,1.12-.46,2.12-1.35,2.87-.58.49-1.46.92-2.61,1.26-.64.18-1.33.31-1.63.31-.18,0-.27-.04-.33-.19-.21-.53-.45-.9-.76-1.21,3.3-.35,4.98-1.4,4.98-3.11,0-.87-.72-1.54-1.65-1.54-1.62,0-3.39.54-5.25,1.58-.15.08-.24.12-.3.12-.25,0-.67-.75-1.02-1.83.74-.11.99-.17,2.24-.51Z"/>
        <path d="M106.44,179.8c-.39.09-.53.13-1.07.33-.19.08-.3.11-.39.11-.33,0-.63-.62-.9-1.91.96-.04,1.31-.09,2.97-.34,1.8-.27,4.08-.62,5.28-.76,1.35-.18,2.43-.36,3-.48.1-.03.15-.03.22-.03.2,0,.27.09.41.46.12.31.21.76.21.97,0,.18-.06.24-.27.24-.32,0-.6.03-.89.08-2.53.42-4.56,2.64-4.56,4.98,0,1.75,1.38,2.91,3.72,3.12.21.01.29.09.29.27,0,.38-.15,1.09-.29,1.42-.08.17-.19.24-.39.24s-.65-.09-1.11-.22c-2.55-.75-3.88-2.37-3.88-4.67,0-1.25.41-2.4,1.19-3.39.42-.54.78-.84,1.63-1.43-1.96.33-4.04.72-5.17,1.01Z"/>
        <path d="M121.68,176.65c.48,0,.8-.01,1.17-.04q-.03.32-.05,1.41v6.94c0,.81,0,1.09.05,1.58h-1.44v-.88h-1.28v1.5h-1.54c.06-.51.08-.92.08-1.74v-7.33c0-.63-.01-1.11-.06-1.48.39.04.66.06,1.25.06h1.83ZM120.13,184.23h1.28v-6.17h-1.28v6.17ZM126.4,177.88q-1.8.18-2.83.27-.17-.66-.5-1.42c3.06-.11,6.18-.6,7.2-1.16l1.08,1.33c-1.23.38-2.02.55-3.39.77v4.86h2.26c.62,0,1.04-.03,1.42-.08v1.62c-.46-.06-.88-.09-1.57-.09h-2.12v3.22c0,.6-.12.97-.38,1.21-.29.25-.74.34-1.74.34-.33,0-.87-.01-1.47-.06-.08-.5-.18-.92-.41-1.51.86.09,1.23.12,1.76.12.57,0,.67-.06.67-.41v-2.92h-2.08c-.51,0-.84.01-1.2.06v-1.57c.34.04.66.06,1.14.06h2.15v-4.65ZM124.35,182.08c-.33-1.41-.58-2.08-1.15-3.18l1.42-.45c.53,1.11.74,1.68,1.14,3.12l-1.41.51ZM131.37,178.54c-.42,1.37-.86,2.37-1.5,3.53l-1.33-.53c.69-1.27,1.02-2.13,1.33-3.5l1.5.5Z"/>
        <path d="M136.45,184.92c.04.06.06.11.06.17q0,.09-.25.78c-.31.92-.51,1.67-.57,2.25-.02.19-.08.27-.27.31-.21.06-.61.09-1,.09-.15,0-.22-.03-.27-.12-.14-.28-.38-1.32-.5-2.16-.11-.71-.15-1.44-.15-2.21,0-1.72.2-3.36.74-6.3.09-.48.12-.71.17-1.17.69.09,1.17.22,1.6.45.23.12.32.21.32.36,0,.08-.03.15-.11.27-.61,1.05-1.18,4.29-1.18,6.69,0,.36.01.93.06,1.65.36-.93.53-1.35.86-2.07.1.41.21.6.51,1ZM138.97,180.97c-.72,0-.87-.03-.91-.2-.05-.13-.09-.62-.09-.96,0-.12,0-.24.02-.51.4.03.64.04,1.14.04.81,0,1.32-.02,2.1-.06-.01-1.9-.03-2.14-.18-2.86.74.01,1.29.07,1.77.19.23.06.32.14.32.29,0,.08-.01.11-.06.23-.15.36-.23.94-.26,1.98.56-.08,1.04-.17,1.94-.38.08-.03.1-.03.15-.03.09,0,.14.04.17.15.03.13.08.71.08,1.02,0,.36-.01.44-.17.5-.24.11-.9.23-2.17.38,0,1.04.09,2.75.2,3.72.94.41,1.59.75,2.25,1.21.42.32.51.41.51.53,0,.15-.27.66-.58,1.09-.18.25-.27.33-.38.33s-.11,0-.45-.33c-.33-.33-.67-.57-1.33-1.02v.12c0,1.33-1.09,2.19-2.76,2.19s-2.8-.9-2.8-2.25,1.14-2.35,2.65-2.35c.56,0,.84.01,1.25.08q-.06-1.17-.1-3.17c-.65.04-1.67.08-2.27.08ZM140.2,185.38c-.75,0-1.25.34-1.25.87,0,.48.46.78,1.18.78.79,0,1.22-.36,1.22-1.04,0-.22-.02-.38-.02-.39-.39-.15-.73-.23-1.14-.23ZM144.21,177.6c-.21-.45-.34-.67-.81-1.31-.03-.04-.04-.07-.04-.1,0-.12.5-.46.68-.46.09,0,.19.1.49.48.38.5.79,1.19.79,1.33,0,.09-.04.15-.27.29-.22.17-.42.25-.51.25q-.11,0-.33-.48ZM145.02,175.26c.21-.12.35-.18.44-.18.1,0,.18.06.39.33.46.6.85,1.25.85,1.41,0,.09-.06.17-.3.3-.18.12-.39.23-.46.23-.06,0-.1-.04-.15-.15-.26-.57-.66-1.25-.95-1.58-.04-.04-.06-.09-.06-.12,0-.06.06-.13.24-.24Z"/>
        <path d="M150.13,180.22c-.67.13-1.32.3-1.74.45-.11.04-.2.06-.27.06-.13,0-.21-.08-.3-.33-.1-.33-.21-.86-.27-1.38.22.01.33.03.46.03.57,0,1.18-.08,2.13-.26l.03-.9c.02-.21.02-.36.02-.41,0-.64-.02-1.04-.08-1.44.79.03,1.29.09,1.77.21.2.04.29.13.29.27,0,.06-.01.11-.09.27-.13.28-.15.46-.25,1.71.33.22.62.54.62.69,0,.09-.04.17-.18.33-.22.24-.3.34-.58.76q-.03.39-.03.5c.5-.43.82-.72,1.33-1.09.57-.43,1.2-.84,1.65-1.06.58-.32.99-.42,1.53-.42.79,0,1.37.3,1.68.87.18.36.25.71.25,1.29,0,.51-.03.99-.12,2.08-.12,1.29-.18,2.25-.18,2.83s.13.76.55.76c.6,0,1.33-.43,1.98-1.17.01.58.06.77.25,1.37.04.12.06.2.06.25,0,.17-.08.3-.33.5-.61.5-1.5.81-2.29.81-1.32,0-1.92-.69-1.92-2.2,0-.69.04-1.58.2-3.67.04-.5.06-.92.06-1.12,0-.62-.21-.9-.66-.9s-1.33.48-2.52,1.39c-.6.45-.94.77-1.57,1.41v.69c0,1.12.07,3.72.13,4.63v.18c0,.12-.02.17-.04.21-.08.09-.51.15-1.2.15-.43,0-.53-.06-.53-.32,0-.09,0-.24.02-.4v-.35q.01-.52.08-3.38-.86,1.11-1.37,1.94c-.13.21-.23.29-.34.29s-.39-.24-.86-.75c-.29-.33-.39-.47-.39-.56,0-.07.03-.13.13-.24.95-.98,1.74-1.91,2.87-3.32l.03-1.27Z"/>
        <path d="M164.28,179.8c-.39.09-.53.13-1.07.33-.19.08-.3.11-.39.11-.33,0-.63-.62-.9-1.91.96-.04,1.31-.09,2.97-.34,1.8-.27,4.08-.62,5.28-.76,1.35-.18,2.43-.36,3-.48.1-.03.15-.03.22-.03.2,0,.27.09.41.46.12.31.21.76.21.97,0,.18-.06.24-.27.24-.32,0-.6.03-.89.08-2.53.42-4.56,2.64-4.56,4.98,0,1.75,1.38,2.91,3.72,3.12.21.01.29.09.29.27,0,.38-.15,1.09-.29,1.42-.08.17-.19.24-.39.24s-.65-.09-1.11-.22c-2.55-.75-3.88-2.37-3.88-4.67,0-1.25.41-2.4,1.19-3.39.42-.54.78-.84,1.63-1.43-1.96.33-4.04.72-5.17,1.01Z"/>
        <path d="M177.1,178.86c0-.44-.02-1.02-.04-1.35.69.07,1.2.18,1.6.33.36.14.48.23.48.39q0,.09-.06.24c-.2.51-.25,1.08-.25,2.44,0,1.92.12,3.12.42,4.04.22.71.57,1.11.97,1.11.62,0,1.12-.72,1.68-2.38.28.77.39.99.81,1.53.08.1.12.21.12.31,0,.24-.22.75-.53,1.19-.58.85-1.33,1.32-2.13,1.32-1.15,0-2.02-.93-2.56-2.77-.34-1.2-.51-2.71-.51-4.81v-1.58ZM186.03,179.1c.09,0,.17.04.29.15.75.72,1.53,1.92,2.03,3.09.33.79.64,1.86.64,2.17,0,.15-.08.23-.39.39-.34.18-1.05.42-1.23.42-.13,0-.19-.08-.24-.34-.2-1.16-.46-2-.93-2.97-.42-.87-.45-.92-1.47-2.17.63-.46,1.12-.73,1.3-.73Z"/>
        <path d="M198.72,180.96c2.12,0,3.62,1.44,3.62,3.48,0,1.39-.74,2.65-1.96,3.39-.86.51-1.91.76-3.09.76-1.91,0-3.02-.76-3.02-2.07,0-1.19.99-2.03,2.4-2.03,1.27,0,2.19.64,2.8,1.96.76-.55,1.08-1.14,1.08-1.95,0-1.29-.92-2.13-2.36-2.13s-3.04.74-4.35,2.04c-.24.24-.46.5-.73.84-.11.15-.18.21-.27.21-.27,0-1.33-1.05-1.33-1.32,0-.13.06-.21.39-.45.34-.27.84-.71,1.47-1.3,1.46-1.38,2.52-2.54,4.09-4.46-1.88.24-3.13.45-3.6.62-.08.01-.12.03-.17.03-.12,0-.2-.07-.29-.3-.18-.45-.27-.94-.32-1.6.41.06.69.08,1.02.08.72,0,1.93-.11,3.51-.29.55-.06.73-.11,1.15-.27.14-.06.21-.08.3-.08.21,0,.42.18.81.78.29.39.38.58.38.71,0,.2-.04.25-.38.46-.27.17-.43.3-.78.63-.75.72-.76.72-1.69,1.67-.66.67-.74.75-1.33,1.35.97-.54,1.74-.77,2.64-.77ZM197.28,186.15c-.23-.15-.48-.23-.77-.23-.46,0-.76.23-.76.58,0,.44.46.71,1.18.71.33,0,.62-.03.99-.13-.18-.5-.33-.72-.64-.93Z"/>
        <path d="M210.87,185.31c-.72,1.25-1.71,1.94-2.73,1.94-1.56,0-2.67-1.53-2.67-3.66,0-2.37,1.2-4.41,3.25-5.49,1-.54,2.08-.78,3.51-.78,3.14,0,5.46,2.22,5.46,5.19,0,2.62-1.29,4.51-3.78,5.58-.5.21-.89.33-1.08.33-.18,0-.25-.06-.45-.34-.25-.39-.54-.68-.95-.95,3.09-.79,4.49-2.25,4.49-4.68,0-1.25-.53-2.29-1.46-2.96-.53-.36-.95-.51-1.77-.64-.42,3.16-.92,4.89-1.83,6.46ZM208.71,180c-1,.88-1.58,2.15-1.58,3.55,0,1.16.38,1.83,1,1.83.75,0,1.52-1.04,2.08-2.82.36-1.12.54-1.98.77-3.65-1.07.23-1.59.48-2.28,1.08Z"/>
        <path d="M226.6,180.97c.03,1.12.06,1.71.21,3.21,1.26.41,1.86.66,2.75,1.14,1.18.67,1.79,1.12,1.79,1.33,0,.18-.2.52-.54,1.02-.22.33-.39.48-.51.48-.08,0-.14-.03-.24-.14-1.07-1.02-1.92-1.57-3.18-2.08-.03.91-.2,1.39-.63,1.84-.53.52-1.44.81-2.62.81-1.96,0-3.17-.87-3.17-2.29,0-1.51,1.32-2.47,3.38-2.47.5,0,.93.03,1.3.08-.15-2.46-.2-3.65-.21-5.85-.01-.87-.04-1.39-.13-2.1.69.02,1.38.09,1.79.2.24.08.33.15.33.31,0,.08-.01.12-.06.24-.17.39-.22.96-.25,2.62q.12,0,.58-.03c.72-.04,1.74-.22,2.88-.54.04-.01.08-.01.12-.01.09,0,.12.03.18.18.15.36.32,1.1.32,1.35,0,.12-.06.17-.2.21-1.16.27-2.78.5-3.66.5h-.21ZM223.66,185.29c-1.02,0-1.63.34-1.63.92,0,.53.51.79,1.46.79,1.15,0,1.66-.41,1.66-1.35v-.12c-.49-.18-.92-.24-1.48-.24Z"/>
        <path d="M241.72,187.42c0,.66-.53,1.18-1.18,1.18s-1.19-.52-1.19-1.18.53-1.18,1.19-1.18,1.18.52,1.18,1.18ZM241.2,185.2h-1.33l-.41-8.98h2.16l-.42,8.98Z"/>
      </g>
      <g>
        <path class="cls-7" d="M41.33,73.44c5.99-4.82,10.66-4.4,11.63-2.77.89,1.5-.2,9.39-9.12,4.98"/>
        <path class="cls-4" d="M45.57,76.02c2.15-3.7,6.52-2.97,7.65-2.44-1.95,3.62-3.96,4.96-7.65,2.44Z"/>
        <path class="cls-1" d="M48.57,77.59c-1.31,0-2.95-.38-4.99-1.39-.3-.15-.43-.52-.28-.82.15-.3.52-.42.82-.28,3.32,1.64,5.84,1.68,7.3.12,1.3-1.4,1.35-3.69,1.02-4.24-.21-.35-.72-.62-1.4-.75-.91-.17-4.28-.39-9.33,3.68-.26.21-.65.17-.86-.09-.21-.26-.17-.65.09-.86,3.68-2.96,7.54-4.43,10.31-3.93,1.04.19,1.83.66,2.23,1.32.64,1.09.43,3.95-1.18,5.69-.75.81-1.93,1.54-3.74,1.54Z"/>
        <path class="cls-7" d="M46.82,87.67c1.64-16.83-17.12-22.81-25.65-13.47-2.98,3.26-5.19,9.03-4.06,15.78-3.29,3.25-2.73,7.92,2.42,10.47,3.1,1.53,6.2,2.2,13.34,2.2,6.63,0,14.3-2.8,16.45-6.94,1.2-2.31.78-5.73-2.5-8.03Z"/>
        <path class="cls-2" d="M36.59,70.03c-.6-4.19-4.15-6.53-4.34-.47"/>
        <path class="cls-2" d="M24.9,71.1c-.51-4.21,2.31-7.38,4.07-1.58"/>
        <path class="cls-7" d="M20.44,74.16c-6.66-3.83-11.22-2.69-11.92-.92-.65,1.62,2.36,9.82,10.47,4.08"/>
        <path class="cls-4" d="M17.17,77.97c-2.15-3.7-7.04-2.78-8.16-2.25,1.95,3.62,4.48,4.77,8.16,2.25Z"/>
        <path class="cls-4" d="M30.01,69.55c1.23,7.47-2.33,14.46-12.54,14.46,0-11.43,12.54-14.46,12.54-14.46Z"/>
        <path class="cls-4" d="M32.25,69.56c0,8.41,6.81,12.73,13.85,13.26,0-11.43-13.85-13.26-13.85-13.26Z"/>
        <path class="cls-4" d="M16.02,96.44c13.82-6.39,25.47-3.61,33.3-.74-3.13,7.58-29.27,10.16-33.3.74Z"/>
        <path class="cls-1" d="M32.87,103.25c-7.6,0-10.65-.79-13.61-2.26-2.69-1.33-4.37-3.31-4.74-5.59-.32-1.98.37-3.97,1.94-5.63-1.1-7.14,1.47-12.92,4.26-15.98,4.25-4.65,11.26-5.93,17.43-3.18,3.01,1.34,5.47,3.51,7.11,6.28,1.79,3.02,2.53,6.55,2.2,10.5,3.38,2.57,3.64,6.23,2.4,8.6-2.36,4.55-10.5,7.26-17,7.26ZM31.49,70.39c-3.76,0-7.35,1.46-9.87,4.22-2.64,2.89-5.06,8.42-3.91,15.27.03.2-.03.39-.17.53-1.44,1.42-2.08,3.13-1.81,4.8.3,1.88,1.75,3.55,4.07,4.69,2.8,1.38,5.72,2.13,13.07,2.13,6.88,0,14.02-2.96,15.91-6.61,1.03-1.99.75-5.1-2.31-7.25-.18-.13-.28-.34-.26-.56.71-7.25-2.5-13.19-8.57-15.9-2.01-.89-4.11-1.33-6.16-1.33Z"/>
        <path class="cls-1" d="M13.79,79.95c-1.46,0-2.58-.54-3.4-1.18-2.09-1.64-2.9-4.58-2.44-5.76.29-.72.99-1.31,1.99-1.65,2.66-.93,6.7-.08,10.8,2.27.29.17.39.54.23.83-.17.29-.54.39-.83.23-5.62-3.23-8.91-2.49-9.79-2.18-.65.23-1.11.57-1.26.95-.21.53.31,2.97,2.06,4.35,1.89,1.49,4.48,1.14,7.5-.99.27-.19.65-.13.85.15.19.27.13.66-.15.85-2.23,1.58-4.07,2.14-5.56,2.14Z"/>
        <path class="cls-1" d="M36.59,70.64c-.3,0-.56-.22-.6-.52-.32-2.23-1.49-3.66-2.13-3.63-.31.02-.93.69-1,3.09-.01.34-.3.6-.63.59-.34-.01-.6-.29-.59-.63.11-3.62,1.4-4.23,2.15-4.27.03,0,.06,0,.09,0,1.46,0,2.94,2.06,3.31,4.67.05.33-.18.64-.52.69-.03,0-.06,0-.09,0Z"/>
        <path class="cls-1" d="M24.9,71.71c-.3,0-.57-.23-.6-.54-.32-2.67.61-5.08,2.07-5.39.74-.15,2.14.1,3.19,3.56.1.32-.08.66-.41.76-.32.1-.66-.08-.76-.41-.7-2.3-1.46-2.79-1.77-2.72-.62.13-1.38,1.81-1.11,4.05.04.33-.2.64-.53.68-.02,0-.05,0-.07,0Z"/>
        <path class="cls-1" d="M37.83,81.55c-.65-1.09-1.64-1.26-2.42-.7-.18.13-.11.42.12.44.71.07,1.33.3,1.99.61.22.1.44-.14.31-.35Z"/>
        <path class="cls-1" d="M26.87,81.75c.65-1.09,1.64-1.26,2.42-.7.18.13.11.42-.12.44-.71.07-1.33.3-1.99.61-.22.1-.44-.14-.31-.35Z"/>
        <circle class="cls-1" cx="33.72" cy="95.56" r=".57"/>
        <circle class="cls-1" cx="31.93" cy="95.56" r=".57"/>
        <path class="cls-1" d="M32.04,99.76c-.58,0-1.17-.13-1.74-.4-1.05-.5-1.76-1.38-1.96-2.34l-.5.2c-.32.13-.68-.02-.8-.34-.13-.32.02-.68.34-.8l1.32-.53c.21-.08.44-.05.62.09.17.14.26.36.22.59-.16.89.54,1.66,1.3,2.02.9.43,2.24.48,3.27-.69.23-.26.62-.28.87-.05.26.23.28.62.05.87-.81.91-1.88,1.39-2.99,1.39Z"/>
        <ellipse class="cls-1" cx="36.5" cy="90.1" rx="1.44" ry="1.56" transform="translate(-13.57 6.78) rotate(-8.95)"/>
        <ellipse class="cls-1" cx="28.84" cy="90.46" rx="1.56" ry="1.44" transform="translate(-62.96 114.68) rotate(-87.1)"/>
      </g>
      <g>
        <path class="cls-6" d="M320.06,211.49l2.44-1.25,1.46-4.73.45-7.2-1.46-6.87-4.68-6.99-5.39-2.36-6.79-.22-6.1,3.81-4.7,6.93-3.53,4.99-1.3,4.93,1.86,3.93,6.11,3.68c3.93,2.14,16.2,3.55,21.64,1.34Z"/>
        <path class="cls-12" d="M291.24,199.16c4.13.27,6.52,4.64,4.99,9.32-4.03-2.19-6.28-4.42-4.99-9.32Z"/>
        <path class="cls-1" d="M326.06,188.26c1.96.16,1.33,2.31.37,3.56-.2.26-.59.3-.84.08-1.7-1.45-1.1-3.77.47-3.64Z"/>
        <path class="cls-1" d="M325.95,189.1c-.33,0-.6-.27-.6-.6v-3.87l-.98-1.36c-.19-.27-.13-.64.14-.83.27-.19.64-.13.83.14l1.09,1.52c.07.1.11.22.11.35v4.07c0,.33-.27.6-.6.6Z"/>
        <ellipse class="cls-1" cx="302.22" cy="198.07" rx="1.67" ry="1.55" transform="translate(59.55 465.8) rotate(-81.05)"/>
        <ellipse class="cls-1" cx="311.72" cy="199.74" rx="1.55" ry="1.67" transform="translate(-9.7 16.01) rotate(-2.9)"/>
        <path class="cls-1" d="M301.38,197.52c-.06,0-.13-.02-.19-.06-.7-.55-1.05-1.12-1.32-2.09-.04-.16.05-.32.21-.37.16-.04.32.05.37.21.26.96.59,1.37,1.11,1.78.13.1.15.29.05.42-.06.07-.15.11-.23.11Z"/>
        <path class="cls-1" d="M301.2,198.06c-.74,0-1.53-.42-2.16-1.16-.11-.13-.09-.31.03-.42.13-.11.31-.09.42.03.55.65,1.26,1.01,1.85.95.16-.02.31.1.33.26.02.16-.1.31-.26.33-.07,0-.14.01-.21.01Z"/>
        <path class="cls-1" d="M312.81,199.31c-.15,0-.27-.11-.3-.26-.02-.16.09-.31.26-.34.49-.07,1.22-.49,1.67-1.25.08-.14.27-.19.41-.1.14.08.19.27.1.41-.48.82-1.33,1.44-2.11,1.54-.01,0-.03,0-.04,0Z"/>
        <path class="cls-1" d="M313.79,200.46c-.34,0-.7-.06-1.04-.22-.15-.07-.22-.25-.15-.4.07-.15.25-.22.4-.15.77.35,1.64.08,2.24-.22.15-.07.33-.01.4.14.07.15.01.33-.14.4-.46.23-1.07.45-1.71.45Z"/>
        <polygon class="cls-5" points="322.32 177.99 316.32 177.43 318.99 182.82 325.1 183.47 322.32 177.99"/>
        <polygon class="cls-5" points="320.71 186.05 315.44 182.03 317.34 179.3 322.45 183.36 320.71 186.05"/>
        <path class="cls-12" d="M324.59,202.17c-5.72-.79-10.1,4.13-9.2,10.53,6.07-1.7,9.72-3.92,9.2-10.53Z"/>
        <path class="cls-1" d="M305.76,193.41c-1.73-.3-2.63-1.6-2.54-3.04.02-.34.41-.4.6-.09.59.98,1.31,1.72,2.13,2.48.27.25.15.71-.18.65Z"/>
        <path class="cls-1" d="M311.49,193.92c1.54.83,3.06.36,3.88-.82.19-.28-.08-.57-.41-.44-1.07.4-2.09.55-3.2.64-.37.03-.55.46-.26.62Z"/>
        <path class="cls-1" d="M313.29,213.19c-2.36,0-4.28-.24-4.41-.25-.33-.04-.56-.34-.52-.67s.34-.56.67-.52c.06,0,5.61.69,9.39-.29,5.98-1.55,5.72-6.95,5.57-10.19-.01-.26-.02-.5-.03-.71-.07-2.22-.44-6.51-2.13-10.33-2.12-4.8-5.64-7.39-10.45-7.72-9.35-.63-12.53,5.04-14.64,8.79-.48.86-.9,1.6-1.33,2.17-.17.23-.38.49-.61.78-1.72,2.17-4.59,5.8-3.56,9.3.77,2.6,3.63,4.77,8.5,6.43.31.11.48.45.37.76-.11.31-.45.48-.76.37-5.26-1.79-8.37-4.22-9.26-7.22-1.21-4.09,2.03-8.18,3.77-10.38.22-.28.42-.54.59-.76.38-.51.78-1.22,1.24-2.04,2.12-3.77,5.66-10.08,15.76-9.4,5.29.36,9.15,3.19,11.46,8.43,1.77,4.01,2.16,8.47,2.23,10.77,0,.21.02.44.03.69.15,3.12.45,9.61-6.46,11.4-1.7.44-3.69.57-5.43.57Z"/>
        <path class="cls-1" d="M320.71,186.63c-.13,0-.26-.04-.37-.13-.26-.2-.3-.58-.1-.84l2.2-2.79c.13-.16.33-.25.53-.22l1.09.12-2.14-4.21-4.6-.43.65,1.31c.1.2.08.44-.06.62l-1.77,2.35c-.2.26-.57.32-.84.12-.26-.2-.32-.57-.12-.84l1.55-2.06-.96-1.94c-.1-.19-.08-.42.04-.6.12-.18.33-.28.55-.26l6,.56c.2.02.38.14.48.32l2.78,5.49c.1.2.08.43-.04.61-.12.18-.34.28-.55.25l-1.86-.2-2,2.54c-.12.15-.29.23-.47.23Z"/>
        <g>
          <path class="cls-3" d="M310.44,204.13c-.54-1.83-3.33-3.94-4.82-3.82s-4.72,1.72-5.69,1.6-1.6-.82-1.86,1.44,1.44,3.53,3.87,2.85c3.18,2.08,9.43,1.07,8.5-2.07Z"/>
          <path class="cls-3" d="M310.54,205.63c-.96,3.55-5.93,6.02-7.13,5.41s-3.89-1.63-2.34-4.67c2.41.67,7.43.52,7.63-.95s1.84.22,1.84.22Z"/>
          <path class="cls-1" d="M305.69,207.87c-1.13,0-2.33-.39-3.55-1.18-2.28.5-3.5-.18-4.12-.86-.78-.85-1.02-2.14-.61-3.38.41-1.25,1.01-1.32,1.88-1.29.63.02,1.59.06,3.19-.65,3.58-1.6,5.53-.43,7.38,1.82.18.22.15.55-.07.73-.22.18-.55.15-.73-.07-1.62-1.98-3.15-2.87-6.14-1.53-1.83.82-2.97.77-3.66.75q-.65-.02-.84.57c-.28.86-.13,1.78.38,2.34.65.7,1.8.87,3.33.5.14-.03.29,0,.42.07,1.8,1.22,4.44,2.05,6.76-.92.15-.19.42-.25.64-.15,0,0,.68.33,1.29.5.28.08.44.37.36.65s-.37.44-.65.36c-.39-.11-.8-.28-1.08-.4-1.22,1.42-2.63,2.13-4.16,2.13Z"/>
          <path class="cls-1" d="M304.23,211.29c-.84,0-1.62-.2-2.27-.61-2.95-1.84-1.53-4.57-1.52-4.59.14-.25.45-.35.71-.21.25.14.35.45.21.71-.1.19-.92,1.92,1.15,3.21.99.62,2.52.59,3.97-.09,1.83-.85,3.09-2.45,3.35-4.27.04-.29.31-.48.59-.44.29.04.48.31.44.59-.32,2.17-1.79,4.06-3.95,5.06-.91.42-1.83.63-2.69.63Z"/>
        </g>
      </g>
      <g>
        <polygon class="cls-11" points="290.94 185.66 288.73 188.11 291.06 190.7 293.18 188.07 290.94 185.66"/>
        <path class="cls-1" d="M294.19,188.35c-1.55,0-2.71-.89-3.25-2.38-.54,1.49-1.7,2.38-3.25,2.38-.19,0-.34-.15-.34-.34s.15-.34.34-.34c1.79,0,2.91-1.46,2.91-3.82,0-.19.15-.34.34-.34s.34.15.34.34c0,2.32,1.14,3.82,2.91,3.82.19,0,.34.15.34.34s-.15.34-.34.34Z"/>
        <path class="cls-1" d="M291.08,192.82c-.19,0-.34-.15-.34-.34,0-2.33-1.28-4.02-3.05-4.02-.19,0-.34-.15-.34-.34s.15-.34.34-.34c1.53,0,2.77,1,3.35,2.55.51-1.6,1.64-2.55,3.14-2.55.19,0,.34.15.34.34s-.15.34-.34.34c-1.71,0-2.77,1.54-2.77,4.02,0,.19-.15.34-.34.34Z"/>
      </g>
    </g>
  </g>
</svg>