<?xml version="1.0" encoding="UTF-8"?>
<svg id="_レイヤー_2" data-name="レイヤー 2" xmlns="http://www.w3.org/2000/svg" width="339.66" height="237.71" viewBox="0 0 339.66 237.71">
  <defs>
    <style>
      .cls-1 {
        fill: #211815;
      }

      .cls-2 {
        fill: #f5f19b;
      }

      .cls-3 {
        fill: #ecbb6e;
      }

      .cls-4 {
        fill: #93c9ce;
      }

      .cls-5 {
        fill: #5c948d;
      }

      .cls-6, .cls-7 {
        fill: #fff;
      }

      .cls-8 {
        fill: #d3f2c9;
      }

      .cls-9 {
        fill: #de8a4c;
      }

      .cls-10 {
        fill: #fffb9f;
      }

      .cls-11 {
        fill: #ceeaeb;
      }

      .cls-12 {
        fill: #f2d496;
      }

      .cls-7 {
        stroke: #ceeaeb;
        stroke-miterlimit: 10;
        stroke-width: 2.83px;
      }
    </style>
  </defs>
  <g id="_レイヤー_1-2" data-name="レイヤー 1">
    <g>
      <path class="cls-7" d="M9.89,102.81h239.38c4.68,0,8.47,3.79,8.47,8.47v93.97s9.69,9.69,9.69,9.69h-9.69s0,.5,0,.5c0,4.68-3.79,8.47-8.47,8.47H9.89c-4.68,0-8.47-3.79-8.47-8.47v-104.16c0-4.68,3.79-8.47,8.47-8.47Z"/>
      <circle class="cls-8" cx="305.91" cy="207.71" r="30"/>
      <path class="cls-7" d="M329.77,1.42H90.4c-4.68,0-8.47,3.79-8.47,8.47v43.9s-9.69,9.69-9.69,9.69h9.69v.5c0,4.68,3.79,8.47,8.47,8.47h239.38c4.68,0,8.47-3.79,8.47-8.47V9.89c0-4.68-3.79-8.47-8.47-8.47Z"/>
      <g>
        <path d="M98.17,26.64c0-.84.03-2.65.06-3.78.03-.97.01-2.97-.01-4.28l1.72.03c-.03,1.29-.08,3.18-.12,4.12-.04,1-.08,2.75-.08,3.67,0,1.79.5,2.66,1.89,2.66,1.72,0,3.57-1.23,4.56-3.04l.83,1.63c-1.16,1.65-3.21,2.92-5.4,2.92-2.62,0-3.45-1.63-3.45-3.95ZM102.7,19.99l.96-.46c.51.79.86,1.54,1.23,2.49l-1,.5c-.35-.96-.75-1.77-1.19-2.52ZM104.4,19.49l.97-.46c.53.75.86,1.47,1.26,2.49l-1.02.46c-.39-1.05-.75-1.82-1.21-2.49Z"/>
        <path d="M113.71,25.99c-.86.34-1.65.66-2.18.88l-.61-1.25,2.31-.85c-.32-.77-.64-1.55-1.06-2.37l1.32-.51c.38.79.69,1.59,1.02,2.43.18-.08.36-.14.52-.2.71-.25,1.58-.54,2.33-.71-.86-.54-1.5-.83-2.33-1.11l.53-1.1c.93.29,1.62.58,2.55,1.11l-.66,1.06c.42-.09.79-.15,1.08-.15,1.37,0,2.58.84,2.58,2.35,0,1.59-1.44,2.36-2.91,2.36-.42,0-.74-.03-.97-.08l-.41-1.3c.31.07.76.13,1.21.13.95,0,1.62-.39,1.62-1.14,0-.71-.48-1.1-1.21-1.1-.65,0-1.58.29-2.97.83-.17.06-.33.13-.5.2.6,1.57,1.32,3.55,1.8,5.26l-1.38.43c-.45-1.8-1.09-3.67-1.68-5.2Z"/>
        <path d="M129.27,29.27c-.79.6-1.61.96-2.42.96-1.32,0-2.1-.96-2.1-2.35,0-1.29.66-2.55,1.74-3.51.53-.48,1.14-.87,1.79-1.14.01-.49.04-1.11.11-1.77-1.14.06-2.18.09-2.92.09l-.08-1.36c.81.03,1.9,0,3.12-.06.06-.69.15-1.38.24-1.98l1.53.21c-.12.52-.23,1.09-.32,1.68,1.4-.12,2.87-.29,4.14-.53l.11,1.38c-1.35.21-2.92.36-4.42.48-.06.53-.11,1.04-.13,1.47.71-.15,1.48-.22,2.31-.21.08-.34.11-.63.15-.97l1.41.21c-.04.31-.1.62-.18.92,1.83.42,3.11,1.72,3.11,3.42,0,1.9-.96,3.67-4.19,4.69l-1.11-1.11c2.85-.84,3.76-2.13,3.76-3.56,0-1.08-.76-1.89-1.92-2.23-.57,1.58-1.53,3.21-2.55,4.32.13.27.27.54.43.79l-1.18,1.02c-.15-.27-.29-.55-.42-.86ZM126.99,28.8c.54,0,1.19-.3,1.82-.87-.27-.9-.47-2.08-.53-3.3-.33.2-.69.48-1.04.83-.54.54-1.04,1.35-1.04,2.24,0,.75.33,1.11.78,1.11ZM129.94,26.85c.66-.82,1.29-1.93,1.7-3.03-.74,0-1.41.08-2.01.25.02.95.09,1.91.32,2.77Z"/>
        <path d="M138.04,28.13l1.3-1.12c.92.78,1.98,2,2.77,3.13l-1.41,1.25c-.69-1.16-1.64-2.29-2.67-3.25Z"/>
        <path d="M153.13,24.62c1.81-1.53,3.04-3.55,3.67-5.97l1.46.46c-.79,2.8-2.18,5.08-4.02,6.63l-1.11-1.12ZM162.85,29.55c-2.43.39-5.78.78-8.52.96l-.48-1.53c.83-.03,1.63-.07,1.93-.1,1.07-1.92,1.89-3.85,2.71-6.25l1.54.53c-.88,2.28-1.69,4.05-2.58,5.62,1.53-.09,3.1-.24,4.59-.42-.72-1-1.17-1.6-1.79-2.37l1.25-.69c1.32,1.46,2.61,3.17,3.67,4.81l-1.44.9c-.33-.58-.52-.9-.9-1.46ZM160.03,18.98l1.42-.48c.92,2.15,2.49,4.2,4.35,5.62l-1.11,1.25c-2.04-1.74-3.62-3.9-4.67-6.39Z"/>
        <path d="M167.88,18.53h5.5v4.56h-4.09v8.13h-1.41v-12.69ZM172.06,20.36v-.81h-2.78v.81h2.78ZM172.06,22.15v-.89h-2.78v.89h2.78ZM170.17,29.91c1.22-.56,1.76-1.3,1.79-2.49h-2.05v-1.09h2.05v-1.28h-1.62v-1.06h7.19v1.06h-1.56v1.28h1.98v1.09h-1.94v3.12h-1.25v-3.12h-1.57c-.06,1.63-.72,2.68-2.16,3.43l-.86-.94ZM174.72,26.33v-1.28h-1.51v1.28h1.51ZM176.89,30.99l-.22-1.46c.45.09,1.11.15,1.49.15.33,0,.43-.12.43-.45v-6.15h-4.2v-4.56h5.61v11.26c0,.99-.34,1.3-1.4,1.3-.61,0-1.18-.03-1.71-.1ZM178.59,20.36v-.81h-2.88v.81h2.88ZM178.59,22.15v-.89h-2.88v.89h2.88Z"/>
        <path d="M183.07,24.33c-.27.58-.58,1.12-.95,1.67l-.61-1.42c1.11-1.77,1.93-4.11,2.4-6.66l1.37.29c-.27,1.16-.53,2.08-.86,2.99v10.02h-1.35v-6.87ZM185.71,22.17h2.49v-1.92h-2.89v-1.3h9.7v1.3h-3.01v1.92h2.56v8.88h-1.29v-.83h-6.27v.83h-1.29v-8.88ZM188.26,28.97v-5.55h-1.26v5.55h1.26ZM190.74,22.17v-1.92h-1.28v1.92h1.28ZM190.74,28.97v-5.55h-1.28v5.55h1.28ZM193.27,28.97v-5.55h-1.33v5.55h1.33Z"/>
        <path d="M198.25,24.62c-.43,1.44-.96,2.64-1.6,3.75l-.69-1.61c.92-1.18,1.67-2.8,2.13-4.63h-1.8v-1.33h1.96v-2.82h1.35v2.82h1.65v1.26c1.21-1.24,2-2.61,2.37-4.14l1.33.3c-.09.32-.18.58-.29.86h2.78l.79.67c-.54,1.23-1.23,2.34-2.01,3.29,1.05.87,2.31,1.59,3.58,2.04l-.81,1.3c-.24-.11-.57-.27-.96-.5v5.33h-1.33v-.69h-3.18v.69h-1.33v-4.82c-.29.17-.63.36-.96.53l-.83-1.08c1.58-.72,2.87-1.6,3.96-2.68-.39-.39-.81-.86-1.16-1.33-.46.63-.92,1.12-1.46,1.62l-.79-1.08.21-.23h-1.57v.99c.75.55,1.23.95,1.81,1.49l-.87,1.02c-.34-.5-.43-.6-.94-1.23v6.81h-1.35v-6.58ZM207.7,25.68c-.84-.48-1.65-1.03-2.38-1.65-.58.58-1.23,1.11-2.01,1.65h4.4ZM206.71,29.3v-2.43h-3.18v2.43h3.18ZM206.46,20.3h-2.33l-.19.36c.3.5.82,1.09,1.32,1.51.51-.61.9-1.2,1.2-1.88Z"/>
        <path d="M215.43,26.09c0-1.67,1.05-3.22,3.02-4.56-2.88.27-4.68.42-6.81.58l-.19-1.58c3.12-.12,7.92-.41,11.43-.97l.3,1.53c-2.08.29-2.79.51-4,1.47-1.38,1.08-2.21,2.19-2.21,3.55,0,1.71,1.46,2.59,4.04,2.96l-.67,1.44c-2.99-.42-4.89-1.86-4.89-4.42ZM219.79,23.84l.87-.58c.62.63,1.02,1.28,1.51,2.15l-.9.63c-.48-.92-.93-1.58-1.49-2.19ZM221.22,22.91l.88-.58c.6.58,1.07,1.27,1.52,2.08l-.9.6c-.51-.93-.9-1.51-1.5-2.1Z"/>
        <path d="M225.25,30.12c1.62-.32,3.08-.79,4.26-1.38h-2.49v-6.04h9.51v6.04h-2.57c1.5.38,2.75.75,4.18,1.32l-1.11,1.2c-1.62-.76-2.99-1.29-4.46-1.69l1.07-.83h-3.98l1.07.83c-1.59.84-3.17,1.48-4.53,1.83l-.96-1.27ZM226.08,18.59h11.38v3.42h-11.38v-3.42ZM229.45,21.03v-1.42h-1.98v1.42h1.98ZM235.08,24.41v-.75h-6.62v.75h6.62ZM235.08,26.06v-.75h-6.62v.75h6.62ZM235.08,27.75v-.81h-6.62v.81h6.62ZM232.74,21.03v-1.42h-2v1.42h2ZM236.08,21.03v-1.42h-2.05v1.42h2.05Z"/>
        <path d="M240.33,29.46c3.03-3,4.93-4.81,6.94-6.71-1.93.33-4.2.51-5.52.57l-.19-1.46c1.74-.04,5.4-.31,7.51-.78l1,1.04c-1.05.88-2.55,2.19-3.6,3.12.29-.06.56-.09.79-.09.74,0,1.11.54,1.11,1.09,0,.41-.04,1.32-.04,1.59,0,.71.17,1.08,1.05,1.08.65,0,1.91-.1,2.85-.34l.18,1.59c-1.02.21-2.28.27-2.99.27-1.88,0-2.67-.76-2.67-2.22,0-.33.03-.83.03-1.05,0-.38-.2-.75-.57-.75-.45,0-.87.24-1.39.71-.6.54-1.17,1.12-3.24,3.39l-1.26-1.05ZM243.46,19.44l.58-1.3c1.5.25,2.79.51,4.41,1.2l-.72,1.31c-1.4-.62-2.9-.95-4.28-1.2Z"/>
        <path d="M254.92,29.99c1.23-2.76,2.1-5.34,2.71-7.94-1.02.08-1.98.12-2.77.15l-.17-1.51c1.04-.03,2.14-.08,3.29-.15.15-.81.3-1.63.42-2.47l1.54.24c-.14.72-.29,1.42-.44,2.11,1.11-.12,2.21-.25,3.27-.46l.24,1.5c-1.18.2-2.53.36-3.85.48-.69,2.92-1.54,5.7-2.71,8.65l-1.53-.6ZM260.16,28.05c0-.55.21-1.23.67-1.89l1.37.43c-.39.45-.57.9-.57,1.21,0,.58.66.92,2.13.92.96,0,1.98-.1,2.79-.28l.3,1.56c-.93.18-2.13.21-2.85.21-2.75,0-3.84-.9-3.84-2.16ZM260.92,23.25c1.71-.29,3.71-.42,5.4-.34l-.19,1.49c-1.63-.09-3.45.03-4.8.27l-.41-1.41Z"/>
        <path d="M268.66,29.64c3.87-1.78,5.62-4.93,5.62-10.02v-1.2h1.65v1.14c0,4.29,1.88,7.48,5.76,9.76l-1.05,1.41c-2.54-1.53-4.71-4.29-5.42-6.88-.58,3.03-2.65,5.7-5.49,7.12l-1.08-1.33Z"/>
        <path d="M288.13,28.92c2.99-.31,4.59-1.38,4.59-2.88,0-.95-.64-1.84-1.92-1.84-.67,0-1.5.18-2.46.38-.95.2-2.23.5-3.21.73l-.4-1.41c.96-.21,2.08-.44,3.28-.68,1.05-.21,2.05-.39,2.85-.39,2.17,0,3.42,1.37,3.42,3.13,0,2.31-1.8,3.76-5.28,4.29l-.87-1.33Z"/>
        <path d="M302.19,26.09c0-1.67,1.05-3.22,3.02-4.56-2.88.27-4.68.42-6.81.58l-.19-1.58c3.12-.12,7.92-.41,11.43-.97l.3,1.53c-2.08.29-2.79.51-4,1.47-1.38,1.08-2.21,2.19-2.21,3.55,0,1.71,1.37,2.59,4.04,2.94l-.67,1.46c-2.99-.42-4.89-1.86-4.89-4.42Z"/>
        <path d="M311.56,28.13l1.3-1.12c.92.78,1.98,2,2.77,3.13l-1.41,1.25c-.69-1.16-1.64-2.29-2.67-3.25Z"/>
        <path d="M97.27,51.77c-.5.56-1.05,1.1-1.63,1.61l-.76-1.28c1.38-.96,3.03-2.7,3.85-4.09h-3.46v-1.33h1.93v-2.29h1.41v2.29h1.33l.66.65c-.6,1.08-1.21,2.01-1.91,2.88v.76l.24.18c.39-.52.71-1.05,1.05-1.67l1.07.66c-.38.54-.83,1.08-1.26,1.54.65.44.96.66,1.38,1.02l-.83,1.21c-.45-.51-.98-1.02-1.65-1.62v5.08h-1.42v-5.61ZM99.54,56.37c1.54-1.05,2.66-2.75,2.99-4.62.2-1.04.31-2.5.38-4.71h-2.24v-1.36h7.16c0,5.98-.09,8.79-.32,10-.21,1.07-.83,1.58-2,1.58-.4,0-1.12-.04-1.77-.11l-.27-1.53c.55.1,1.26.17,1.69.17.65,0,.83-.18.95-.96.17-1.28.24-3.39.29-7.79h-2.12c-.01,2.58-.2,4.54-.5,5.75-.53,1.95-1.7,3.64-3.22,4.6l-1.02-1.02Z"/>
        <path d="M110.98,50.75c-.33.54-.62.96-1,1.49l-.66-1.44c1.25-1.84,2.21-4.14,2.7-6.63l1.41.32c-.35,1.38-.65,2.34-1.07,3.43v9.54h-1.38v-6.71ZM113.41,48.77h1.35v6.82h7.89v1.21h-7.89v.65h-1.35v-8.68ZM115.74,47.91h1.32c.06-.31.1-.6.15-.92h-3.6v-1.17h3.76c.08-.51.13-1.06.18-1.67l1.48.12c-.09.65-.12.83-.24,1.54h3.5v1.17h-3.69c-.06.32-.14.6-.21.92h3.04v6.87h-5.7v-6.87ZM120.12,49.9v-.95h-3.09v.95h3.09ZM120.12,51.8v-.94h-3.09v.94h3.09ZM120.12,53.74v-.99h-3.09v.99h3.09Z"/>
        <path d="M124.56,55.95c1.25-2.34,2.1-4.38,2.71-6.57-.92.14-1.77.25-2.43.36l-.25-1.46c.69-.06,1.96-.2,2.98-.34.24-1.04.45-2.12.65-3.25l1.53.24c-.19.93-.42,1.86-.66,2.82.44-.03.83-.06,1.14-.06,1.44,0,2.4.88,2.4,2.68,0,1.29-.12,2.91-.45,4.27-.37,1.56-1.27,1.97-2.17,1.97-.7,0-1.39-.14-2.01-.36l-.12-1.65c.71.35,1.38.48,1.83.48.58,0,.88-.32,1.11-1.35.19-.89.3-2,.3-3.06s-.43-1.59-1.18-1.59c-.26,0-.62.03-1.14.09-.73,2.59-1.53,4.88-2.82,7.51l-1.41-.73ZM132.55,47.93l1.23-.91c1.17,1.39,1.95,3.06,2.64,5.19l-1.38.9c-.72-2.26-1.35-3.97-2.49-5.17ZM133.72,45.82l.79-.66c.63.6,1.05,1.11,1.56,2.01l-.86.67c-.51-.92-.94-1.48-1.5-2.02ZM135.18,44.98l.79-.66c.68.58,1.08,1.16,1.56,1.98l-.87.66c-.45-.84-.9-1.46-1.49-1.98Z"/>
        <path d="M138.69,54.9h5.12v-10.14h1.6v3.75h4.83v1.43h-4.83v4.96h5.91v1.45h-12.63v-1.45Z"/>
        <path d="M153.48,55.95c1.25-2.34,2.1-4.38,2.71-6.57-.92.14-1.77.25-2.43.36l-.25-1.46c.69-.06,1.96-.2,2.98-.34.24-1.04.45-2.12.65-3.25l1.53.24c-.19.93-.42,1.86-.66,2.82.44-.03.83-.06,1.14-.06,1.44,0,2.4.88,2.4,2.68,0,1.29-.12,2.91-.45,4.27-.37,1.56-1.27,1.97-2.17,1.97-.7,0-1.39-.14-2.01-.36l-.12-1.65c.71.35,1.38.48,1.83.48.58,0,.88-.32,1.11-1.35.19-.89.3-2,.3-3.06s-.43-1.59-1.18-1.59c-.26,0-.62.03-1.14.09-.73,2.59-1.53,4.88-2.82,7.51l-1.41-.73ZM161.47,47.93l1.23-.91c1.17,1.39,1.95,3.06,2.64,5.19l-1.38.9c-.72-2.26-1.35-3.97-2.49-5.17ZM162.64,45.82l.79-.66c.63.6,1.05,1.11,1.56,2.01l-.86.67c-.51-.92-.94-1.48-1.5-2.02ZM164.1,44.98l.79-.66c.68.58,1.08,1.16,1.56,1.98l-.87.66c-.45-.84-.9-1.46-1.49-1.98Z"/>
        <path d="M170.59,52.86c-.54.61-1.17,1.36-1.94,2.38l-1.23-.93c1.25-1.26,2.28-2.73,2.7-3.57.15-.3.33-.74.48-1.2v-.96c-.86.2-1.89.35-2.68.42l-.24-1.39c.83-.06,1.95-.2,2.91-.42,0-1.07-.02-1.86-.03-2.66l1.59.06c-.03.88-.06,1.68-.08,2.61l.63.42c-.15.51-.36,1.07-.64,1.77v.18c1.69-1.79,3.18-3.1,4.51-3.1.96,0,1.6.58,1.6,1.68,0,.64-.1,1.3-.22,2.04-.25,1.59-.36,2.77-.36,3.38,0,.81.27,1.03.72,1.03.63,0,1.33-.42,2.07-1.63l.66,1.54c-.75,1.08-1.75,1.62-2.97,1.62s-2.01-.88-2.01-2.28c0-.94.1-2.19.38-3.93.07-.5.15-1.05.15-1.44,0-.36-.12-.51-.39-.51-.72,0-2.56,1.74-4.14,3.33,0,1.96,0,3.44.03,5.7l-1.57.06c.03-1.62.06-2.92.08-4.2Z"/>
        <path d="M182.85,52.01c0-1.33.3-3.96.84-6.81l1.53.27c-.65,2.92-.95,5.56-.95,6.67,0,.47.03.98.09,1.44.24-.76.54-1.47.87-2.19l.9.9c-.45.93-.64,1.47-.79,2.03-.22.84-.3,1.27-.28,1.95l-1.19.5c-.63-1.37-1.02-2.73-1.02-4.75ZM186.61,54.45c0-1.05.85-2.04,2.55-2.04.42,0,.87.04,1.32.12l-.04-1.17c-.05-.65-.08-1.38-.09-2.07-1.18.08-2.37.11-3.37.11l-.11-1.5c1.07.01,2.26-.02,3.46-.09,0-.84-.01-1.58.03-2.79l1.57.04c-.07,1.02-.1,1.83-.13,2.61.79-.07,1.54-.18,2.24-.31l.15,1.51c-.72.12-1.53.23-2.38.3.02.78.03,1.49.06,2.16.01.6.04,1.14.06,1.59.86.32,1.71.78,2.54,1.4l-.87,1.38c-.55-.53-1.11-.92-1.65-1.2-.12,1.46-1.09,2.19-2.71,2.19-1.5,0-2.61-.85-2.61-2.23ZM189.19,55.34c.81,0,1.35-.39,1.33-1.21v-.2c-.45-.13-.88-.21-1.25-.21-.88,0-1.26.36-1.26.81,0,.49.43.81,1.17.81ZM192.49,44.81l.97-.29c.25.72.36,1.17.53,2.04l-1.02.29c-.15-.87-.25-1.33-.48-2.04ZM194.04,44.36l.96-.29c.31.74.42,1.16.6,2.04l-.99.3c-.16-.87-.28-1.32-.57-2.05Z"/>
        <path d="M200.68,56.34c1.35-.5,2.59-1.42,3.06-2.49-.32.26-.72.41-1.16.41-1.53,0-2.5-1.14-2.5-2.68,0-1.38,1.11-2.36,2.42-2.36.43,0,.87.15,1.16.35l-.04-1.32c-2.28.09-4.63.2-6.66.29l-.1-1.5c1.99-.04,4.39-.11,6.7-.21l-.08-2.43,1.58.04c-.01.73-.01,1.53-.01,2.32,1.41-.07,2.76-.15,3.92-.24l.09,1.48c-1.19.06-2.57.12-4,.18l.04,2.4c.17.53.22,1.18.22,1.83,0,2.08-.78,3.72-3.39,5.02l-1.23-1.09ZM203.64,51.61c0-.66-.43-1.07-.99-1.07-.68,0-1.1.53-1.1,1.16s.41,1.21,1.07,1.21,1.02-.51,1.02-1.3Z"/>
        <path d="M212.31,53.57c0-.96.5-1.79,1.3-2.58l1.27.73c-.76.58-1.05,1.25-1.05,1.77,0,.97,1.02,1.44,3.39,1.44,1.6,0,3.4-.21,4.75-.55l.38,1.59c-1.65.36-3.12.5-4.9.5-3.39,0-5.14-.97-5.14-2.89ZM215.77,48.94c.52-.44.99-.79,1.54-1.17-1.58.07-3.21.1-4.23.07l-.09-1.51c2.64.09,5.12.04,7.29-.21l.27,1.49c-.58.04-.81.1-1.25.3-.9.4-1.32.81-2.22,1.62l-1.32-.58ZM220.33,45.4l.93-.46c.56.7.86,1.32,1.25,2.25l-.97.51c-.36-1-.72-1.67-1.2-2.29ZM221.88,44.82l.93-.48c.54.66.83,1.2,1.26,2.23l-.94.48c-.41-1.02-.74-1.61-1.25-2.24Z"/>
        <path d="M229.15,52.78c-1.21-.81-1.58-1.22-1.58-1.89,0-.63.53-1.11,1.72-2.07,1.56-1.25,2.9-2.42,4.32-4.12l1.35,1.02c-1.56,1.75-2.61,2.58-4.36,3.93-1,.77-1.29,1.04-1.29,1.26,0,.28.18.43,1.29,1.12,1.81,1.12,3.06,1.9,5.2,3.93l-1.18,1.18c-1.93-1.95-3.25-2.88-5.47-4.36Z"/>
        <path d="M240.54,54c0-1.04,1.07-2.5,2.8-3.29-.01-.78-.04-1.59-.04-2.28-.97.09-1.9.13-2.68.17l-.15-1.38c.83-.02,1.8-.08,2.81-.15,0-.69-.02-1.51,0-2.38l1.69.08c-.04.67-.06,1.42-.08,2.14.87-.1,1.7-.24,2.4-.39l.17,1.38c-.77.15-1.67.27-2.58.38v.36c0,.41.01.98.03,1.64,1-.3,2.11-.48,3.1-.48,2.4,0,3.69,1.3,3.69,3.08,0,2.17-1.45,3.38-3.52,3.38-.58,0-1.29-.11-1.72-.3l-.24-1.51c.6.24,1.2.38,1.8.38,1.33,0,2.13-.85,2.13-1.92,0-.95-.73-1.74-2.4-1.74-.86,0-1.88.18-2.81.53.03.97.06,1.93.09,2.62.01.42.01.66.01.99,0,.99-.78,1.33-1.67,1.33-1.51,0-2.83-1.19-2.83-2.61ZM243.04,55.11c.38,0,.51-.25.51-.78,0-.38,0-.67-.01-1.17-.01-.32-.01-.65-.03-.95-.88.46-1.47,1.25-1.47,1.79,0,.67.57,1.11,1,1.11ZM248.2,46.73l.75-1.21c1.27.57,2.08,1.09,3.27,2.17l-.9,1.26c-1.14-1.08-1.94-1.63-3.12-2.22Z"/>
        <path d="M255.81,51.69c-.36.39-.84.85-1.26,1.2l-.73-1.21c1.48-1.25,2.59-2.65,3.54-4.39l1.2.64c-.39.72-.78,1.33-1.35,2.12v7.41h-1.39v-5.76ZM253.9,47.67c1.26-.85,2.38-2.07,3.06-3.34l1.26.66c-.97,1.56-2.19,2.89-3.51,3.87l-.81-1.19ZM261.84,57.27l-.24-1.42c.63.11,1.25.17,1.75.17.44,0,.53-.09.53-.52v-2.01h-3.76c.6.53,1.21,1.17,1.68,1.83l-1.17.95c-.54-.84-1.08-1.47-1.74-2.05l1.07-.72h-2.04v-1.15h5.92v-.99h-5.68v-1.11h8.76v1.11h-1.63v.99h1.96v1.15h-1.92v2.64c0,.92-.38,1.25-1.36,1.25-.66,0-1.42-.03-2.12-.09ZM259.09,44.66h6.92v4.79h-6.92v-4.79ZM264.64,46.53v-.84h-4.18v.84h4.18ZM264.64,48.41v-.88h-4.18v.88h4.18Z"/>
        <path d="M269.16,56.24c1.23-2.76,2.1-5.34,2.71-7.94-1.02.08-1.98.12-2.78.15l-.16-1.51c1.03-.03,2.14-.08,3.28-.15.15-.81.3-1.63.42-2.47l1.54.24c-.13.72-.28,1.42-.43,2.11,1.11-.12,2.21-.25,3.27-.46l.24,1.5c-1.18.2-2.54.36-3.85.48-.69,2.92-1.54,5.7-2.71,8.65l-1.53-.6ZM274.39,54.3c0-.55.21-1.23.68-1.89l1.36.43c-.39.45-.57.9-.57,1.21,0,.58.66.92,2.13.92.96,0,1.98-.1,2.79-.28l.3,1.56c-.93.18-2.13.21-2.85.21-2.74,0-3.84-.9-3.84-2.16ZM275.16,49.5c1.71-.29,3.7-.42,5.4-.34l-.2,1.49c-1.63-.09-3.45.03-4.8.27l-.4-1.41ZM277.68,45.52l.9-.54c.55.71.85,1.25,1.24,2.11l-.94.57c-.39-.87-.71-1.46-1.2-2.14ZM279.39,45l.88-.55c.54.67.88,1.25,1.26,2.08l-.93.57c-.39-.87-.71-1.42-1.21-2.1Z"/>
        <path d="M284.65,54.53c0-1.28,1.11-2.22,3.15-2.22.36,0,.72.03,1.11.08-.02-.31-.04-.64-.06-.96-.09-1.36-.17-3.42-.17-4.41,0-.71-.01-1.5.02-2.48l1.6.08c-.09,1-.1,1.7-.12,2.66,1.23-.06,2.49-.21,3.72-.46l.17,1.5c-1.41.23-2.7.36-3.87.42.01.88.06,1.9.12,2.68.03.43.06.88.07,1.3,1.44.41,2.94,1.11,4.21,2.04l-.85,1.3c-1.19-.9-2.31-1.5-3.29-1.88v.29c0,1.58-.94,2.37-2.8,2.37s-3.01-.86-3.01-2.31ZM287.53,55.41c.84,0,1.44-.29,1.44-1.19,0-.1,0-.25-.01-.46-.41-.08-.79-.1-1.12-.1-1.09,0-1.65.38-1.65.88,0,.58.57.87,1.35.87Z"/>
        <path d="M300.3,53.1c-.48.6-1,1.31-1.62,2.21l-1.27-.94c.96-1.1,1.92-2.31,2.49-3.48.12-.24.27-.64.42-1.11v-1.21c-.72.18-1.66.33-2.34.39l-.24-1.38c.76-.06,1.71-.17,2.56-.38,0-1.08-.01-1.88-.03-2.66l1.59.06c-.03.84-.05,1.62-.06,2.5l.72.34c-.13.42-.43,1.17-.75,1.91v.15c1.54-1.65,3-2.91,4.8-2.91s2.73,1.5,2.73,4.46c0,.75-.08,1.5-.2,2.16.66.36,1.29.81,1.88,1.37l-.96,1.27c-.39-.46-.84-.87-1.3-1.18-.09.25-.2.46-.3.63-.5.79-1.43,1.2-2.5,1.2-1.59,0-2.58-.95-2.58-2.15s1.04-2.04,2.56-2.04c.57,0,1.17.11,1.79.29.06-.52.09-1.06.09-1.57,0-1.77-.41-2.96-1.35-2.96-1.26,0-2.94,1.47-4.65,3.33,0,1.92,0,3.38.03,5.61l-1.58.06c.03-1.51.04-2.76.08-3.96ZM305.91,55.07c.6,0,1.08-.29,1.33-.83.04-.09.09-.2.12-.3-.49-.2-1.02-.3-1.42-.3-.64,0-1.09.27-1.09.68,0,.45.36.75,1.07.75Z"/>
        <path d="M317.32,55.38c0-.66.49-1.23,1.21-1.23s1.21.57,1.21,1.23-.5,1.21-1.21,1.21-1.21-.55-1.21-1.21ZM317.65,45.69h1.76l-.09,7.33h-1.56l-.11-7.33Z"/>
      </g>
      <g>
        <path d="M19.81,128.2c0-.97.54-1.95,1.74-2.77-1.96.29-3.99.54-5.83.78l-.2-1.47c.55-.01,1.28-.07,2.07-.13,1.7-.99,3.57-2.4,4.88-3.51-1.63.25-2.93.36-4.06.41l-.26-1.44c1.74-.03,3.4-.1,5.87-.46l1.14.9c-.96,1.08-3.06,2.59-5.03,3.85,2.67-.29,5.59-.67,7.26-.99l.27,1.52c-1.23-.02-2.41.1-3.39.43-1.65.55-2.95,1.72-2.95,2.89,0,1.25,1.5,1.94,3.99,2.06l-.49,1.48c-2.91-.19-4.99-1.44-4.99-3.54Z"/>
        <path d="M33.89,130.73c1.85-.72,2.6-1.23,3.33-2.01.68-.72,1.26-1.88,1.26-2.96,0-1.47-.97-2-1.9-2-.5,0-.97.08-2.21.41-1.12.3-1.7.46-2.61.72l-.44-1.47c.91-.23,1.48-.38,2.54-.63,1.39-.35,2.13-.48,2.94-.48,1.77,0,3.36.99,3.36,3.21,0,1.89-.79,3.13-1.56,4.04-.81.94-1.95,1.68-3.45,2.26l-1.26-1.09ZM33.5,120.26l.57-1.33c1.5.27,2.91.57,4.54,1.35l-.63,1.38c-1.46-.72-3-1.09-4.49-1.39Z"/>
        <path d="M48.73,128.2c0-.97.54-1.95,1.74-2.77-1.96.29-3.99.54-5.83.78l-.2-1.47c.55-.01,1.28-.07,2.07-.13,1.7-.99,3.57-2.4,4.88-3.51-1.63.25-2.93.36-4.06.41l-.26-1.44c1.74-.03,3.4-.1,5.87-.46l1.14.9c-.96,1.08-3.06,2.59-5.03,3.85,2.67-.29,5.59-.67,7.26-.99l.27,1.52c-1.23-.02-2.41.1-3.39.43-1.65.55-2.95,1.72-2.95,2.89,0,1.25,1.5,1.94,3.99,2.06l-.49,1.48c-2.91-.19-4.99-1.44-4.99-3.54Z"/>
        <path d="M62.81,130.73c1.85-.72,2.6-1.23,3.33-2.01.68-.72,1.26-1.88,1.26-2.96,0-1.47-.97-2-1.9-2-.5,0-.97.08-2.21.41-1.12.3-1.7.46-2.61.72l-.44-1.47c.91-.23,1.48-.38,2.54-.63,1.39-.35,2.13-.48,2.94-.48,1.77,0,3.36.99,3.36,3.21,0,1.89-.79,3.13-1.56,4.04-.81.94-1.95,1.68-3.45,2.26l-1.26-1.09ZM62.42,120.26l.57-1.33c1.5.27,2.91.57,4.54,1.35l-.63,1.38c-1.46-.72-3-1.09-4.49-1.39Z"/>
        <path d="M78.14,129.84c0-.66.49-1.23,1.21-1.23s1.21.57,1.21,1.23-.49,1.21-1.21,1.21-1.21-.56-1.21-1.21ZM78.47,120.15h1.76l-.09,7.33h-1.56l-.11-7.33Z"/>
        <path d="M87.81,130.69c1.23-2.76,2.1-5.34,2.71-7.93-1.02.08-1.98.12-2.78.15l-.16-1.52c1.03-.03,2.14-.08,3.28-.15.15-.81.3-1.64.42-2.48l1.54.24c-.13.72-.29,1.42-.43,2.12,1.11-.12,2.21-.25,3.27-.46l.24,1.5c-1.19.19-2.54.36-3.86.48-.69,2.92-1.54,5.7-2.71,8.65l-1.53-.6ZM93.05,128.76c0-.56.21-1.23.68-1.89l1.36.44c-.39.45-.57.9-.57,1.21,0,.58.66.92,2.13.92.96,0,1.98-.11,2.79-.29l.3,1.56c-.93.18-2.13.21-2.85.21-2.74,0-3.84-.9-3.84-2.16ZM93.81,123.96c1.71-.29,3.7-.42,5.4-.35l-.2,1.49c-1.63-.09-3.45.03-4.8.27l-.4-1.41ZM96.33,119.97l.9-.54c.55.71.85,1.25,1.24,2.12l-.95.57c-.39-.87-.71-1.46-1.2-2.15ZM98.04,119.46l.88-.55c.54.67.88,1.24,1.26,2.08l-.93.57c-.39-.87-.71-1.42-1.21-2.1Z"/>
        <path d="M102.57,130.26c1.28-2.38,2.07-4.33,2.71-6.57-.92.13-1.77.25-2.43.36l-.26-1.46c.69-.06,1.96-.2,2.98-.34.24-1.04.45-2.12.65-3.25l1.53.24c-.2.93-.4,1.86-.64,2.82.42-.03.81-.06,1.12-.06,1.44,0,2.4.88,2.4,2.68,0,1.29-.12,2.91-.45,4.27-.38,1.56-1.28,1.96-2.17,1.96-.71,0-1.4-.13-2.01-.36l-.12-1.65c.71.35,1.38.48,1.83.48.58,0,.88-.32,1.11-1.35.2-.88.3-1.99.3-3.06s-.44-1.59-1.19-1.59c-.27,0-.62.03-1.15.09-.71,2.62-1.48,4.83-2.8,7.51l-1.41-.73ZM111.18,121.85l1.28-.84c1.04,1.47,1.75,3.19,2.34,5.46l-1.44.81c-.56-2.29-1.1-3.92-2.18-5.43Z"/>
        <path d="M120.86,130.19c3.18-.27,5.28-1.23,5.25-2.83-.02-.97-.84-1.61-2.13-1.58-1.57.03-3.15.96-4.39,2.34l-1.19-.57c.35-1.82.53-4.08.54-6.08l1.59.15c-.04,1.26-.2,2.85-.42,4.32,1.15-.99,2.73-1.48,3.9-1.51,2.05-.04,3.63.99,3.66,2.82v.08c0,2.38-2.04,3.72-5.87,4.2l-.94-1.33ZM120.26,120.3l.56-1.26c1.46.24,2.95.75,4.36,1.5l-.61,1.35c-1.44-.76-2.85-1.26-4.31-1.59Z"/>
        <path d="M133.43,128.13c-.58,1.15-1.33,2.14-2.17,2.89l-.86-1.25c1.08-.75,2.04-1.79,2.71-2.94h-2.31v-1.17h2.62v-1.16h-2.91v-1.17h1.75c-.16-.71-.27-1.11-.45-1.68h-1.02v-1.17h2.59v-1.82h1.38v1.82h2.32v1.17h-.81c-.16.6-.29,1.02-.54,1.68h1.53v1.17h-2.54v1.16h2.4v1.17h-2.4v.45c.88.53,1.47.92,2.13,1.49l-.72,1.21c-.49-.57-.88-.97-1.41-1.42v3.34h-1.32v-3.78ZM134.54,123.35c.22-.63.36-1.11.48-1.68h-1.92c.18.57.28,1,.4,1.68h1.04ZM136.13,131.13c1.21-1.42,1.57-2.89,1.56-6.36v-4.54c1.81-.22,3.39-.57,4.66-1.05l1.04,1.21c-1.21.38-2.73.72-4.34.95v2.02h4.88v1.32h-1.71v7.23h-1.41v-7.23h-1.76c0,3.94-.46,5.8-1.83,7.42l-1.09-.98Z"/>
        <path d="M144.84,130.36c1.65-1.04,2.43-2.55,2.51-4.92h-2.31v-1.25h2.31v-1.74h-2.01v-1.25h2.01v-2.37h1.35v2.37h1.75v1.25h-1.75v1.74h1.95v1.25h-1.96c-.02.42-.04.84-.07,1.02.93.69,1.71,1.38,2.34,2.07l-.95,1.14c-.41-.58-1.06-1.33-1.67-1.89-.4,1.61-1.26,2.85-2.49,3.65l-1.01-1.07ZM149.31,130.82c2.11-.5,2.92-1.46,3.01-3.63h-1.19v-7.93h6.11v7.93h-1.5v2.75c0,.34.09.4.57.4.69,0,.72,0,.78-2.02l1.28.46c-.15,2.68-.33,2.92-2.25,2.92-1.33,0-1.72-.25-1.72-1.08v-3.43h-.77c-.1,2.73-1.04,4.05-3.45,4.79l-.87-1.16ZM155.94,121.55v-1.16h-3.49v1.16h3.49ZM155.94,123.77v-1.16h-3.49v1.16h3.49ZM155.94,126.05v-1.21h-3.49v1.21h3.49Z"/>
        <path d="M159.78,129.36h5.12v-10.14h1.61v3.75h4.83v1.42h-4.83v4.96h5.91v1.46h-12.63v-1.46Z"/>
        <path d="M173.87,128.06c.38-.13,1.12-.45,1.75-.74v-4.14h-1.6v-1.37h1.6v-2.98h1.37v2.98h1.47v1.37h-1.47v3.48c.48-.24,1.04-.55,1.43-.81l.2,1.23c-1.08.8-2.7,1.71-4.19,2.36l-.55-1.38ZM180.36,131.18c1.35-.87,2.34-2.08,3.03-3.72h-.76c-.72,1.46-1.95,2.81-3.39,3.67l-.97-.91c1.32-.74,2.46-1.77,3.04-2.76h-.78c-.63.74-1.49,1.49-2.29,2l-.86-.96c1.33-.76,2.36-1.74,3.01-2.89h-2.16v-1.12h8.95v1.12h-5.4l-.5.79h5.46c-.06,1.93-.23,3.73-.44,4.46-.2.76-.62,1.05-1.47,1.05-.45,0-.99-.04-1.5-.09l-.24-1.32c-.6.67-1.14,1.18-1.68,1.56l-1.06-.87ZM179.3,119.12h6.42v4.69h-6.42v-4.69ZM184.41,120.98v-.84h-3.81v.84h3.81ZM184.41,122.82v-.87h-3.81v.87h3.81ZM185.4,127.45h-.7c-.33,1.05-.89,2.12-1.55,2.97.41.09.86.15,1.23.15.75,0,.83-.24,1.02-3.12Z"/>
        <path d="M194.93,129.94c2.75-.69,4.38-2.37,4.38-4.5s-1.47-3.52-3.6-3.66c-.11,1.69-.38,3.16-.84,4.6-.72,2.25-2,3.48-3.36,3.48s-2.52-1.39-2.52-3.31c0-3.48,2.88-6.21,6.42-6.21,3.26,0,5.49,1.98,5.49,5.08,0,2.68-1.65,4.68-4.74,5.75l-1.23-1.23ZM191.55,128.27c.77,0,1.41-.9,1.88-2.38.41-1.32.65-2.49.74-3.96-2.07.52-3.64,2.42-3.64,4.65,0,.92.49,1.7,1.03,1.7Z"/>
        <path d="M204.89,125.43c-.45,1.49-.94,2.62-1.6,3.75l-.69-1.61c.93-1.2,1.67-2.8,2.13-4.63h-1.8v-1.3h1.96v-2.96h1.35v2.96h1.65v1.3h-1.65v1.42c.75.66,1.36,1.31,1.93,2.03l-.78,1.35c-.42-.75-.64-1.12-1.15-1.84v6.01h-1.35v-6.48ZM211.16,127.24c-.68,1.43-1.62,2.7-2.82,3.77l-.96-1.2c1.52-1.05,2.62-2.36,3.51-4.14h-3.12v-1.28h3.39v-1.91h-1.59c-.25.71-.43,1.14-.76,1.73l-1.08-.81c.54-.92.91-2.22,1.15-3.85l1.28.21c-.06.46-.15.96-.27,1.44h1.28v-2.52h1.38v2.52h2.88v1.29h-2.88v1.91h3.54v1.28h-3.27c.86,1.5,2.16,2.79,3.62,3.67l-.87,1.35c-1.25-1.04-2.25-2.19-3.02-3.54v4.75h-1.38v-4.67Z"/>
        <path d="M218.71,126.39c0-1.33.3-3.96.84-6.81l1.53.27c-.64,2.92-.95,5.57-.95,6.67,0,.46.03.98.09,1.44.24-.77.54-1.47.87-2.19l.9.9c-.45.93-.65,1.47-.79,2.02-.23.84-.3,1.28-.29,1.95l-1.19.5c-.63-1.37-1.02-2.73-1.02-4.75ZM222.47,128.84c0-1.05.86-2.04,2.55-2.04.42,0,.87.04,1.32.12l-.04-1.17c-.04-.64-.08-1.38-.09-2.07-1.19.08-2.37.1-3.38.1l-.11-1.5c1.06.02,2.26-.01,3.46-.09,0-.84-.02-1.57.03-2.79l1.58.05c-.08,1.02-.11,1.83-.14,2.61.79-.08,1.54-.18,2.24-.31l.15,1.51c-.72.12-1.53.22-2.39.3.02.78.03,1.49.06,2.16.02.6.04,1.14.06,1.59.86.31,1.71.78,2.54,1.39l-.87,1.38c-.55-.52-1.11-.92-1.65-1.2-.12,1.45-1.1,2.19-2.71,2.19-1.5,0-2.61-.85-2.61-2.23ZM225.05,129.72c.81,0,1.35-.39,1.34-1.21v-.2c-.45-.13-.88-.21-1.25-.21-.88,0-1.26.36-1.26.81,0,.5.44.81,1.17.81Z"/>
        <path d="M231.44,128.84l1.3-1.12c.92.78,1.98,1.99,2.78,3.13l-1.41,1.24c-.69-1.15-1.63-2.29-2.67-3.25Z"/>
        <path d="M16.89,154.17c-.33-1.07-.55-2.97-.55-4.71,0-.75.03-1.82.09-2.75l1.59.33c-.09,1.02-.13,1.92-.13,2.88,0,1.63.16,2.8.43,3.67.32,1.02.77,1.63,1.2,1.63.48,0,1.11-1.04,1.51-2.94l1.32,1.11c-.63,2.37-1.7,3.51-2.8,3.51-1.21,0-2.13-1.06-2.65-2.74ZM23.75,148.52l1.14-1.02c1.8,1.65,2.32,3.67,2.71,6.52l-1.54.48c-.35-2.65-.9-4.77-2.31-5.98Z"/>
        <path d="M33.95,155.37c4-.43,6.24-1.81,6.24-3.81,0-1.38-.86-2.45-2.6-2.45-.88,0-1.94.21-3.2.48-1.53.33-2.8.64-4.17.97l-.4-1.57c1.3-.29,2.67-.57,4.17-.87,1.35-.27,2.67-.51,3.67-.51,2.7,0,4.23,1.63,4.23,3.87,0,2.79-2.36,4.67-7.04,5.38l-.91-1.5Z"/>
        <path d="M44.89,151.52c0-.53.38-1.26,1.02-1.92l1.05.51c-.4.36-.64.67-.64.88,0,.33.44.48,1.5.48h.22c.06-.36.11-.74.17-1.14.06-.45.13-.93.2-1.43-1.01-.01-2.01-.07-2.9-.19l-.07-1.42c1.05.15,2.12.24,3.15.24.12-.93.24-1.8.3-2.43l1.56.21c-.11.53-.24,1.32-.38,2.17.92-.04,1.83-.15,2.74-.31l.09,1.42c-.89.15-2.04.25-3.06.29-.07.52-.13,1.02-.2,1.47-.04.38-.09.72-.12,1.04,1.06-.11,2.17-.3,3.03-.57l.33,1.41c-1.11.24-2.37.39-3.51.46-.04.55-.08.96-.08,1.21,0,1.38.62,2.16,2.07,2.15,1.54-.02,2.93-1.1,2.93-2.9,0-.93-.33-1.68-.93-2.68l1.56-.06c.66,1.1.88,2.17.88,2.94,0,2.65-1.84,4.2-4.47,4.2-2.43,0-3.54-1.21-3.54-3.33,0-.35.03-.84.09-1.46h-.36c-1.96,0-2.64-.55-2.64-1.25Z"/>
        <path d="M58.35,156.89c.93-1.21,1.79-2.73,2.51-4.47l1.17.96c-.64,1.68-1.53,3.36-2.46,4.69l-1.21-1.18ZM58.46,149.78l.95-1.08c.79.54,1.63,1.26,2.28,1.96l-.99,1.19c-.63-.75-1.42-1.49-2.23-2.07ZM58.98,146.42l.99-1.09c.73.51,1.51,1.2,2.21,1.96l-1.04,1.17c-.71-.81-1.43-1.49-2.16-2.04ZM61.95,156.24h3.88v-3.13h-3.21v-1.29h3.21v-2.67h-3.58v-1.29h4.79c-.86-.72-1.89-1.42-2.89-1.96l1-1.02c1.05.55,2.1,1.21,3.02,1.92l-.99,1.06h3.81v1.29h-3.69v2.67h3.38v1.29h-3.38v3.13h4.1v1.33h-9.44v-1.33Z"/>
        <path d="M74.47,145.89h9.78v12.13h-1.49v-.95h-6.81v.95h-1.48v-12.13ZM82.76,149.15v-1.98h-6.81v1.98h6.81ZM82.76,152.37v-1.96h-6.81v1.96h6.81ZM82.76,155.79v-2.14h-6.81v2.14h6.81Z"/>
        <path d="M88.56,148.59c1.74-.06,3.36-.17,4.9-.33-.36-.83-.66-1.71-.92-2.67l1.55-.34c.16.92.48,1.89.88,2.82,1.33-.18,2.62-.43,3.85-.75l.33,1.47c-1.05.25-2.23.48-3.51.67.81,1.5,1.83,2.8,2.78,3.52l-.93,1.21c-.5-.4-.96-.66-1.68-.88-.79-.25-1.47-.34-2.25-.34-1.7,0-2.55.76-2.55,1.56,0,1.11,1.5,1.56,3.71,1.56.84,0,1.74-.06,2.41-.15l.15,1.46c-.67.09-1.83.15-2.64.15-3.21,0-5.16-.96-5.16-2.95,0-1.62,1.65-2.91,4.08-2.91.71,0,1.46.13,2.13.34-.58-.73-1.11-1.51-1.56-2.37-1.73.21-3.57.36-5.42.44l-.16-1.5Z"/>
        <path d="M104.93,153.57c-.54.62-1.17,1.37-1.94,2.38l-1.23-.93c1.25-1.26,2.28-2.73,2.7-3.57.15-.3.33-.74.48-1.2v-.96c-.86.19-1.89.34-2.68.42l-.24-1.4c.82-.06,1.95-.19,2.91-.42,0-1.06-.02-1.86-.03-2.65l1.59.06c-.03.88-.06,1.68-.07,2.61l.63.42c-.15.51-.36,1.06-.64,1.77v.18c1.7-1.79,3.18-3.11,4.52-3.11.96,0,1.6.58,1.6,1.68,0,.65-.1,1.31-.22,2.04-.25,1.59-.36,2.78-.36,3.38,0,.81.27,1.04.72,1.04.63,0,1.33-.42,2.07-1.63l.66,1.54c-.75,1.08-1.75,1.62-2.97,1.62s-2.01-.89-2.01-2.28c0-.95.1-2.19.38-3.93.07-.5.15-1.05.15-1.44,0-.36-.12-.51-.39-.51-.72,0-2.57,1.74-4.14,3.33,0,1.96,0,3.43.03,5.7l-1.57.06c.03-1.62.06-2.92.08-4.2Z"/>
        <path d="M120.84,153.05c0-1.67,1.05-3.23,3.02-4.56-2.88.27-4.68.42-6.81.58l-.2-1.57c3.12-.12,7.92-.41,11.43-.98l.3,1.53c-2.09.29-2.79.51-4.01,1.47-1.38,1.08-2.21,2.19-2.21,3.55,0,1.71,1.37,2.6,4.04,2.94l-.67,1.46c-2.99-.42-4.89-1.86-4.89-4.42Z"/>
        <path d="M132.57,154.17c-.33-1.07-.55-2.97-.55-4.71,0-.75.03-1.82.09-2.75l1.59.33c-.09,1.02-.13,1.92-.13,2.88,0,1.63.16,2.8.43,3.67.32,1.02.77,1.63,1.2,1.63.48,0,1.11-1.04,1.51-2.94l1.32,1.11c-.63,2.37-1.7,3.51-2.8,3.51-1.21,0-2.13-1.06-2.65-2.74ZM139.43,148.52l1.14-1.02c1.8,1.65,2.32,3.67,2.71,6.52l-1.54.48c-.35-2.65-.9-4.77-2.31-5.98Z"/>
        <path d="M148.7,155.37c0-1.05.95-1.81,2.23-1.81s2.38.72,3.12,2.01c.72-.48,1.19-1.18,1.19-2.03,0-1.05-1.06-1.9-2.79-1.9-1.1,0-2.42.36-3.42.99-.69.43-1.2.85-1.96,1.63l-1.04-1.12c1.65-1.28,4.05-3.39,6.21-5.82-1.21.21-2.73.35-3.99.41l-.27-1.44c1.72-.03,3.62-.15,5.78-.56l.85,1.05c-1.44,1.54-2.56,2.61-3.91,3.83.69-.21,1.34-.3,1.94-.3,2.52,0,4.15,1.33,4.15,3.19,0,2.4-2.4,4.05-5.23,4.05-1.54,0-2.85-.82-2.85-2.17ZM151.7,156.23c.39,0,.75-.04,1.11-.13-.46-.81-1.11-1.26-1.8-1.26-.51,0-.81.26-.81.58,0,.53.66.81,1.5.81Z"/>
        <path d="M166.01,156.19c2.75-.69,4.38-2.37,4.38-4.5s-1.47-3.52-3.6-3.66c-.11,1.69-.38,3.16-.84,4.6-.72,2.25-2,3.48-3.36,3.48s-2.52-1.39-2.52-3.31c0-3.48,2.88-6.21,6.42-6.21,3.26,0,5.49,1.98,5.49,5.08,0,2.68-1.65,4.68-4.74,5.75l-1.23-1.23ZM162.63,154.52c.77,0,1.41-.9,1.88-2.38.41-1.32.65-2.49.74-3.96-2.07.52-3.64,2.42-3.64,4.65,0,.92.49,1.7,1.03,1.7Z"/>
        <path d="M175.61,155.24c0-1.27,1.11-2.22,3.15-2.22.36,0,.72.03,1.11.08-.02-.32-.04-.65-.06-.96-.09-1.37-.17-3.42-.17-4.41,0-.71-.01-1.5.02-2.47l1.61.08c-.09,1-.11,1.69-.12,2.65,1.23-.06,2.49-.21,3.72-.46l.16,1.5c-1.41.22-2.7.36-3.87.42.02.88.06,1.91.12,2.68.03.44.06.89.07,1.31,1.44.4,2.94,1.11,4.21,2.04l-.86,1.31c-1.19-.9-2.31-1.5-3.29-1.88v.29c0,1.57-.94,2.37-2.8,2.37s-3.01-.85-3.01-2.31ZM178.49,156.12c.84,0,1.44-.29,1.44-1.18,0-.11,0-.25-.01-.46-.41-.08-.79-.11-1.12-.11-1.1,0-1.65.38-1.65.88,0,.58.57.87,1.35.87Z"/>
        <path d="M188.21,156.16c0-1.17.97-2.14,2.17-2.14s2.15.99,2.15,2.16-.98,2.16-2.18,2.16-2.14-.99-2.14-2.17ZM191.52,156.18c0-.65-.51-1.16-1.15-1.16s-1.16.53-1.16,1.16.51,1.15,1.16,1.15,1.15-.52,1.15-1.15Z"/>
        <path d="M201.48,156.94c1.23-2.76,2.1-5.34,2.71-7.93-1.02.08-1.98.12-2.77.15l-.17-1.52c1.04-.03,2.14-.08,3.29-.15.15-.81.3-1.64.42-2.48l1.54.24c-.13.72-.29,1.42-.44,2.12,1.11-.12,2.21-.25,3.27-.46l.24,1.5c-1.18.19-2.53.36-3.85.48-.69,2.92-1.54,5.7-2.71,8.65l-1.53-.6ZM206.71,155.01c0-.56.21-1.23.67-1.89l1.37.44c-.39.45-.57.9-.57,1.21,0,.58.66.92,2.13.92.96,0,1.98-.11,2.79-.29l.3,1.56c-.93.18-2.13.21-2.85.21-2.75,0-3.84-.9-3.84-2.16ZM207.48,150.21c1.71-.29,3.71-.42,5.4-.35l-.2,1.49c-1.63-.09-3.45.03-4.8.27l-.41-1.41Z"/>
        <path d="M215.71,156.94c1.23-2.76,2.1-5.34,2.71-7.93-1.02.08-1.98.12-2.78.15l-.16-1.52c1.03-.03,2.14-.08,3.28-.15.15-.81.3-1.64.42-2.48l1.54.24c-.13.72-.29,1.42-.43,2.12,1.11-.12,2.21-.25,3.27-.46l.24,1.5c-1.19.19-2.54.36-3.86.48-.69,2.92-1.54,5.7-2.71,8.65l-1.53-.6ZM220.95,155.01c0-.56.21-1.23.68-1.89l1.36.44c-.39.45-.57.9-.57,1.21,0,.58.66.92,2.13.92.96,0,1.98-.11,2.79-.29l.3,1.56c-.93.18-2.13.21-2.85.21-2.74,0-3.84-.9-3.84-2.16ZM221.71,150.21c1.71-.29,3.7-.42,5.4-.35l-.2,1.49c-1.63-.09-3.45.03-4.8.27l-.4-1.41ZM224.23,146.22l.9-.54c.55.71.85,1.25,1.24,2.12l-.95.57c-.39-.87-.71-1.46-1.2-2.15ZM225.94,145.71l.88-.55c.54.67.88,1.24,1.26,2.08l-.93.57c-.39-.87-.71-1.42-1.21-2.1Z"/>
        <path d="M232.93,153.6c0-.84.03-2.66.06-3.78.03-.97.02-2.97-.02-4.27l1.72.03c-.03,1.29-.07,3.18-.12,4.12-.04,1.01-.07,2.75-.07,3.68,0,1.78.49,2.65,1.89,2.65,1.72,0,3.57-1.23,4.56-3.04l.82,1.63c-1.15,1.65-3.21,2.92-5.4,2.92-2.62,0-3.45-1.63-3.45-3.94Z"/>
        <path d="M243.66,155.09l1.3-1.12c.91.78,1.98,1.99,2.77,3.13l-1.41,1.24c-.69-1.15-1.64-2.29-2.67-3.25Z"/>
        <path d="M14.99,180.75c.6-1.38.98-2.92,1.19-4.87l1.44.27c-.3,2.47-.69,4.14-1.26,5.38l-1.37-.78ZM15,183.04c1.37-.61,2.61-1.39,3.81-2.38v-6.04h1.48v4.87c1.96-1.99,3.38-4.27,4.5-7.3l1.38.62c-1.26,3.31-3.25,6.22-5.88,8.64v.36c0,.64.22.73,1.8.73,1.48,0,1.88-.1,2.01-.57.07-.32.13-.93.16-2.12l1.48.42c-.1,3.52-.28,3.71-3.76,3.71-1.38,0-2.04-.06-2.42-.24-.49-.21-.71-.55-.76-1.25-.93.69-1.89,1.29-2.85,1.79l-.96-1.23ZM18.39,172.61l.95-1.15c1.2.58,2.4,1.32,3.64,2.25l-.99,1.26c-1.25-.99-2.42-1.77-3.6-2.36ZM24.89,176.7l1.28-.61c.87,1.38,1.56,2.85,2.14,4.57l-1.39.87c-.57-1.8-1.25-3.45-2.03-4.83Z"/>
        <path d="M33.65,183.45c1.35-.5,2.6-1.42,3.06-2.49-.31.25-.72.4-1.15.4-1.53,0-2.51-1.14-2.51-2.68,0-1.38,1.11-2.36,2.41-2.36.44,0,.87.15,1.16.35l-.04-1.17c-2.28.09-4.63.19-6.66.29l-.11-1.5c2-.04,4.39-.11,6.72-.21-.04-1.05-.08-2.1-.09-2.58l1.57.04c-.02.76-.02,1.62-.02,2.47,1.41-.08,2.76-.15,3.92-.24l.09,1.49c-1.19.06-2.56.12-4.01.18l.04,2.25c.17.53.23,1.19.23,1.83,0,2.08-.78,3.72-3.39,5.02l-1.23-1.09ZM36.6,178.71c0-.66-.44-1.07-.99-1.07-.67,0-1.09.53-1.09,1.16s.4,1.21,1.06,1.21,1.02-.51,1.02-1.3ZM38.67,171.68l.88-.53c.54.62.84,1.02,1.32,1.88l-.93.58c-.45-.85-.75-1.29-1.28-1.93ZM40.49,171.33l.87-.55c.58.63.93,1.15,1.33,1.92l-.93.57c-.44-.83-.71-1.25-1.28-1.93Z"/>
        <path d="M44.1,181.86h5.12v-10.14h1.61v3.75h4.83v1.42h-4.83v4.96h5.91v1.46h-12.63v-1.46Z"/>
        <path d="M58.89,182.91c1.24-2.34,2.1-4.38,2.71-6.57-.92.13-1.77.25-2.43.36l-.26-1.45c.69-.06,1.96-.2,2.98-.35.24-1.03.45-2.11.65-3.25l1.53.24c-.2.93-.42,1.86-.66,2.82.44-.03.82-.06,1.14-.06,1.44,0,2.4.88,2.4,2.69,0,1.29-.12,2.91-.45,4.27-.38,1.56-1.28,1.96-2.18,1.96-.71,0-1.39-.13-2.01-.36l-.12-1.65c.71.34,1.38.48,1.83.48.58,0,.88-.31,1.11-1.35.2-.88.3-2,.3-3.06s-.44-1.59-1.19-1.59c-.26,0-.62.03-1.14.09-.73,2.59-1.53,4.88-2.82,7.51l-1.41-.74ZM66.89,174.89l1.23-.92c1.17,1.39,1.95,3.06,2.64,5.19l-1.38.9c-.72-2.26-1.35-3.97-2.49-5.17ZM68.06,172.77l.79-.66c.63.6,1.05,1.11,1.56,2.01l-.86.67c-.51-.92-.95-1.49-1.5-2.03ZM69.51,171.93l.79-.66c.68.58,1.08,1.16,1.56,1.98l-.87.66c-.45-.84-.9-1.46-1.48-1.98Z"/>
        <path d="M76.4,181.62c0-1.05.95-1.81,2.23-1.81s2.39.72,3.12,2.01c.72-.48,1.19-1.18,1.19-2.03,0-1.05-1.07-1.9-2.79-1.9-1.1,0-2.41.36-3.42.99-.69.43-1.2.85-1.96,1.63l-1.04-1.12c1.65-1.28,4.05-3.39,6.21-5.82-1.21.21-2.73.35-3.99.41l-.27-1.44c1.72-.03,3.61-.15,5.77-.56l.86,1.05c-1.44,1.54-2.56,2.61-3.91,3.83.69-.21,1.33-.3,1.93-.3,2.52,0,4.16,1.33,4.16,3.19,0,2.4-2.4,4.05-5.24,4.05-1.54,0-2.85-.82-2.85-2.17ZM79.4,182.48c.39,0,.75-.04,1.11-.13-.46-.81-1.11-1.26-1.8-1.26-.51,0-.81.26-.81.58,0,.53.66.81,1.5.81Z"/>
        <path d="M89.16,180.61c0-1.32,1-2.5,2.88-3.69-.61-1.41-1.3-3.21-1.71-4.98l1.57-.38c.27,1.41.88,3.25,1.44,4.62,1.14-.6,2.5-1.21,4.02-1.84l.69,1.47c-3.95,1.35-7.35,3.11-7.35,4.63,0,.95.79,1.52,2.98,1.52,1.32,0,2.93-.11,4.67-.44l.27,1.61c-1.79.3-3.62.36-4.79.36-3.46,0-4.68-1.15-4.68-2.88Z"/>
        <path d="M103.02,178.89c0-1.33.3-3.96.84-6.81l1.53.27c-.65,2.92-.95,5.57-.95,6.67,0,.46.03.98.09,1.44.24-.77.54-1.47.87-2.19l.9.9c-.45.93-.64,1.47-.79,2.02-.22.84-.3,1.28-.29,1.95l-1.19.5c-.63-1.37-1.02-2.73-1.02-4.75ZM106.79,181.34c0-1.05.86-2.04,2.55-2.04.42,0,.87.04,1.32.12l-.04-1.17c-.04-.64-.07-1.38-.09-2.07-1.19.08-2.37.1-3.38.1l-.11-1.5c1.07.02,2.27-.01,3.46-.09,0-.84-.01-1.57.03-2.79l1.57.05c-.07,1.02-.11,1.83-.13,2.61.79-.08,1.54-.18,2.23-.31l.15,1.51c-.72.12-1.53.22-2.38.3.02.78.03,1.49.06,2.16.01.6.04,1.14.06,1.59.86.31,1.71.78,2.54,1.39l-.87,1.38c-.55-.52-1.11-.92-1.65-1.2-.12,1.45-1.1,2.19-2.71,2.19-1.5,0-2.61-.85-2.61-2.23ZM109.37,182.22c.81,0,1.35-.39,1.33-1.21v-.2c-.45-.13-.88-.21-1.24-.21-.88,0-1.26.36-1.26.81,0,.5.43.81,1.17.81Z"/>
        <path d="M116.61,171.77h3.88l.74.71c-.42,1.47-.83,2.66-1.32,3.75.88,1.08,1.33,2.25,1.33,3.51,0,1.33-.43,1.86-1.54,1.86-.42,0-.84-.03-1.23-.11l-.26-1.33c.38.09.78.13,1.08.13.39,0,.55-.21.55-.69,0-1.04-.49-2.25-1.33-3.25.49-1.12.85-2.19,1.09-3.24h-1.66v11.33h-1.34v-12.66ZM120.41,182.97c.57-.08,1.14-.2,1.46-.29v-10.84h6.3v6.25h-2.52c.09.64.36,1.39.66,1.88.65-.45,1.28-1.04,1.89-1.71l1.05.99c-.79.72-1.49,1.23-2.28,1.72.59.73,1.39,1.38,2.47,1.96l-.94,1.37c-2.38-1.59-3.71-3.57-4.16-6.21h-1.12v4.27c.74-.18,1.38-.36,2.21-.64l.17,1.25c-1.62.63-3.22,1.11-4.68,1.44l-.5-1.44ZM126.81,174.38v-1.37h-3.6v1.37h3.6ZM126.81,176.94v-1.44h-3.6v1.44h3.6Z"/>
        <path d="M135.32,182.69c3.18-.27,5.28-1.23,5.25-2.83-.02-.97-.84-1.61-2.13-1.58-1.58.03-3.15.96-4.4,2.34l-1.18-.57c.34-1.82.52-4.08.54-6.08l1.59.15c-.04,1.26-.2,2.85-.42,4.32,1.15-.99,2.73-1.48,3.9-1.51,2.05-.04,3.63.99,3.66,2.82v.08c0,2.38-2.04,3.72-5.87,4.2l-.95-1.33ZM134.72,172.8l.55-1.26c1.46.24,2.96.75,4.37,1.5l-.62,1.35c-1.44-.76-2.85-1.26-4.3-1.59Z"/>
        <path d="M145.74,180.45c1.35-2.04,2.19-3.66,2.8-5.29-.99.09-1.94.15-2.67.17l-.2-1.42c1.01-.01,2.19-.08,3.38-.19.22-.77.45-1.56.66-2.43l1.53.38c-.2.66-.38,1.28-.57,1.86.89-.12,1.73-.27,2.42-.45l.27,1.42c-.78.18-1.95.36-3.18.51-.73,2.04-1.61,3.92-3.03,6.27l-1.41-.81ZM148.82,181.76c0-1.14,1.06-2.06,2.67-2.06.36,0,.75.03,1.14.09-.03-.49-.06-1.08-.06-1.36,0-.42.06-1.16.51-1.92l1.34.76c-.29.58-.33.99-.33,1.41,0,.46.03.9.04,1.42,1.06.34,2.16.88,3.15,1.47l-.72,1.31c-.78-.56-1.58-1.02-2.36-1.35v.24c0,1.39-1,2.25-2.58,2.25-1.39,0-2.8-.71-2.8-2.26ZM151.61,182.6c.69,0,1.11-.32,1.11-.95,0-.12,0-.29-.02-.48-.34-.09-.69-.14-1-.14-.79,0-1.34.29-1.34.77,0,.52.55.79,1.25.79ZM153.87,175.38l.68-1.2c1.37.53,2.46,1.14,3.48,2.13l-.82,1.19c-1.15-1.07-2.04-1.59-3.33-2.12Z"/>
        <path d="M161.49,180.42c-.33-1.07-.55-2.97-.55-4.71,0-.75.03-1.82.09-2.75l1.59.33c-.09,1.02-.13,1.92-.13,2.88,0,1.63.16,2.8.43,3.67.32,1.02.77,1.63,1.2,1.63.48,0,1.11-1.04,1.51-2.94l1.32,1.11c-.63,2.37-1.7,3.51-2.8,3.51-1.21,0-2.13-1.06-2.65-2.74ZM168.35,174.77l1.14-1.02c1.8,1.65,2.32,3.67,2.71,6.52l-1.54.48c-.35-2.65-.9-4.77-2.31-5.98Z"/>
        <path d="M174.87,182.76c1.28-2.38,2.07-4.33,2.71-6.57-.91.13-1.77.25-2.43.36l-.25-1.46c.69-.06,1.96-.2,2.98-.34.24-1.04.45-2.12.64-3.25l1.53.24c-.19.93-.4,1.86-.64,2.82.42-.03.81-.06,1.12-.06,1.44,0,2.4.88,2.4,2.68,0,1.29-.12,2.91-.45,4.27-.38,1.56-1.28,1.96-2.18,1.96-.71,0-1.39-.13-2.01-.36l-.12-1.65c.7.35,1.38.48,1.83.48.59,0,.89-.32,1.11-1.35.2-.88.3-1.99.3-3.06s-.43-1.59-1.18-1.59c-.27,0-.62.03-1.16.09-.71,2.62-1.48,4.83-2.8,7.51l-1.41-.73ZM183.48,174.35l1.28-.84c1.04,1.47,1.76,3.19,2.34,5.46l-1.44.81c-.55-2.29-1.1-3.92-2.18-5.43Z"/>
        <path d="M193.16,182.69c3.18-.27,5.28-1.23,5.25-2.83-.02-.97-.84-1.61-2.13-1.58-1.58.03-3.15.96-4.4,2.34l-1.18-.57c.34-1.82.52-4.08.54-6.08l1.59.15c-.04,1.26-.2,2.85-.42,4.32,1.15-.99,2.73-1.48,3.9-1.51,2.05-.04,3.63.99,3.66,2.82v.08c0,2.38-2.04,3.72-5.87,4.2l-.95-1.33ZM192.56,172.8l.55-1.26c1.46.24,2.96.75,4.37,1.5l-.62,1.35c-1.44-.76-2.85-1.26-4.3-1.59Z"/>
        <path d="M202.52,181.34l1.3-1.12c.92.78,1.98,1.99,2.78,3.13l-1.41,1.24c-.69-1.15-1.63-2.29-2.67-3.25Z"/>
        <path d="M222.24,180.7c0-.97.54-1.95,1.74-2.77-1.96.29-3.99.54-5.83.78l-.2-1.47c.55-.01,1.27-.07,2.07-.13,1.69-.99,3.57-2.4,4.87-3.51-1.63.25-2.92.36-4.06.41l-.25-1.44c1.74-.03,3.4-.1,5.86-.46l1.14.9c-.96,1.08-3.06,2.59-5.03,3.85,2.67-.29,5.6-.67,7.26-.99l.27,1.52c-1.23-.02-2.42.1-3.39.43-1.65.55-2.96,1.72-2.96,2.89,0,1.25,1.5,1.94,3.99,2.06l-.5,1.48c-2.91-.19-4.99-1.44-4.99-3.54Z"/>
        <path d="M233.85,180.45c0-.96.5-1.78,1.31-2.58l1.27.74c-.76.58-1.05,1.25-1.05,1.77,0,.97,1.02,1.44,3.39,1.44,1.61,0,3.41-.21,4.76-.55l.38,1.59c-1.65.36-3.12.5-4.9.5-3.39,0-5.15-.98-5.15-2.9ZM237.32,175.82c.53-.43.99-.79,1.54-1.17-1.57.08-3.21.11-4.23.08l-.09-1.51c2.64.09,5.54.03,7.71-.23l.3,1.49c-.6.04-1.04.09-1.53.29-.9.36-1.48.84-2.38,1.65l-1.32-.58Z"/>
        <path d="M16.26,205.14c0-1.33.3-3.96.84-6.81l1.53.27c-.65,2.92-.95,5.57-.95,6.67,0,.46.03.98.09,1.44.24-.77.54-1.47.87-2.19l.9.9c-.45.93-.64,1.47-.79,2.02-.22.84-.3,1.28-.29,1.95l-1.19.5c-.63-1.37-1.02-2.73-1.02-4.75ZM20.03,207.59c0-1.05.86-2.04,2.55-2.04.42,0,.87.04,1.32.12l-.04-1.17c-.04-.64-.07-1.38-.09-2.07-1.19.08-2.37.1-3.38.1l-.11-1.5c1.07.02,2.27-.01,3.46-.09,0-.84-.01-1.57.03-2.79l1.57.05c-.07,1.02-.11,1.83-.13,2.61.79-.08,1.54-.18,2.23-.31l.15,1.51c-.72.12-1.53.22-2.38.3.02.78.03,1.49.06,2.16.01.6.04,1.14.06,1.59.86.31,1.71.78,2.54,1.39l-.87,1.38c-.55-.52-1.11-.92-1.65-1.2-.12,1.45-1.1,2.19-2.71,2.19-1.5,0-2.61-.85-2.61-2.23ZM22.61,208.47c.81,0,1.35-.39,1.33-1.21v-.2c-.45-.13-.88-.21-1.24-.21-.88,0-1.26.36-1.26.81,0,.5.43.81,1.17.81Z"/>
        <path d="M29.43,209.39c.93-1.21,1.79-2.73,2.51-4.47l1.17.96c-.64,1.68-1.53,3.36-2.46,4.69l-1.21-1.18ZM29.54,202.28l.95-1.08c.79.54,1.63,1.26,2.28,1.96l-.99,1.19c-.63-.75-1.42-1.49-2.23-2.07ZM30.06,198.92l.99-1.09c.73.51,1.51,1.2,2.21,1.96l-1.04,1.17c-.71-.81-1.43-1.49-2.16-2.04ZM33.03,208.74h3.88v-3.13h-3.21v-1.29h3.21v-2.67h-3.58v-1.29h4.79c-.86-.72-1.89-1.42-2.89-1.96l1-1.02c1.05.55,2.1,1.21,3.02,1.92l-.99,1.06h3.81v1.29h-3.69v2.67h3.38v1.29h-3.38v3.13h4.1v1.33h-9.44v-1.33Z"/>
        <path d="M43.97,200.81h3.62c-.17-.39-.31-.69-.54-1.12h-2.19v-1h4.79v-1.25h1.5v1.25h4.89v1h-2.33c-.15.36-.36.78-.55,1.12h3.77v1.04h-12.95v-1.04ZM43.97,209.62c.68-.76,1.28-1.69,1.62-2.56l1.3.5c-.42,1.14-1.02,2.19-1.7,2.96l-1.23-.89ZM49.68,207.21l1.02-.62h-4.77v-4.11h9v4.11h-4.06c.54.45.99.93,1.38,1.44l-1.12.81c-.43-.63-.85-1.1-1.44-1.63ZM53.48,204.06v-.63h-6.09v.63h6.09ZM53.48,205.65v-.67h-6.09v.67h6.09ZM47.63,209.31v-2.17h1.44v1.63c0,.29.04.39.2.45.17.07.79.12,1.56.12.55,0,1.05-.03,1.38-.08.54-.06.63-.23.71-1.32l1.34.36c-.11,1.17-.26,1.68-.55,1.9-.32.21-1.2.3-3.09.3-2.55,0-2.97-.17-2.97-1.2ZM51.68,200.81c.16-.34.27-.62.46-1.12h-3.54c.2.36.33.67.5,1.12h2.58ZM53.79,207.35l1.19-.66c1.11,1.08,1.74,1.8,2.25,2.55l-1.26.86c-.51-.86-1.15-1.67-2.18-2.75Z"/>
        <path d="M58.89,209.16c1.24-2.34,2.1-4.38,2.71-6.57-.92.13-1.77.25-2.43.36l-.26-1.45c.69-.06,1.96-.2,2.98-.35.24-1.03.45-2.11.65-3.25l1.53.24c-.2.93-.42,1.86-.66,2.82.44-.03.82-.06,1.14-.06,1.44,0,2.4.88,2.4,2.69,0,1.29-.12,2.91-.45,4.27-.38,1.56-1.28,1.96-2.18,1.96-.71,0-1.39-.13-2.01-.36l-.12-1.65c.71.34,1.38.48,1.83.48.58,0,.88-.31,1.11-1.35.2-.88.3-2,.3-3.06s-.44-1.59-1.19-1.59c-.26,0-.62.03-1.14.09-.73,2.59-1.53,4.88-2.82,7.51l-1.41-.74ZM66.89,201.14l1.23-.92c1.17,1.39,1.95,3.06,2.64,5.19l-1.38.9c-.72-2.26-1.35-3.97-2.49-5.17ZM68.06,199.02l.79-.66c.63.6,1.05,1.11,1.56,2.01l-.86.67c-.51-.92-.95-1.49-1.5-2.03ZM69.51,198.18l.79-.66c.68.58,1.08,1.16,1.56,1.98l-.87.66c-.45-.84-.9-1.46-1.48-1.98Z"/>
        <path d="M72.83,207c.6-1.38.98-2.92,1.19-4.87l1.44.27c-.3,2.47-.69,4.14-1.26,5.38l-1.37-.78ZM72.84,209.29c1.37-.61,2.61-1.39,3.81-2.38v-6.04h1.48v4.87c1.96-1.99,3.38-4.27,4.5-7.3l1.38.62c-1.26,3.31-3.25,6.22-5.88,8.64v.36c0,.64.22.73,1.8.73,1.48,0,1.88-.1,2.01-.57.07-.32.13-.93.16-2.12l1.48.42c-.1,3.52-.28,3.71-3.76,3.71-1.38,0-2.04-.06-2.42-.24-.49-.21-.71-.55-.76-1.25-.93.69-1.89,1.29-2.85,1.79l-.96-1.23ZM76.23,198.86l.95-1.15c1.2.58,2.4,1.32,3.64,2.25l-.99,1.26c-1.25-.99-2.42-1.77-3.6-2.36ZM82.73,202.95l1.28-.61c.87,1.38,1.56,2.85,2.14,4.57l-1.39.87c-.57-1.8-1.25-3.45-2.03-4.83Z"/>
        <path d="M87.69,209.53c2.18-.04,3.86-.27,5.34-.78-.96-.3-1.93-.58-3.31-.95.45-.55.78-1.02,1.12-1.51h-3.36v-1.19h4.08c.3-.5.38-.64.69-1.27h-3.73v-3.46h3.1v-1.14h-3.96v-1.14h12.3v1.14h-4.04v1.14h3.18v3.46h-6.78l1.3.4c-.19.44-.27.57-.46.87h6.97v1.19h-2.91c-.38.84-.84,1.53-1.43,2.02,1.23.34,2.25.67,4,1.29l-1.02,1.18c-1.37-.57-2.46-.97-4.12-1.53-1.35.83-3.55,1.38-6.24,1.56l-.74-1.29ZM91.62,202.79v-1.4h-1.75v1.4h1.75ZM95.67,206.3h-3.2c-.33.49-.54.79-.67.97,1.44.34,1.66.41,2.55.63.53-.33.95-.84,1.32-1.6ZM94.65,200.37v-1.14h-1.76v1.14h1.76ZM94.65,202.79v-1.4h-1.76v1.4h1.76ZM97.76,202.79v-1.4h-1.83v1.4h1.83Z"/>
        <path d="M102.27,209.44c1.23-2.76,2.1-5.34,2.71-7.93-1.02.08-1.98.12-2.78.15l-.16-1.52c1.04-.03,2.14-.08,3.29-.15.15-.81.3-1.64.42-2.48l1.54.24c-.13.72-.29,1.42-.44,2.12,1.11-.12,2.21-.25,3.27-.46l.24,1.5c-1.18.19-2.54.36-3.85.48-.69,2.92-1.54,5.7-2.71,8.65l-1.53-.6ZM107.51,207.51c0-.56.21-1.23.68-1.89l1.37.44c-.39.45-.57.9-.57,1.21,0,.58.66.92,2.13.92.96,0,1.98-.11,2.79-.29l.3,1.56c-.93.18-2.13.21-2.85.21-2.74,0-3.84-.9-3.84-2.16ZM108.27,202.71c1.71-.29,3.71-.42,5.4-.35l-.2,1.49c-1.63-.09-3.45.03-4.8.27l-.4-1.41ZM110.79,198.72l.9-.54c.55.71.86,1.25,1.24,2.12l-.94.57c-.39-.87-.71-1.46-1.2-2.15ZM112.5,198.21l.88-.55c.54.67.88,1.24,1.26,2.08l-.93.57c-.39-.87-.71-1.42-1.21-2.1Z"/>
        <path d="M117.78,204.96c0-1.33.3-4.17.57-6.39l1.53.25c-.52,3.18-.66,5.08-.66,6.48,0,.48.01,1.05.1,1.53.21-.57.54-1.22.83-1.74l.85.87c-.45.81-.6,1.15-.78,1.67-.18.51-.31,1.15-.25,1.71l-1.19.46c-.68-1.35-1.01-2.82-1.01-4.84ZM121.43,201.5c1.28.03,2.58.01,3.81-.08-.06-1-.15-2.19-.25-3.48l1.6-.12c.08,1.21.15,2.38.2,3.45.79-.09,1.52-.21,2.18-.36l.18,1.5c-.69.12-1.47.22-2.29.31.02.48.03.95.03,1.37,0,3.72-.53,5.07-2.31,6.55l-1.58-.69c2.22-1.68,2.32-3.43,2.32-6.27,0-.25,0-.54-.01-.84-1.28.08-2.58.1-3.77.09l-.11-1.44Z"/>
        <path d="M132.39,206.94c0-1.32,1-2.5,2.88-3.69-.62-1.41-1.3-3.21-1.71-4.98l1.57-.38c.27,1.41.88,3.25,1.44,4.62,1.11-.58,2.43-1.18,3.88-1.79-.39-.9-.78-1.51-1.24-2.16l.88-.53c.54.66.91,1.3,1.33,2.17l-.82.48.68,1.44c-3.95,1.35-7.35,3.1-7.35,4.63,0,.95.79,1.51,2.98,1.51,1.32,0,2.92-.1,4.66-.43l.27,1.6c-1.78.3-3.61.36-4.78.36-3.46,0-4.68-1.16-4.68-2.88ZM140.85,197.93l.9-.53c.58.71.96,1.32,1.37,2.16l-.96.53c-.42-.92-.78-1.53-1.3-2.16Z"/>
        <path d="M147.87,206.31c-.48.6-1,1.3-1.62,2.21l-1.28-.95c.96-1.09,1.92-2.31,2.49-3.48.12-.24.27-.65.42-1.11v-1.21c-.72.18-1.66.33-2.34.39l-.24-1.38c.77-.06,1.71-.17,2.56-.38,0-1.08-.01-1.88-.03-2.65l1.59.06c-.03.84-.04,1.62-.06,2.5l.72.34c-.13.42-.44,1.17-.75,1.91v.15c1.54-1.65,3-2.91,4.8-2.91s2.73,1.5,2.73,4.46c0,.75-.07,1.5-.2,2.16.66.36,1.29.81,1.88,1.37l-.96,1.28c-.39-.46-.84-.87-1.3-1.19-.09.25-.2.46-.3.63-.49.79-1.43,1.2-2.5,1.2-1.59,0-2.58-.94-2.58-2.14s1.04-2.04,2.56-2.04c.57,0,1.17.1,1.79.29.06-.53.09-1.07.09-1.58,0-1.77-.41-2.96-1.35-2.96-1.26,0-2.94,1.47-4.65,3.33,0,1.92,0,3.38.03,5.61l-1.57.06c.03-1.51.04-2.76.07-3.96ZM153.48,208.28c.6,0,1.08-.29,1.33-.83.04-.09.09-.19.12-.3-.49-.2-1.02-.3-1.42-.3-.64,0-1.1.27-1.1.67,0,.45.36.75,1.07.75Z"/>
        <path d="M164.9,208.59c0-.66.49-1.23,1.21-1.23s1.21.57,1.21,1.23-.49,1.21-1.21,1.21-1.21-.56-1.21-1.21ZM165.23,198.9h1.76l-.09,7.33h-1.56l-.11-7.33Z"/>
      </g>
      <g>
        <circle class="cls-11" cx="31.42" cy="55.01" r="30"/>
        <path class="cls-6" d="M41.02,44.43c5.99-4.81,10.66-4.4,11.63-2.77.89,1.5-.2,9.39-9.11,4.98"/>
        <path class="cls-4" d="M45.26,47.01c2.15-3.69,6.52-2.97,7.64-2.44-1.95,3.62-3.96,4.96-7.64,2.44Z"/>
        <path class="cls-1" d="M48.26,48.59c-1.31,0-2.94-.38-4.99-1.39-.3-.15-.42-.51-.28-.82.15-.3.52-.42.82-.28,3.32,1.64,5.84,1.68,7.29.12,1.3-1.4,1.35-3.69,1.02-4.24-.21-.35-.72-.62-1.4-.75-.91-.16-4.27-.39-9.33,3.68-.26.21-.65.17-.86-.09-.21-.26-.17-.65.09-.86,3.68-2.96,7.53-4.43,10.31-3.92,1.04.19,1.83.66,2.23,1.32.64,1.09.43,3.95-1.18,5.69-.75.81-1.93,1.54-3.74,1.54Z"/>
        <path class="cls-6" d="M46.51,58.66c1.64-16.82-17.11-22.8-25.64-13.47-2.97,3.25-5.19,9.02-4.06,15.77-3.29,3.25-2.73,7.92,2.42,10.46,3.1,1.53,6.19,2.19,13.34,2.19,6.63,0,14.3-2.8,16.45-6.93,1.2-2.31.78-5.72-2.5-8.03Z"/>
        <path class="cls-2" d="M36.29,41.03c-.6-4.19-4.15-6.52-4.34-.47"/>
        <path class="cls-2" d="M24.6,42.1c-.51-4.2,2.31-7.38,4.07-1.58"/>
        <path class="cls-6" d="M20.15,45.16c-6.66-3.82-11.21-2.69-11.91-.92-.65,1.62,2.36,9.82,10.47,4.08"/>
        <ellipse class="cls-1" cx="35.77" cy="60.6" rx="1.44" ry="1.56" transform="translate(-8.99 6.3) rotate(-8.95)"/>
        <path class="cls-4" d="M16.88,48.97c-2.15-3.69-7.03-2.78-8.16-2.25,1.95,3.62,4.47,4.77,8.16,2.25Z"/>
        <path class="cls-4" d="M29.7,40.55c1.23,7.46-2.33,14.45-12.53,14.45,0-11.42,12.53-14.45,12.53-14.45Z"/>
        <path class="cls-4" d="M31.95,40.56c0,8.41,6.81,12.72,13.84,13.25,0-11.42-13.84-13.25-13.84-13.25Z"/>
        <path class="cls-4" d="M15.73,67.42c13.81-6.39,25.45-3.61,33.28-.74-3.13,7.57-29.25,10.15-33.28.74Z"/>
        <path class="cls-1" d="M32.56,74.23c-7.59,0-10.64-.79-13.61-2.26-2.68-1.33-4.37-3.31-4.74-5.59-.32-1.98.37-3.96,1.94-5.63-1.1-7.13,1.47-12.92,4.26-15.97,4.25-4.65,11.25-5.93,17.42-3.18,3.01,1.34,5.47,3.51,7.11,6.28,1.79,3.02,2.53,6.54,2.2,10.49,3.38,2.56,3.63,6.22,2.4,8.6-2.36,4.54-10.49,7.26-16.99,7.26ZM31.19,41.39c-3.76,0-7.35,1.46-9.87,4.22-2.64,2.89-5.06,8.42-3.91,15.26.03.2-.03.39-.17.53-1.44,1.42-2.08,3.13-1.81,4.79.3,1.88,1.75,3.54,4.07,4.69,2.8,1.38,5.71,2.13,13.07,2.13,6.88,0,14.01-2.96,15.91-6.6,1.03-1.98.75-5.1-2.31-7.25-.18-.13-.28-.34-.26-.56.71-7.25-2.49-13.19-8.56-15.89-2.01-.89-4.11-1.33-6.15-1.33Z"/>
        <path class="cls-1" d="M32.2,70.72c-1.88,0-3.48-.99-4.4-2.72l-.45.09c-.33.07-.65-.14-.72-.47-.07-.33.14-.65.47-.72l.91-.19c.28-.06.57.09.68.35.73,1.67,2.12,2.55,3.82,2.43,1.72-.13,3.25-1.27,3.64-2.72.07-.28.34-.46.62-.45l.77.04c.34.02.59.3.58.64-.02.34-.31.59-.64.58l-.31-.02c-.69,1.72-2.5,2.99-4.57,3.14-.14.01-.27.02-.41.02Z"/>
        <ellipse class="cls-1" cx="35.77" cy="60.6" rx="1.44" ry="1.56" transform="translate(-8.99 6.3) rotate(-8.95)"/>
        <ellipse class="cls-1" cx="28.1" cy="60.96" rx="1.56" ry="1.44" transform="translate(-34.21 85.95) rotate(-87.1)"/>
        <path class="cls-1" d="M13.5,50.94c-1.46,0-2.58-.54-3.4-1.18-2.09-1.64-2.9-4.58-2.43-5.75.29-.72.99-1.3,1.99-1.65,2.66-.93,6.69-.08,10.79,2.27.29.17.39.54.22.83-.17.29-.54.39-.83.22-5.62-3.23-8.91-2.48-9.78-2.18-.65.23-1.11.57-1.26.95-.21.53.31,2.97,2.06,4.35,1.89,1.49,4.48,1.14,7.49-.99.27-.19.65-.13.85.15.19.27.13.65-.15.85-2.23,1.58-4.07,2.14-5.55,2.14Z"/>
        <path class="cls-1" d="M36.29,41.64c-.3,0-.56-.22-.6-.52-.32-2.23-1.48-3.66-2.12-3.62-.31.02-.93.69-1,3.09-.01.34-.3.59-.63.59-.34-.01-.6-.29-.59-.63.11-3.61,1.4-4.22,2.15-4.27.03,0,.06,0,.09,0,1.46,0,2.94,2.06,3.31,4.67.05.33-.18.64-.52.69-.03,0-.06,0-.09,0Z"/>
        <path class="cls-1" d="M24.6,42.71c-.3,0-.57-.23-.6-.54-.32-2.66.61-5.08,2.07-5.39.74-.15,2.14.1,3.19,3.56.1.32-.08.66-.41.76-.32.1-.66-.08-.76-.41-.7-2.3-1.46-2.78-1.77-2.72-.62.13-1.38,1.81-1.11,4.05.04.33-.2.64-.53.68-.02,0-.05,0-.07,0Z"/>
        <path class="cls-1" d="M37.03,52.14c-.65-1.09-1.64-1.26-2.41-.7-.18.13-.11.42.12.44.71.07,1.33.3,1.98.61.22.1.44-.14.31-.35Z"/>
        <path class="cls-1" d="M26.14,52.54c.65-1.09,1.64-1.26,2.41-.7.18.13.11.42-.12.44-.71.07-1.33.3-1.98.61-.22.1-.44-.14-.31-.35Z"/>
        <circle class="cls-1" cx="33.41" cy="66.55" r=".57"/>
        <circle class="cls-1" cx="31.63" cy="66.55" r=".57"/>
      </g>
      <g>
        <path class="cls-1" d="M323.36,198.77c1.98.16,1.35,2.34.38,3.61-.2.27-.59.3-.85.08-1.72-1.47-1.12-3.82.47-3.69Z"/>
        <path class="cls-1" d="M323.25,199.64c-.34,0-.62-.28-.62-.62v-3.92l-.99-1.38c-.2-.28-.14-.67.14-.87.28-.2.67-.14.87.14l1.1,1.54c.08.11.12.23.12.36v4.12c0,.34-.28.62-.62.62Z"/>
        <polygon class="cls-5" points="320.29 188.95 313.9 188.35 316.74 194.1 323.25 194.79 320.29 188.95"/>
        <rect class="cls-5" x="313.29" y="192.19" width="6.95" height="3.02" transform="translate(189.17 -154.99) rotate(38.45)"/>
        <path class="cls-1" d="M318.58,198.14c-.14,0-.27-.04-.39-.13-.27-.21-.32-.61-.1-.88l2.35-2.98c.13-.17.34-.26.56-.23l1.19.13-2.29-4.51-4.93-.46.7,1.42c.1.21.08.46-.06.65l-1.88,2.51c-.21.28-.6.33-.87.12-.28-.21-.33-.6-.12-.87l1.65-2.2-1.03-2.07c-.1-.2-.08-.44.05-.63s.35-.29.57-.27l6.39.6c.21.02.4.15.5.34l2.96,5.84c.1.2.09.45-.04.64-.13.19-.35.29-.58.27l-1.99-.21-2.13,2.71c-.12.16-.31.24-.49.24Z"/>
        <path class="cls-10" d="M314.08,225.47l1.72-.87,4.64-2.86,2.66-4.44.28-4.84-2.37-9.99-4.84-6.89-5.68-3.06-6.22-.11-6.22,2.18-3.6,4.06-4.75,9.54-1.64,4.11-.28,5.67,3.66,4.27c4.43,3.21,12.95,4.67,22.63,3.23Z"/>
        <path class="cls-12" d="M323.03,214.01c-6.01-1.46-12.15,4.43-11.22,11.67,6.66-1.16,11.06-4.57,11.22-11.67Z"/>
        <path class="cls-1" d="M302.15,205.09c-1.22,1.43-2.92,1.55-4.2.69-.3-.2-.14-.6.24-.6,1.22-.01,2.3-.27,3.45-.61.38-.11.73.25.5.52Z"/>
        <path class="cls-1" d="M307.09,205.52c.83,1.68,2.45,2.22,3.9,1.69.34-.12.28-.54-.09-.64-1.18-.31-2.17-.82-3.2-1.43-.34-.2-.77.06-.61.38Z"/>
        <ellipse class="cls-1" cx="298.53" cy="212.64" rx="1.93" ry="1.78" transform="translate(40.65 473.09) rotate(-80.75)"/>
        <ellipse class="cls-1" cx="309.17" cy="213.8" rx="1.78" ry="1.93" transform="translate(-9.35 14.2) rotate(-2.59)"/>
        <path class="cls-12" d="M288.65,211.29c5.25.88,7.74,6.78,5.18,12.57-4.87-3.33-7.47-6.47-5.18-12.57Z"/>
        <path class="cls-1" d="M309.39,226.31c-.33,0-.6-.26-.62-.59-.02-.34.24-.64.59-.66,4.87-.27,13.03-2.08,13.06-11.05,0-1.95-.17-6.99-1.94-11.58-2.13-5.52-5.79-8.59-10.9-9.13-12.27-1.3-15.11,5.95-17,10.75-.23.59-.45,1.15-.67,1.64-.21.48-.48,1.02-.77,1.6-1.49,3.01-3.74,7.57-2.21,11.16.91,2.13,3.09,3.75,6.49,4.82,1.25.39,2.19.6,3.48.89l.57.13c.34.07.55.41.47.74-.08.34-.41.55-.74.47l-.56-.12c-1.28-.28-2.29-.51-3.59-.91-3.76-1.18-6.21-3.04-7.27-5.52-1.76-4.12.65-8.98,2.24-12.2.28-.57.55-1.1.75-1.56.21-.47.42-1.01.65-1.59,1.9-4.84,5.08-12.94,18.29-11.53,5.61.6,9.62,3.93,11.93,9.93,1.85,4.79,2.03,10.01,2.03,12.03,0,2.08-.47,5.1-2.65,7.64-2.4,2.79-6.3,4.36-11.58,4.66-.01,0-.02,0-.04,0Z"/>
        <path class="cls-1" d="M297.26,211.99c-.07,0-.14-.02-.19-.07-.79-.62-1.2-1.27-1.5-2.37-.05-.17.05-.34.22-.38.17-.05.34.05.38.22.3,1.11.68,1.57,1.28,2.05.14.11.16.3.05.44-.06.08-.15.12-.24.12Z"/>
        <path class="cls-1" d="M297.06,212.61c-.84,0-1.74-.48-2.45-1.32-.11-.13-.1-.33.04-.44.13-.11.33-.1.44.04.65.76,1.45,1.17,2.14,1.09.17-.02.33.1.34.28s-.1.33-.28.34c-.08,0-.16.01-.23.01Z"/>
        <path class="cls-1" d="M310.04,213.22c-.15,0-.29-.11-.31-.27-.02-.17.1-.33.27-.35.69-.09,1.49-.69,1.93-1.45.09-.15.28-.2.43-.11.15.09.2.28.11.43-.55.93-1.51,1.63-2.39,1.75-.01,0-.03,0-.04,0Z"/>
        <path class="cls-1" d="M311.17,214.53c-.39,0-.79-.07-1.17-.25-.16-.07-.23-.26-.15-.41.07-.16.26-.23.41-.15.89.41,1.9.09,2.58-.25.15-.08.34-.01.42.14.08.15.01.34-.14.42-.53.26-1.22.51-1.94.51Z"/>
        <g>
          <path class="cls-3" d="M308.61,219.08c-.7-1.91-3.8-3.97-5.38-3.74s-4.91,2.14-5.94,2.08c-1.04-.06-1.76-.76-1.88,1.66-.12,2.42,1.77,3.66,4.3,2.77,3.51,2,10.1.51,8.89-2.77Z"/>
          <path class="cls-3" d="M308.61,221.56c-.78,3.84-5.14,6.09-6.46,5.52-1.32-.57-2.98-1.48-1.53-4.82,2.61.55,7.21-.12,7.33-1.7.12-1.58.66,1,.66,1Z"/>
          <path class="cls-9" d="M301.91,222.6c-.76,1.4-.39,3.2,1.91,2.08s2.3-2.38,2.3-2.38c0,0,1.51-.76-.51,0-2.02.76-3.7.31-3.7.31Z"/>
          <path class="cls-1" d="M303.48,223.38c-1.11,0-2.29-.34-3.52-1.03-2.39.68-3.73.04-4.43-.63-.89-.85-1.22-2.2-.87-3.54.36-1.35.96-1.46,1.9-1.49.67-.02,1.69-.04,3.35-.91,3.69-1.94,5.84-.82,7.95,1.44.21.22.19.57-.03.77-.22.2-.57.19-.77-.03-1.86-2-3.54-2.85-6.64-1.22-1.89.99-3.1,1.02-3.83,1.04q-.7.02-.87.67c-.25.94-.02,1.91.57,2.47.74.7,1.97.81,3.58.31.15-.05.31-.03.44.05,2,1.18,4.86,1.88,7.14-1.43.15-.21.42-.29.66-.2,0,0,.75.3,1.41.45.29.07.48.36.41.65s-.36.48-.65.41c-.43-.1-.87-.24-1.18-.35-1.28,1.69-2.85,2.55-4.61,2.55Z"/>
          <path class="cls-1" d="M302.75,227.69c-.63,0-1.23-.15-1.79-.45-.89-.48-1.46-1.16-1.69-2.02-.45-1.7.63-3.45.68-3.53.16-.26.5-.33.75-.17.26.16.33.5.17.75,0,.01-.88,1.44-.55,2.68.15.56.53,1,1.15,1.34.88.48,1.99.41,3.11-.2,1.57-.85,3.26-2.9,3.48-5.56.02-.3.29-.52.59-.5.3.02.52.29.5.59-.22,2.7-1.81,5.22-4.04,6.43-.8.43-1.6.65-2.36.65Z"/>
        </g>
      </g>
    </g>
  </g>
</svg>