<?xml version="1.0" encoding="UTF-8"?>
<svg id="_レイヤー_2" data-name="レイヤー 2" xmlns="http://www.w3.org/2000/svg" width="339.96" height="177.64" viewBox="0 0 339.96 177.64">
  <defs>
    <style>
      .cls-1 {
        fill: #211815;
      }

      .cls-2 {
        fill: #ecbb6e;
      }

      .cls-3 {
        fill: #5c948d;
      }

      .cls-4 {
        fill: #fffba1;
      }

      .cls-5 {
        fill: #d3f2c9;
      }

      .cls-6 {
        fill: #f2ec67;
      }

      .cls-7 {
        fill: #f2d496;
      }

      .cls-8 {
        fill: #fff;
        stroke: #ceeaeb;
        stroke-miterlimit: 10;
        stroke-width: 2.83px;
      }
    </style>
  </defs>
  <g id="_レイヤー_1-2" data-name="レイヤー 1">
    <g>
      <path class="cls-8" d="M9.89,1.42h239.38c4.68,0,8.47,5.2,8.47,11.61v116.52s9.69,13.28,9.69,13.28h-9.69s0,.69,0,.69c0,6.41-3.79,11.61-8.47,11.61H9.89c-4.68,0-8.47-5.2-8.47-11.61V13.03c0-6.41,3.79-11.61,8.47-11.61Z"/>
      <g>
        <path d="M15.22,20.65h4.5v1.41h-3.09v9.54h-1.41v-10.95Z"/>
        <path d="M21.78,33.88l-.29-1.44c.55.09.9.12,1.23.12s.4-.09.4-.42v-3.09c-.51.18-1.09.35-1.68.5l-.39-1.43c.73-.15,1.42-.31,2.07-.53v-2.71h-1.86v-1.32h1.86v-2.77h1.4v2.77h1.48v1.32h-1.48v2.27c.36-.09.85-.27,1.38-.48l.12,1.26c-.46.23-.95.44-1.5.63v4.29c0,.87-.32,1.14-1.29,1.14-.38,0-1.02-.04-1.46-.11ZM25.63,32.87c1.21-.27,2.37-.78,3.41-1.5-.87-.79-1.53-1.74-1.93-2.77h-.68v-1.28h6.17l.71.62c-.51,1.28-1.28,2.43-2.19,3.38.87.49,2.04.97,3.28,1.3l-.83,1.32c-1.14-.35-2.4-.96-3.45-1.72-1.05.87-2.17,1.47-3.63,1.92l-.86-1.26ZM25.78,25.96c1.14-.51,1.51-1.24,1.51-2.94v-1.62h4.44v3.52c0,.32.09.39.46.39.63,0,.64-.04.71-1.56l1.26.41c-.04,1.29-.13,1.81-.36,2.07-.24.25-.78.39-1.72.39-1.35,0-1.75-.25-1.75-1.06v-2.88h-1.62c0,2.46-.46,3.48-1.93,4.32l-.99-1.04ZM31.47,28.6h-2.98c.33.69.92,1.42,1.56,1.95.66-.6,1.16-1.29,1.42-1.95Z"/>
        <path d="M35.61,25.49c1.29-.53,2.55-1.23,3.75-2.08l.48,1.08c-.97.74-2.37,1.59-3.55,2.17l-.67-1.17ZM35.79,33.01c1.68-.36,3.11-.81,4.26-1.37h-2.44v-5.45h2.42l-.54-.76c2.35-.42,3.39-1.23,3.48-2.73h-1c-.39.6-.79,1.08-1.23,1.46l-.99-.83c.83-.72,1.47-1.69,1.77-2.71l1.38.24c-.13.33-.24.57-.34.79h5.04l.71.55c-.42.72-.96,1.47-1.53,2.07l-1.23-.49c.39-.35.77-.77.96-1.08h-2.16c.33,1.35,1.74,2.28,4.27,2.79l-.75,1.14c-.22-.08-.72-.23-.97-.32v5.33h-2.66c1.3.3,2.55.67,4.23,1.29l-1.16,1.17c-1.41-.67-2.89-1.24-4.38-1.68l.93-.78h-3.63l1.04.79c-1.14.64-2.88,1.35-4.5,1.8l-.96-1.23ZM36.31,21.94l.87-.93c.73.31,1.56.79,2.31,1.38l-.92,1.05c-.64-.54-1.38-1.04-2.26-1.5ZM45.45,27.73v-.66h-6.42v.66h6.42ZM45.45,29.21v-.66h-6.42v.66h6.42ZM45.45,30.73v-.67h-6.42v.67h6.42ZM46.53,26.2c-1.25-.45-2.24-1.15-2.75-1.96-.46.92-1.21,1.48-2.57,1.96h5.31Z"/>
        <path d="M54.03,29.33c-1.21-.81-1.58-1.21-1.58-1.89,0-.63.53-1.11,1.72-2.07,1.56-1.25,2.9-2.42,4.32-4.12l1.35,1.02c-1.56,1.75-2.61,2.58-4.36,3.93-1,.77-1.29,1.04-1.29,1.26,0,.29.18.44,1.29,1.12,1.81,1.12,3.06,1.91,5.2,3.93l-1.18,1.19c-1.93-1.95-3.25-2.88-5.47-4.37Z"/>
        <path d="M65.05,32.6c2.04-4.32,3.56-7.62,5.27-11.5l1.54.58c-1.04,2.04-1.91,3.81-2.81,5.71.8-.69,1.65-1.02,2.33-1.02,1.04,0,1.38.83,1.38,2.64,0,1.93.24,2.58,1.02,2.58,1.05,0,2.05-1.28,2.95-3.99l1.23,1.19c-1.04,2.8-2.35,4.3-4.17,4.3s-2.52-1.23-2.52-3.57c0-1.28-.12-1.61-.58-1.61-.53,0-1.37.68-2.01,1.47-.76.93-1.15,1.65-2.2,4l-1.43-.79Z"/>
        <path d="M79.12,32.74h3.09v-9.54h1.41v10.95h-4.5v-1.41Z"/>
        <path d="M98.14,28.9c0-1.67,1.05-3.23,3.02-4.56-2.88.27-4.68.42-6.81.58l-.19-1.57c3.12-.12,7.92-.41,11.43-.97l.3,1.53c-2.08.29-2.79.51-4,1.47-1.38,1.08-2.21,2.19-2.21,3.55,0,1.71,1.46,2.59,4.04,2.96l-.67,1.44c-2.99-.42-4.89-1.86-4.89-4.42ZM102.51,26.65l.87-.58c.62.63,1.02,1.28,1.51,2.14l-.9.63c-.48-.92-.93-1.58-1.49-2.19ZM103.93,25.72l.88-.58c.6.58,1.07,1.27,1.52,2.08l-.9.6c-.51-.93-.9-1.51-1.5-2.1Z"/>
        <path d="M107.71,26.33c.98-.33,1.94-.81,2.88-1.47-.69-.65-1.2-1.07-1.79-1.44l.99-.88c.63.46,1.08.83,1.82,1.53.57-.5,1.06-1.02,1.5-1.62h-2.99v-1.2h5.07c.42.67.73,1.11,1.12,1.51.6-.52.99-.96,1.5-1.58l1.11.77c-.6.63-1.14,1.12-1.81,1.63.13.12.46.4.73.62.71-.57,1.16-1.02,1.65-1.65l1.14.73c-.58.65-1.08,1.08-1.75,1.61.84.5,1.54.82,2.35,1.12l-.84,1.15c-1.05-.46-2.14-1.11-3.13-1.84v.78h-5.28v-.69c-1.04.82-2.15,1.5-3.38,2.05l-.9-1.14ZM108.31,32.39h3.39c-.15-.51-.44-1.1-.76-1.62l1.11-.43h-1.79v-3.39h8.46v3.39h-2.02l1.26.43c-.27.6-.54,1.09-.87,1.62h3.58v1.23h-12.36v-1.23ZM117.25,29.24v-1.2h-5.52v1.2h5.52ZM115.56,32.39c.44-.84.72-1.47.9-2.05h-4.11c.33.49.6,1.02.84,1.68l-1,.38h3.38ZM116.82,24.97c-.93-.75-1.69-1.53-2.28-2.31-.54.85-1.23,1.63-2.03,2.31h4.3Z"/>
        <path d="M122.25,30.16c.38-.13,1.12-.45,1.75-.74v-4.14h-1.6v-1.37h1.6v-2.99h1.37v2.99h1.47v1.37h-1.47v3.48c.48-.24,1.04-.55,1.42-.81l.2,1.23c-1.08.79-2.7,1.71-4.19,2.36l-.55-1.38ZM128.74,33.28c1.35-.87,2.34-2.08,3.03-3.72h-.76c-.72,1.46-1.95,2.81-3.39,3.68l-.98-.92c1.32-.74,2.46-1.77,3.04-2.76h-.78c-.63.74-1.49,1.49-2.29,2l-.86-.96c1.33-.76,2.36-1.74,3.01-2.89h-2.16v-1.12h8.95v1.12h-5.4l-.5.79h5.46c-.06,1.94-.23,3.73-.44,4.46-.19.76-.61,1.05-1.47,1.05-.45,0-.99-.04-1.5-.09l-.24-1.32c-.6.67-1.14,1.18-1.68,1.56l-1.06-.87ZM127.68,21.22h6.42v4.69h-6.42v-4.69ZM132.79,23.08v-.84h-3.81v.84h3.81ZM132.79,24.92v-.87h-3.81v.87h3.81ZM133.78,29.56h-.7c-.33,1.05-.89,2.12-1.54,2.97.4.09.85.15,1.23.15.75,0,.83-.24,1.02-3.12Z"/>
        <path d="M141.24,32.9c1.35-.5,2.59-1.43,3.06-2.49-.32.26-.72.41-1.16.41-1.53,0-2.5-1.14-2.5-2.68,0-1.38,1.11-2.36,2.42-2.36.43,0,.87.15,1.16.35l-.04-1.32c-2.28.09-4.63.2-6.66.29l-.1-1.5c1.99-.04,4.39-.11,6.7-.21l-.08-2.43,1.58.04c-.01.74-.01,1.53-.01,2.33,1.41-.08,2.76-.15,3.92-.24l.09,1.48c-1.19.06-2.57.12-4,.18l.04,2.4c.17.53.22,1.18.22,1.83,0,2.08-.78,3.72-3.39,5.02l-1.23-1.09ZM144.19,28.16c0-.66-.43-1.06-.99-1.06-.68,0-1.1.53-1.1,1.15s.41,1.21,1.07,1.21,1.02-.51,1.02-1.3Z"/>
        <path d="M154.92,31.22c0-1.05.95-1.82,2.23-1.82s2.39.72,3.12,2.01c.72-.48,1.19-1.19,1.19-2.03,0-1.05-1.07-1.91-2.79-1.91-1.1,0-2.42.36-3.42.99-.69.43-1.2.85-1.96,1.63l-1.04-1.12c1.65-1.27,4.05-3.39,6.21-5.82-1.21.21-2.73.34-3.99.4l-.27-1.44c1.72-.03,3.61-.15,5.77-.55l.85,1.05c-1.44,1.54-2.56,2.61-3.91,3.83.69-.21,1.33-.3,1.93-.3,2.52,0,4.16,1.33,4.16,3.2,0,2.4-2.4,4.05-5.24,4.05-1.54,0-2.85-.82-2.85-2.17ZM157.92,32.08c.39,0,.75-.04,1.11-.13-.46-.81-1.11-1.26-1.8-1.26-.51,0-.81.26-.81.59,0,.52.66.81,1.5.81Z"/>
        <path d="M165.57,26c2.58-1.04,4.42-2.65,5.74-4.98h1.75c1.23,1.86,3.38,3.5,6,4.58l-1,1.3c-2.33-1.08-4.42-2.7-5.87-4.53-1.23,1.99-3.28,3.73-5.64,4.83l-.99-1.2ZM166.03,32.03h2.1v-5.11h1.5v5.11h2.04v-7.47h1.51v3.03h3.87v1.32h-3.87v3.12h5.43v1.33h-12.58v-1.33Z"/>
        <path d="M186.03,30.83c-1.2,1.41-2.97,2.52-4.92,3.12l-.94-1.23c2.01-.46,3.73-1.32,5.04-2.49h-4.88v-1.08h5.7v-.79h-4.3v-.97h4.3v-.77h-4.87v-1.04h3.15c-.17-.43-.38-.81-.64-1.21h-3.18v-1.06h2.22c-.32-.78-.66-1.32-1.07-1.8l1.29-.48c.39.48.76,1.11,1.09,1.8l-1.23.48h2.01v-2.52h1.32v2.52h1.24v-2.52h1.32v2.52h1.88l-1.18-.39c.4-.66.78-1.42,1-2.01l1.42.44c-.35.73-.79,1.48-1.14,1.96h2.45v1.06h-3.31c-.2.44-.41.86-.63,1.21h3.25v1.04h-4.96v.77h4.41v.97h-4.41v.79h5.8v1.08h-4.85c1.33.99,3.04,1.72,4.94,2.13l-.96,1.32c-2-.66-3.71-1.66-4.93-2.91v3.24h-1.43v-3.18ZM187.69,25.58c.21-.34.41-.71.62-1.21h-3.17c.21.36.36.66.57,1.21h1.98Z"/>
        <path d="M196.01,28.49c0-1.33.3-3.96.84-6.81l1.53.27c-.65,2.92-.95,5.56-.95,6.67,0,.46.03.98.09,1.44.24-.76.54-1.47.87-2.19l.9.9c-.45.93-.65,1.47-.79,2.03-.23.84-.3,1.27-.29,1.95l-1.19.5c-.63-1.36-1.02-2.73-1.02-4.75ZM199.77,30.94c0-1.05.86-2.04,2.55-2.04.42,0,.87.04,1.32.12l-.04-1.17c-.04-.64-.08-1.38-.09-2.07-1.19.08-2.37.11-3.38.11l-.11-1.5c1.07.01,2.26-.02,3.46-.09,0-.84-.01-1.58.03-2.79l1.58.05c-.08,1.02-.11,1.83-.14,2.61.8-.08,1.54-.18,2.24-.32l.15,1.51c-.72.12-1.53.22-2.39.3.02.78.03,1.48.06,2.16.01.6.04,1.14.06,1.59.86.32,1.71.78,2.54,1.4l-.87,1.38c-.55-.52-1.11-.91-1.65-1.2-.12,1.46-1.1,2.19-2.71,2.19-1.5,0-2.61-.85-2.61-2.23ZM202.35,31.82c.81,0,1.35-.39,1.33-1.21v-.2c-.45-.13-.88-.21-1.25-.21-.88,0-1.26.36-1.26.81,0,.5.43.81,1.17.81Z"/>
        <path d="M208.74,30.94l1.3-1.12c.92.78,1.98,1.99,2.77,3.13l-1.41,1.24c-.69-1.15-1.64-2.29-2.67-3.25Z"/>
        <path d="M228.89,32.08c-.79.6-1.61.96-2.42.96-1.32,0-2.1-.96-2.1-2.36,0-1.29.66-2.55,1.74-3.51.53-.48,1.14-.87,1.79-1.14.01-.5.04-1.11.11-1.77-1.14.06-2.18.09-2.92.09l-.08-1.36c.81.03,1.9,0,3.12-.06.06-.69.15-1.38.24-1.98l1.53.21c-.12.52-.23,1.09-.32,1.68,1.4-.12,2.87-.29,4.14-.53l.11,1.38c-1.35.21-2.92.36-4.42.48-.06.53-.11,1.04-.13,1.47.71-.15,1.48-.22,2.31-.21.08-.34.11-.63.15-.98l1.41.21c-.04.31-.1.62-.18.91,1.83.42,3.11,1.73,3.11,3.42,0,1.91-.96,3.68-4.19,4.7l-1.11-1.11c2.85-.84,3.76-2.13,3.76-3.56,0-1.08-.76-1.89-1.92-2.24-.57,1.58-1.53,3.21-2.55,4.32.13.27.27.54.43.79l-1.18,1.02c-.15-.27-.29-.55-.42-.85ZM226.61,31.61c.54,0,1.19-.3,1.82-.87-.27-.9-.47-2.08-.53-3.3-.33.19-.69.48-1.04.83-.54.54-1.04,1.35-1.04,2.23,0,.75.33,1.11.78,1.11ZM229.56,29.66c.66-.82,1.29-1.93,1.7-3.03-.74,0-1.41.07-2.01.25.02.95.09,1.91.32,2.78Z"/>
        <path d="M14.86,56.3c1.35-2.04,2.19-3.66,2.8-5.29-.99.09-1.93.15-2.67.16l-.19-1.42c1-.02,2.19-.08,3.38-.2.22-.77.45-1.56.66-2.43l1.53.38c-.2.66-.38,1.27-.57,1.86.89-.12,1.73-.27,2.42-.45l.27,1.42c-.78.18-1.95.36-3.18.51-.73,2.04-1.6,3.92-3.03,6.27l-1.41-.81ZM17.94,57.61c0-1.14,1.06-2.05,2.67-2.05.36,0,.75.03,1.14.09-.03-.5-.06-1.08-.06-1.37,0-.42.06-1.15.51-1.92l1.33.77c-.29.58-.33.99-.33,1.41,0,.47.03.9.04,1.42,1.06.35,2.16.88,3.15,1.47l-.72,1.3c-.78-.55-1.58-1.02-2.35-1.35v.24c0,1.4-1,2.25-2.58,2.25-1.39,0-2.8-.71-2.8-2.26ZM20.73,58.45c.69,0,1.11-.31,1.11-.95,0-.12,0-.29-.01-.48-.34-.09-.69-.14-1-.14-.79,0-1.33.29-1.33.77,0,.53.55.79,1.25.79ZM22.99,51.23l.67-1.2c1.37.52,2.46,1.14,3.48,2.13l-.82,1.19c-1.16-1.07-2.04-1.59-3.33-2.12Z"/>
        <path d="M29.46,59.05c1.23-2.76,2.1-5.34,2.71-7.93-1.02.08-1.98.12-2.77.15l-.17-1.51c1.04-.03,2.14-.08,3.29-.15.15-.81.3-1.63.42-2.47l1.54.24c-.14.72-.29,1.42-.44,2.11,1.11-.12,2.21-.25,3.27-.46l.24,1.5c-1.18.19-2.53.36-3.85.48-.69,2.93-1.54,5.7-2.71,8.65l-1.53-.6ZM34.69,57.11c0-.56.21-1.23.67-1.89l1.37.43c-.39.45-.57.9-.57,1.21,0,.58.66.92,2.13.92.96,0,1.98-.11,2.79-.29l.3,1.56c-.93.18-2.13.21-2.85.21-2.75,0-3.84-.9-3.84-2.16ZM35.46,52.31c1.71-.29,3.71-.42,5.4-.35l-.19,1.49c-1.63-.09-3.45.03-4.8.27l-.41-1.41Z"/>
        <path d="M43.69,58.76c1.25-2.34,2.1-4.38,2.71-6.57-.92.14-1.77.25-2.43.36l-.25-1.46c.69-.06,1.96-.2,2.98-.35.24-1.03.45-2.11.65-3.25l1.53.24c-.19.93-.42,1.86-.66,2.82.44-.03.83-.06,1.14-.06,1.44,0,2.4.88,2.4,2.68,0,1.29-.12,2.91-.45,4.27-.37,1.56-1.27,1.96-2.17,1.96-.7,0-1.39-.13-2.01-.36l-.12-1.65c.71.35,1.38.48,1.83.48.58,0,.88-.32,1.11-1.35.19-.89.3-2,.3-3.06s-.43-1.59-1.18-1.59c-.26,0-.62.03-1.14.09-.73,2.59-1.53,4.88-2.82,7.51l-1.41-.74ZM51.69,50.74l1.23-.92c1.17,1.39,1.95,3.06,2.64,5.19l-1.38.9c-.72-2.26-1.35-3.97-2.49-5.17ZM52.86,48.62l.79-.66c.63.6,1.05,1.11,1.56,2.01l-.86.67c-.51-.92-.94-1.49-1.5-2.02ZM54.31,47.78l.79-.66c.68.58,1.08,1.15,1.56,1.98l-.87.66c-.45-.84-.9-1.46-1.49-1.98Z"/>
        <path d="M59.17,53.18c-.34.6-.78,1.23-1.32,1.91l-.66-1.43c1.38-1.8,2.5-4.14,3.1-6.54l1.46.34c-.36,1.16-.71,2.1-1.14,3.04v9.75h-1.44v-7.08ZM61.26,58.49h3.86v-3.15h-3.18v-1.3h3.18v-2.68h-3.62v-1.29h4.88c-.96-.78-1.93-1.41-2.94-1.96l.99-1.02c1.05.55,2.12,1.23,3.01,1.92l-.96,1.06h3.83v1.29h-3.72v2.68h3.4v1.3h-3.4v3.15h4.12v1.33h-9.45v-1.33Z"/>
        <path d="M72.55,58.85c2.04-4.32,3.56-7.62,5.27-11.5l1.54.58c-1.04,2.04-1.91,3.81-2.81,5.71.8-.69,1.65-1.02,2.33-1.02,1.04,0,1.38.83,1.38,2.64,0,1.93.24,2.58,1.02,2.58,1.05,0,2.05-1.28,2.95-3.99l1.23,1.19c-1.04,2.8-2.35,4.3-4.17,4.3s-2.52-1.23-2.52-3.57c0-1.28-.12-1.61-.58-1.61-.53,0-1.37.68-2.01,1.47-.76.93-1.15,1.65-2.2,4l-1.43-.79Z"/>
        <path d="M91.18,55.15c0-1.67,1.05-3.23,3.02-4.56-2.88.27-4.68.42-6.81.58l-.19-1.57c3.12-.12,7.92-.41,11.43-.97l.3,1.53c-2.08.29-2.79.51-4,1.47-1.38,1.08-2.21,2.19-2.21,3.55,0,1.71,1.46,2.59,4.04,2.96l-.67,1.44c-2.99-.42-4.89-1.86-4.89-4.42ZM95.55,52.9l.87-.58c.62.63,1.02,1.28,1.51,2.14l-.9.63c-.48-.92-.93-1.58-1.49-2.19ZM96.97,51.97l.88-.58c.6.58,1.07,1.27,1.52,2.08l-.9.6c-.51-.93-.9-1.51-1.5-2.1Z"/>
        <path d="M102.91,56.27c-.33-1.07-.55-2.97-.55-4.71,0-.75.03-1.81.09-2.75l1.59.33c-.09,1.02-.13,1.92-.13,2.88,0,1.63.17,2.8.43,3.67.32,1.02.76,1.64,1.2,1.64.48,0,1.11-1.04,1.51-2.94l1.32,1.11c-.63,2.37-1.7,3.51-2.8,3.51-1.21,0-2.13-1.07-2.66-2.75ZM109.77,50.62l1.14-1.02c1.8,1.65,2.32,3.67,2.71,6.52l-1.54.48c-.35-2.65-.9-4.77-2.31-5.98Z"/>
        <path d="M119.04,57.47c0-1.05.95-1.82,2.23-1.82s2.39.72,3.12,2.01c.72-.48,1.19-1.19,1.19-2.03,0-1.05-1.07-1.91-2.79-1.91-1.09,0-2.42.36-3.42.99-.69.43-1.2.85-1.96,1.63l-1.04-1.12c1.65-1.27,4.05-3.39,6.21-5.82-1.21.21-2.73.34-3.99.4l-.27-1.44c1.72-.03,3.61-.15,5.77-.55l.85,1.05c-1.44,1.54-2.56,2.61-3.91,3.83.69-.21,1.33-.3,1.93-.3,2.52,0,4.16,1.33,4.16,3.2,0,2.4-2.4,4.05-5.24,4.05-1.54,0-2.85-.82-2.85-2.17ZM122.04,58.33c.39,0,.75-.04,1.11-.13-.46-.81-1.11-1.26-1.8-1.26-.51,0-.81.26-.81.59,0,.52.66.81,1.5.81Z"/>
        <path d="M129.73,57.53c.84-.24,1.47-.42,1.89-.57v-5.05h-1.67v-1.34h1.67v-3.21h1.39v3.21h1.49v1.34h-1.49v4.6c.44-.16,1.08-.39,1.56-.6l.1,1.35c-1.06.53-2.64,1.12-4.42,1.7l-.52-1.42ZM135.87,59.59c-.38-.21-.53-.53-.53-1.14v-5.08l-1.14.41-.41-1.35,1.54-.51v-3.92h1.38v3.46l1.26-.42v-3.9h1.37v3.45l2.25-.75.71.45v4.54c0,.95-.29,1.26-1.21,1.26-.32,0-.53-.01-1.16-.07l-.18-1.3c.31.04.66.07.87.07.25,0,.31-.09.31-.4v-2.97l-1.59.55v4.98h-1.37v-4.51l-1.26.45v4.95c0,.58.2.64,2.12.64,1.67,0,2.34-.09,2.55-.31.18-.21.22-.48.3-1.75l1.4.41c-.11,1.63-.29,2.32-.68,2.62-.42.33-1.45.45-3.66.45-1.8,0-2.49-.07-2.88-.3Z"/>
        <path d="M150.96,59.24c1.11-.71,2.05-1.61,2.82-2.75-.43-1.33-.71-3.08-.84-5.52h-4.44v.87h-1.37v4.17c.53-.2,1-.39,1.38-.55l.12,1.24c-.99.46-2.46,1.05-4.06,1.59l-.45-1.39c.5-.11,1.16-.29,1.69-.46v-4.59h-1.51v-1.33h1.51v-3.18h1.32v3.18h1.19v-.83h4.54c-.03-.4-.07-1.48-.1-2.65h1.37c.01.69.03,1.54.07,2.58h3.2v1.29h-3.13c.08,1.62.22,2.93.43,3.97.42-.93.77-1.96,1.04-3.19l1.23.52c-.44,1.63-1.02,3.13-1.77,4.39.25.69.67,1.49.81,1.49.15,0,.33-.72.49-1.97l1.16.84c-.34,2.19-.75,3.13-1.33,3.13-.33,0-.71-.29-1.17-.87-.29-.36-.58-.82-.83-1.32-.69.93-1.46,1.71-2.38,2.42l-.97-1.08ZM148.02,57.59c1.86-.45,3.39-.91,4.74-1.46l.06,1.21c-.85.45-2.52,1.11-4.33,1.65l-.46-1.41ZM148.92,52.01h3.67v3.83h-3.67v-3.83ZM151.45,54.76v-1.65h-1.41v1.65h1.41ZM154.6,47.75l1.16-.6c.42.39.83.9,1.33,1.62l-1.2.67c-.43-.72-.84-1.26-1.29-1.7Z"/>
        <path d="M165.27,58.3c2.75-.69,4.38-2.37,4.38-4.5s-1.47-3.52-3.6-3.66c-.11,1.69-.38,3.17-.84,4.6-.72,2.25-2,3.48-3.36,3.48s-2.52-1.4-2.52-3.32c0-3.48,2.88-6.21,6.42-6.21,3.25,0,5.49,1.98,5.49,5.08,0,2.68-1.65,4.68-4.74,5.75l-1.23-1.23ZM161.89,56.62c.77,0,1.41-.9,1.88-2.38.41-1.32.65-2.49.74-3.96-2.07.52-3.64,2.42-3.64,4.65,0,.92.49,1.7,1.03,1.7Z"/>
        <path d="M174.27,59.23c1.43-.51,2.64-1.6,2.9-2.64-1.02.3-2.33.61-3.57.84l-.48-1.35c1.42-.22,3.12-.52,4.21-.78.06-.4.07-.81.07-1.59h-3.36v-1.26h3.36v-1.62h-3.64v-1.26h3.64v-2.19h1.47v6.04c0,.63-.02,1.02-.06,1.5.42-.1.98-.27,1.28-.36l.04,1.19c-.34.12-.9.3-1.44.43-.27,1.86-1.44,3.27-3.45,4.17l-.98-1.12ZM180.75,47.3h1.47v2.26h3.82v1.26h-3.82v1.69h3.38v1.26h-3.38v1.71h4.17v1.29h-4.17v3.34h-1.47v-12.82Z"/>
        <path d="M187.96,57.71h5.12v-10.14h1.6v3.75h4.83v1.43h-4.83v4.96h5.91v1.45h-12.63v-1.45Z"/>
        <path d="M202.05,56.41c.38-.13,1.12-.45,1.75-.74v-4.14h-1.6v-1.37h1.6v-2.99h1.37v2.99h1.47v1.37h-1.47v3.48c.48-.24,1.04-.55,1.42-.81l.2,1.23c-1.08.79-2.7,1.71-4.19,2.36l-.55-1.38ZM208.55,59.53c1.35-.87,2.34-2.08,3.03-3.72h-.76c-.72,1.46-1.95,2.81-3.39,3.68l-.98-.92c1.32-.74,2.46-1.77,3.04-2.76h-.78c-.63.74-1.49,1.49-2.29,2l-.86-.96c1.33-.76,2.36-1.74,3.01-2.89h-2.16v-1.12h8.95v1.12h-5.4l-.5.79h5.46c-.06,1.94-.23,3.73-.44,4.46-.19.76-.61,1.05-1.47,1.05-.45,0-.99-.04-1.5-.09l-.24-1.32c-.6.67-1.14,1.18-1.68,1.56l-1.06-.87ZM207.48,47.47h6.42v4.69h-6.42v-4.69ZM212.6,49.33v-.84h-3.81v.84h3.81ZM212.6,51.17v-.87h-3.81v.87h3.81ZM213.58,55.81h-.7c-.33,1.05-.89,2.12-1.54,2.97.4.09.85.15,1.23.15.75,0,.83-.24,1.02-3.12Z"/>
        <path d="M216.45,52.25c2.58-1.04,4.42-2.65,5.74-4.98h1.75c1.23,1.86,3.38,3.5,6,4.58l-1,1.3c-2.33-1.08-4.42-2.7-5.87-4.53-1.23,1.99-3.28,3.73-5.64,4.83l-.99-1.2ZM216.92,58.28h2.1v-5.11h1.5v5.11h2.04v-7.47h1.51v3.03h3.87v1.32h-3.87v3.12h5.43v1.33h-12.58v-1.33Z"/>
        <path d="M20.01,83.33c-1.2,1.41-2.97,2.52-4.92,3.12l-.94-1.23c2.01-.46,3.73-1.32,5.04-2.49h-4.88v-1.08h5.7v-.79h-4.3v-.97h4.3v-.77h-4.87v-1.04h3.15c-.17-.43-.38-.81-.64-1.21h-3.18v-1.06h2.22c-.32-.78-.66-1.32-1.07-1.8l1.29-.48c.39.48.76,1.11,1.09,1.8l-1.23.48h2.01v-2.52h1.32v2.52h1.24v-2.52h1.32v2.52h1.88l-1.18-.39c.4-.66.78-1.42,1-2.01l1.42.44c-.35.73-.79,1.48-1.14,1.96h2.45v1.06h-3.31c-.2.44-.41.86-.63,1.21h3.25v1.04h-4.96v.77h4.41v.97h-4.41v.79h5.8v1.08h-4.85c1.33.99,3.04,1.72,4.94,2.13l-.96,1.32c-2-.66-3.71-1.66-4.93-2.91v3.24h-1.43v-3.18ZM21.67,78.08c.21-.34.41-.71.62-1.21h-3.17c.21.36.36.66.57,1.21h1.98Z"/>
        <path d="M34.02,84.44c0-.66.49-1.23,1.21-1.23s1.21.57,1.21,1.23-.5,1.21-1.21,1.21-1.21-.56-1.21-1.21ZM34.35,74.75h1.76l-.09,7.34h-1.56l-.11-7.34Z"/>
        <path d="M43.14,78.82h2.43c-.25-.78-.57-1.49-1-2.24l1.17-.48h-2v-1.12h3.25c-.34-.51-.46-.67-.87-1.2l1.41-.45c.48.64.76,1.06,1.05,1.65h2.08c.39-.55.69-1.08.96-1.73l1.54.45c-.34.55-.6.88-.9,1.27h3.37v1.12h-2.1l1.28.46c-.39.9-.78,1.62-1.22,2.25h2.64v1.16h-13.11v-1.16ZM44.98,80.74h9.42v5.77h-1.47v-.62h-6.48v.62h-1.47v-5.77ZM47.52,78.82v-2.71h-1.7c.41.63.76,1.36,1.06,2.17l-1.26.54h1.89ZM52.93,82.75v-.97h-6.48v.97h6.48ZM52.93,84.8v-1.04h-6.48v1.04h6.48ZM50.36,78.82v-2.71h-1.44v2.71h1.44ZM53.52,78.82l-1.12-.45c.39-.63.72-1.39,1.02-2.26h-1.67v2.71h1.77Z"/>
        <path d="M57.49,85.01c.6-.33,1.33-.85,2.03-1.46v-3.28h-1.91v-1.35h3.27v4.59c.92,1.12,1.95,1.41,5.25,1.41,1.21,0,2.94-.06,4.79-.15-.23.48-.35.95-.42,1.44-1.8.08-2.85.1-3.84.1-1.37,0-2.37-.06-3.42-.19-1.14-.09-2.24-.67-2.94-1.58-.61.75-1.27,1.43-1.96,2l-.84-1.53ZM57.93,74.71l1.05-.94c1.04.83,1.72,1.51,2.34,2.26l-1.16,1.04c-.66-.88-1.44-1.71-2.23-2.36ZM67.35,84.25l-.22-1.23c.34.07.78.13,1.12.13.27,0,.33-.06.33-.36v-1.01h-2.01v2.38h-1.26v-2.38h-1.92v2.54h-1.29v-7.65h4.02c-1.11-.48-1.94-.78-2.87-1.08l.81-.74c.96.3,1.06.35,1.93.64.55-.21,1-.42,1.46-.69h-5.49v-1.08h7.04l.62.69c-.68.52-1.53,1.05-2.48,1.53l.84.34-.5.38h2.39v6.54c0,.84-.29,1.12-1.14,1.12-.55,0-1.08-.05-1.38-.09ZM65.31,78.71v-1.02h-1.92v1.02h1.92ZM65.31,80.77v-1.04h-1.92v1.04h1.92ZM68.58,78.71v-1.02h-2.01v1.02h2.01ZM68.58,80.77v-1.04h-2.01v1.04h2.01Z"/>
        <path d="M72.7,82.55c1.35-2.04,2.19-3.66,2.8-5.29-.99.09-1.93.15-2.67.16l-.19-1.42c1-.02,2.19-.08,3.38-.2.22-.77.45-1.56.66-2.43l1.53.38c-.2.66-.38,1.27-.57,1.86.89-.12,1.73-.27,2.42-.45l.27,1.42c-.78.18-1.95.36-3.18.51-.73,2.04-1.6,3.92-3.03,6.27l-1.41-.81ZM75.78,83.86c0-1.14,1.06-2.05,2.67-2.05.36,0,.75.03,1.14.09-.03-.5-.06-1.08-.06-1.37,0-.42.06-1.15.51-1.92l1.33.77c-.29.58-.33.99-.33,1.41,0,.47.03.9.04,1.42,1.06.35,2.16.88,3.15,1.47l-.72,1.3c-.78-.55-1.58-1.02-2.35-1.35v.24c0,1.4-1,2.25-2.58,2.25-1.39,0-2.8-.71-2.8-2.26ZM78.57,84.7c.69,0,1.11-.31,1.11-.95,0-.12,0-.29-.01-.48-.34-.09-.69-.14-1-.14-.79,0-1.33.29-1.33.77,0,.53.55.79,1.25.79ZM80.83,77.48l.67-1.2c1.37.52,2.46,1.14,3.48,2.13l-.82,1.19c-1.16-1.07-2.04-1.59-3.33-2.12Z"/>
        <path d="M91.2,84.79c3.18-.27,5.28-1.23,5.25-2.83-.02-.97-.84-1.6-2.13-1.58-1.58.03-3.15.96-4.4,2.34l-1.18-.57c.34-1.82.52-4.08.54-6.08l1.59.15c-.04,1.26-.2,2.85-.42,4.32,1.15-.99,2.73-1.49,3.9-1.52,2.05-.04,3.63.99,3.66,2.82v.07c0,2.38-2.04,3.72-5.87,4.2l-.94-1.33ZM90.6,74.9l.56-1.26c1.46.24,2.95.75,4.36,1.5l-.61,1.35c-1.44-.76-2.85-1.26-4.31-1.59Z"/>
        <path d="M107.01,85.37c1.11-.61,2.16-1.62,2.99-2.88-.86-1.33-1.62-3.71-1.92-6h-.69v-1.24h-.69v11.28h-1.29v-2.79c-1.32.36-2.76.69-4.14.96l-.43-1.41c.36-.04.74-.11,1.3-.21v-7.83h-1.03v-1.25h6.75v1.14h5l.72.58c-.43,2.76-1.08,4.83-2.02,6.72.72.93,1.71,1.84,2.71,2.5l-.86,1.35c-.9-.63-1.81-1.54-2.59-2.58-.75,1.15-1.75,2.14-2.89,2.82l-.9-1.17ZM105.4,76.91v-1.66h-2v1.66h2ZM105.4,79.73v-1.68h-2v1.68h2ZM105.4,82.51v-1.65h-2v2.03c.99-.17,1.5-.26,2-.38ZM111.96,76.49h-2.55c.22,1.74.73,3.51,1.3,4.63.6-1.3,1.02-2.89,1.25-4.63Z"/>
        <path d="M117.97,86.12l-.22-1.54c1.05.21,1.81.3,2.42.3s.83-.18.97-.73c.12-.53.27-1.61.34-2.62h-3.9l-.22,1.04-1.47-.29c.42-1.77.68-3.3.83-5.13h4.51v-1.86h-5.11v-1.28h6.55v5.16h-1.44v-.79h-3.19c-.04.57-.11,1.04-.23,1.88h5.25c-.12,2.56-.31,4.19-.58,4.98-.3.82-.76,1.08-1.96,1.08-.79,0-1.8-.08-2.54-.18ZM125.67,73.81h1.54v12.51h-1.54v-12.51Z"/>
        <path d="M134.56,81.4c0-1.67,1.05-3.23,3.02-4.56-2.88.27-4.68.42-6.81.58l-.19-1.57c3.12-.12,7.92-.41,11.43-.97l.3,1.53c-2.08.29-2.79.51-4,1.47-1.38,1.08-2.21,2.19-2.21,3.55,0,1.71,1.46,2.59,4.04,2.96l-.67,1.44c-2.99-.42-4.89-1.86-4.89-4.42ZM138.93,79.15l.87-.58c.62.63,1.02,1.28,1.51,2.14l-.9.63c-.48-.92-.93-1.58-1.49-2.19ZM140.35,78.22l.88-.58c.6.58,1.07,1.27,1.52,2.08l-.9.6c-.51-.93-.9-1.51-1.5-2.1Z"/>
        <path d="M145.59,78.28c1.79.04,3.72-.04,5.46-.24-.2-.46-.41-.97-.58-1.48-1.46.15-2.89.24-3.93.25l-.17-1.41c1.2.03,2.46-.01,3.66-.13-.16-.48-.3-.98-.45-1.49l1.5-.33c.09.53.21,1.08.38,1.65,1.12-.17,2.16-.38,2.95-.63l.42,1.33c-.79.22-1.84.42-2.95.57.18.51.38,1,.6,1.48,1.3-.2,2.46-.45,3.27-.73l.5,1.38c-.85.27-1.92.5-3.09.66.65,1.14,1.41,2.13,2.25,2.8l-.9,1.14c-.57-.39-.96-.57-1.68-.79-.67-.21-1.32-.3-1.9-.3-1.73,0-2.69.65-2.69,1.32,0,.97,1.35,1.37,3.51,1.37.66,0,1.68-.08,2.39-.2l.19,1.47c-.78.09-2.04.15-2.82.15-2.38,0-4.82-.55-4.82-2.73,0-1.49,1.7-2.58,4.08-2.58.72,0,1.37.09,2.03.29-.39-.54-.77-1.12-1.1-1.74-2.05.22-4.23.35-5.97.36l-.13-1.44Z"/>
        <path d="M159.46,82.55c1.35-2.04,2.19-3.66,2.8-5.29-.99.09-1.93.15-2.67.16l-.19-1.42c1-.02,2.19-.08,3.38-.2.22-.77.45-1.56.66-2.43l1.53.38c-.2.66-.38,1.27-.57,1.86.89-.12,1.73-.27,2.42-.45l.27,1.42c-.78.18-1.95.36-3.18.51-.73,2.04-1.6,3.92-3.03,6.27l-1.41-.81ZM162.54,83.86c0-1.14,1.06-2.05,2.67-2.05.36,0,.75.03,1.14.09-.03-.5-.06-1.08-.06-1.37,0-.42.06-1.15.51-1.92l1.33.77c-.29.58-.33.99-.33,1.41,0,.47.03.9.04,1.42,1.06.35,2.16.88,3.15,1.47l-.72,1.3c-.78-.55-1.58-1.02-2.35-1.35v.24c0,1.4-1,2.25-2.58,2.25-1.39,0-2.8-.71-2.8-2.26ZM165.33,84.7c.69,0,1.11-.31,1.11-.95,0-.12,0-.29-.01-.48-.34-.09-.69-.14-1-.14-.79,0-1.33.29-1.33.77,0,.53.55.79,1.25.79ZM167.59,77.48l.67-1.2c1.37.52,2.46,1.14,3.48,2.13l-.82,1.19c-1.16-1.07-2.04-1.59-3.33-2.12Z"/>
        <path d="M175.21,82.52c-.33-1.07-.55-2.97-.55-4.71,0-.75.03-1.81.09-2.75l1.59.33c-.09,1.02-.13,1.92-.13,2.88,0,1.63.17,2.8.43,3.67.32,1.02.76,1.64,1.2,1.64.48,0,1.11-1.04,1.51-2.94l1.32,1.11c-.63,2.37-1.7,3.51-2.8,3.51-1.22,0-2.13-1.07-2.66-2.75ZM182.07,76.87l1.14-1.02c1.8,1.65,2.32,3.67,2.71,6.52l-1.54.48c-.35-2.65-.9-4.77-2.31-5.98Z"/>
        <path d="M188.73,85.48c1.42-.51,2.64-1.6,2.9-2.64-1.02.3-2.33.61-3.57.84l-.48-1.35c1.42-.22,3.12-.52,4.21-.78.06-.4.07-.81.07-1.59h-3.36v-1.26h3.36v-1.62h-3.64v-1.26h3.64v-2.19h1.47v6.04c0,.63-.02,1.02-.06,1.5.42-.1.98-.27,1.28-.36l.04,1.19c-.34.12-.9.3-1.44.43-.27,1.86-1.44,3.27-3.45,4.17l-.98-1.12ZM195.21,73.55h1.47v2.26h3.82v1.26h-3.82v1.69h3.38v1.26h-3.38v1.71h4.17v1.29h-4.17v3.34h-1.47v-12.82Z"/>
        <path d="M202.43,83.96h5.12v-10.14h1.6v3.75h4.83v1.43h-4.83v4.96h5.91v1.45h-12.63v-1.45Z"/>
        <path d="M216.51,82.66c.38-.13,1.12-.45,1.75-.74v-4.14h-1.6v-1.37h1.6v-2.99h1.37v2.99h1.47v1.37h-1.47v3.48c.48-.24,1.04-.55,1.42-.81l.2,1.23c-1.08.79-2.7,1.71-4.19,2.36l-.55-1.38ZM223.01,85.78c1.35-.87,2.34-2.08,3.03-3.72h-.76c-.72,1.46-1.95,2.81-3.39,3.68l-.98-.92c1.32-.74,2.46-1.77,3.04-2.76h-.78c-.63.74-1.49,1.49-2.29,2l-.86-.96c1.33-.76,2.36-1.74,3.01-2.89h-2.16v-1.12h8.95v1.12h-5.4l-.5.79h5.46c-.06,1.94-.23,3.73-.44,4.46-.19.76-.61,1.05-1.47,1.05-.45,0-.99-.04-1.5-.09l-.24-1.32c-.6.67-1.14,1.18-1.68,1.56l-1.06-.87ZM221.94,73.72h6.42v4.69h-6.42v-4.69ZM227.06,75.58v-.84h-3.81v.84h3.81ZM227.06,77.42v-.87h-3.81v.87h3.81ZM228.04,82.06h-.7c-.33,1.05-.89,2.12-1.55,2.97.41.09.86.15,1.23.15.75,0,.83-.24,1.02-3.12Z"/>
        <path d="M230.91,78.5c2.58-1.04,4.42-2.65,5.74-4.98h1.75c1.23,1.86,3.38,3.5,6,4.58l-1,1.3c-2.33-1.08-4.42-2.7-5.87-4.53-1.23,1.99-3.28,3.73-5.64,4.83l-.99-1.2ZM231.38,84.53h2.1v-5.11h1.5v5.11h2.04v-7.47h1.51v3.03h3.87v1.32h-3.87v3.12h5.43v1.33h-12.58v-1.33Z"/>
        <path d="M20.01,109.58c-1.2,1.41-2.97,2.52-4.92,3.12l-.94-1.23c2.01-.46,3.73-1.32,5.04-2.49h-4.88v-1.08h5.7v-.79h-4.3v-.97h4.3v-.77h-4.87v-1.04h3.15c-.17-.43-.38-.81-.64-1.21h-3.18v-1.06h2.22c-.32-.78-.66-1.32-1.07-1.8l1.29-.48c.39.48.76,1.11,1.09,1.8l-1.23.48h2.01v-2.52h1.32v2.52h1.24v-2.52h1.32v2.52h1.88l-1.18-.39c.4-.66.78-1.42,1-2.01l1.42.44c-.35.73-.79,1.48-1.14,1.96h2.45v1.06h-3.31c-.2.44-.41.86-.63,1.21h3.25v1.04h-4.96v.77h4.41v.97h-4.41v.79h5.8v1.08h-4.85c1.33.99,3.04,1.72,4.94,2.13l-.96,1.32c-2-.66-3.71-1.66-4.93-2.91v3.24h-1.43v-3.18ZM21.67,104.33c.21-.34.41-.71.62-1.21h-3.17c.21.36.36.66.57,1.21h1.98Z"/>
        <path d="M35.13,110.8c2.75-.69,4.38-2.37,4.38-4.5s-1.47-3.52-3.6-3.66c-.11,1.69-.38,3.17-.84,4.6-.72,2.25-2,3.48-3.36,3.48s-2.52-1.4-2.52-3.32c0-3.48,2.88-6.21,6.42-6.21,3.25,0,5.49,1.98,5.49,5.08,0,2.68-1.65,4.68-4.74,5.75l-1.23-1.23ZM31.75,109.12c.77,0,1.41-.9,1.88-2.38.41-1.32.65-2.49.74-3.96-2.07.52-3.64,2.42-3.64,4.65,0,.92.49,1.7,1.03,1.7Z"/>
        <path d="M45.09,106.28c-.45,1.49-.94,2.62-1.6,3.75l-.69-1.6c.93-1.2,1.67-2.8,2.13-4.63h-1.8v-1.3h1.96v-2.96h1.35v2.96h1.65v1.3h-1.65v1.42c.75.66,1.36,1.31,1.93,2.03l-.78,1.35c-.42-.75-.64-1.12-1.15-1.84v6.01h-1.35v-6.48ZM51.36,108.1c-.68,1.42-1.62,2.7-2.82,3.76l-.96-1.2c1.51-1.05,2.62-2.36,3.51-4.14h-3.12v-1.27h3.39v-1.91h-1.59c-.25.71-.43,1.14-.76,1.73l-1.08-.81c.54-.92.92-2.22,1.16-3.86l1.28.21c-.06.46-.15.96-.27,1.44h1.28v-2.52h1.38v2.52h2.88v1.29h-2.88v1.91h3.54v1.27h-3.27c.86,1.5,2.16,2.79,3.62,3.67l-.87,1.35c-1.25-1.04-2.25-2.19-3.01-3.54v4.75h-1.38v-4.66Z"/>
        <path d="M63.63,111.62c1.11-.61,2.16-1.62,2.99-2.88-.86-1.33-1.62-3.71-1.92-6h-.69v-1.24h-.69v11.28h-1.29v-2.79c-1.32.36-2.76.69-4.14.96l-.43-1.41c.36-.04.74-.11,1.3-.21v-7.83h-1.03v-1.25h6.75v1.14h5l.72.58c-.43,2.76-1.08,4.83-2.02,6.72.72.93,1.71,1.84,2.71,2.5l-.86,1.35c-.9-.63-1.81-1.54-2.59-2.58-.75,1.15-1.75,2.14-2.89,2.82l-.9-1.17ZM62.02,103.16v-1.66h-2v1.66h2ZM62.02,105.98v-1.68h-2v1.68h2ZM62.02,108.76v-1.65h-2v2.03c.99-.17,1.5-.26,2-.38ZM68.58,102.74h-2.55c.22,1.74.73,3.51,1.3,4.63.6-1.3,1.02-2.89,1.25-4.63Z"/>
        <path d="M74.59,112.37l-.22-1.54c1.05.21,1.81.3,2.42.3s.83-.18.97-.73c.12-.53.27-1.61.34-2.62h-3.9l-.22,1.04-1.47-.29c.42-1.77.68-3.3.83-5.13h4.51v-1.86h-5.11v-1.28h6.55v5.16h-1.44v-.79h-3.19c-.04.57-.11,1.04-.23,1.88h5.25c-.12,2.56-.31,4.19-.58,4.98-.3.82-.76,1.08-1.96,1.08-.79,0-1.8-.08-2.54-.18ZM82.29,100.06h1.54v12.51h-1.54v-12.51Z"/>
        <path d="M87.51,105.32l.79-1.3c1.22.57,2.07,1.06,3.18,1.95l-.93,1.31c-1.09-.9-2.04-1.46-3.04-1.95ZM88.8,110.78c3.66-.87,6.92-2.85,9.1-7.87l1.2,1.44c-2.44,4.93-5.67,6.94-9.61,7.95l-.69-1.51ZM89.55,102.11l.84-1.25c1.14.57,2.07,1.12,3.13,2.01l-.99,1.26c-1.07-.93-1.88-1.44-2.99-2.02Z"/>
        <path d="M102.52,109.61c2.23.01,4.17,0,5.83-.01l.41-3.78c-1.59.03-3.39.08-4.96.08v-1.35c1.5.01,4.35-.03,6.6-.08l-.6,5.13,2.66-.04v1.36c-3.12.01-6.44.05-9.88.06l-.04-1.36Z"/>
        <path d="M117.27,109.36l.24-1.43c3.04.6,6.5,1.58,9.29,3.03l-.63,1.41c-2.99-1.56-5.99-2.44-8.9-3.01ZM117.96,102.01l.3-1.39c2.64.3,5.31.82,7.89,1.81l-.54,1.41c-2.76-1.07-4.95-1.53-7.65-1.83ZM118.71,105.76l.32-1.37c1.99.3,3.87.78,6.12,1.71l-.5,1.4c-2.1-.95-4.05-1.46-5.94-1.74Z"/>
        <path d="M133,111.25c.03-3.6.04-7.05.01-10.65h1.58c-.03,3.25-.04,6.39-.01,9.63,2.75-1.02,5.2-3.15,6.88-5.95l.78,1.62c-2.02,2.89-4.59,4.98-8.19,6.18l-1.05-.83Z"/>
        <path d="M144.91,105.4l11.97-.08.03,1.5-11.97.08-.03-1.5Z"/>
        <path d="M159.81,105.32l.79-1.3c1.22.57,2.07,1.06,3.18,1.95l-.93,1.31c-1.09-.9-2.04-1.46-3.04-1.95ZM161.1,110.78c3.66-.87,6.92-2.85,9.1-7.87l1.2,1.44c-2.44,4.93-5.67,6.94-9.61,7.95l-.69-1.51ZM161.85,102.11l.84-1.25c1.14.57,2.07,1.12,3.13,2.01l-.99,1.26c-1.07-.93-1.88-1.44-2.99-2.02Z"/>
        <path d="M175.89,109.84c2.19,0,4.41-.02,6.17-.04,0-.53.01-1.05.01-1.56-1.89.02-4.21.04-5.77.06l-.03-1.29c1.58,0,3.93-.01,5.82-.04v-1.47c-2.1.03-4.32.08-6.2.1l-.03-1.3c1.64,0,4.12-.03,7.65-.09-.03,2.5-.04,5.13-.03,7.63h-1.44v-.72c-1.92.01-4.1.03-6.12.06l-.03-1.33Z"/>
        <path d="M189.27,102.79l.9-1.29c1.3.67,2.17,1.21,3.51,2.28l-.96,1.32c-1.18-1.02-2.29-1.76-3.45-2.31ZM189.87,110.23c3.96-.99,7.03-3.28,9.07-7.54l1.16,1.47c-2.28,4.12-5.04,6.44-9.41,7.62l-.82-1.54Z"/>
        <path d="M206.86,107.65c0-1.67,1.05-3.23,3.02-4.56-2.88.27-4.68.42-6.81.58l-.19-1.57c3.12-.12,7.92-.41,11.43-.97l.3,1.53c-2.08.29-2.79.51-4,1.47-1.38,1.08-2.21,2.19-2.21,3.55,0,1.71,1.46,2.59,4.04,2.96l-.67,1.44c-2.99-.42-4.89-1.86-4.89-4.42ZM211.23,105.4l.87-.58c.62.63,1.02,1.28,1.51,2.14l-.9.63c-.48-.92-.93-1.58-1.49-2.19ZM212.65,104.47l.88-.58c.6.58,1.07,1.27,1.52,2.08l-.9.6c-.51-.93-.9-1.51-1.5-2.1Z"/>
        <path d="M216.24,109.69l1.3-1.12c.92.78,1.98,1.99,2.77,3.13l-1.41,1.24c-.69-1.15-1.64-2.29-2.67-3.25Z"/>
        <path d="M230.96,110.03c.84-.24,1.47-.42,1.89-.57v-5.05h-1.67v-1.34h1.67v-3.21h1.39v3.21h1.49v1.34h-1.49v4.6c.44-.16,1.08-.39,1.56-.6l.1,1.35c-1.06.53-2.64,1.12-4.42,1.7l-.52-1.42ZM237.09,112.09c-.38-.21-.53-.53-.53-1.14v-5.08l-1.14.41-.41-1.35,1.54-.51v-3.92h1.38v3.46l1.26-.42v-3.9h1.37v3.45l2.25-.75.71.45v4.54c0,.95-.29,1.26-1.21,1.26-.32,0-.53-.01-1.16-.07l-.18-1.3c.31.04.66.07.87.07.25,0,.31-.09.31-.4v-2.97l-1.59.55v4.98h-1.37v-4.51l-1.26.45v4.95c0,.58.2.64,2.12.64,1.67,0,2.34-.09,2.55-.31.18-.21.22-.48.3-1.75l1.4.41c-.11,1.63-.29,2.32-.68,2.62-.42.33-1.45.45-3.66.45-1.8,0-2.49-.07-2.88-.3Z"/>
        <path d="M20.82,137.99c1.11-.71,2.05-1.61,2.82-2.75-.43-1.33-.71-3.08-.84-5.52h-4.44v.87h-1.37v4.17c.53-.2,1-.39,1.38-.55l.12,1.24c-.99.46-2.46,1.05-4.06,1.59l-.45-1.39c.5-.11,1.16-.29,1.7-.46v-4.59h-1.52v-1.33h1.52v-3.18h1.32v3.18h1.19v-.83h4.54c-.03-.4-.07-1.48-.1-2.65h1.37c.01.69.03,1.54.07,2.58h3.2v1.29h-3.13c.08,1.62.22,2.93.43,3.97.42-.93.77-1.96,1.04-3.19l1.23.52c-.44,1.63-1.02,3.13-1.77,4.39.25.69.67,1.49.81,1.49.15,0,.33-.72.49-1.97l1.16.84c-.34,2.19-.75,3.13-1.33,3.13-.33,0-.71-.29-1.17-.87-.29-.36-.58-.82-.83-1.32-.69.93-1.46,1.71-2.38,2.42l-.97-1.08ZM17.88,136.34c1.86-.45,3.39-.91,4.74-1.46l.06,1.21c-.85.45-2.52,1.11-4.33,1.65l-.46-1.41ZM18.78,130.76h3.67v3.83h-3.67v-3.83ZM21.31,133.51v-1.65h-1.41v1.65h1.41ZM24.46,126.5l1.16-.6c.42.39.83.9,1.33,1.62l-1.2.67c-.43-.72-.84-1.26-1.29-1.7Z"/>
        <path d="M35.13,137.05c2.75-.69,4.38-2.37,4.38-4.5s-1.47-3.52-3.6-3.66c-.11,1.69-.38,3.17-.84,4.6-.72,2.25-2,3.48-3.36,3.48s-2.52-1.4-2.52-3.32c0-3.48,2.88-6.21,6.42-6.21,3.25,0,5.49,1.98,5.49,5.08,0,2.68-1.65,4.68-4.74,5.75l-1.23-1.23ZM31.75,135.37c.77,0,1.41-.9,1.88-2.38.41-1.32.65-2.49.74-3.96-2.07.52-3.64,2.42-3.64,4.65,0,.92.49,1.7,1.03,1.7Z"/>
        <path d="M42.93,131c2.58-1.04,4.42-2.65,5.74-4.98h1.75c1.23,1.86,3.38,3.5,6,4.58l-1,1.3c-2.33-1.08-4.42-2.7-5.87-4.53-1.23,1.99-3.28,3.73-5.64,4.83l-.99-1.2ZM43.4,137.03h2.1v-5.11h1.5v5.11h2.04v-7.47h1.51v3.03h3.87v1.32h-3.87v3.12h5.43v1.33h-12.58v-1.33Z"/>
        <path d="M63.39,135.83c-1.2,1.41-2.97,2.52-4.92,3.12l-.94-1.23c2.01-.46,3.73-1.32,5.04-2.49h-4.88v-1.08h5.7v-.79h-4.3v-.97h4.3v-.77h-4.87v-1.04h3.15c-.17-.43-.38-.81-.64-1.21h-3.18v-1.06h2.22c-.32-.78-.66-1.32-1.07-1.8l1.29-.48c.39.48.76,1.11,1.09,1.8l-1.23.48h2.01v-2.52h1.32v2.52h1.24v-2.52h1.32v2.52h1.88l-1.19-.39c.41-.66.78-1.42,1.01-2.01l1.42.44c-.35.73-.79,1.48-1.14,1.96h2.45v1.06h-3.31c-.2.44-.41.86-.63,1.21h3.25v1.04h-4.96v.77h4.41v.97h-4.41v.79h5.81v1.08h-4.84c1.33.99,3.04,1.72,4.93,2.13l-.96,1.32c-2-.66-3.71-1.66-4.94-2.91v3.24h-1.42v-3.18ZM65.05,130.58c.21-.34.41-.71.62-1.21h-3.17c.21.36.36.66.57,1.21h1.98Z"/>
        <path d="M73.5,133.46c0-1.43.32-3.93.86-6.79l1.53.24c-.6,2.89-.92,5.41-.92,6.58,0,.46.03,1.01.11,1.46.24-.77.62-1.65.9-2.19l.9.9c-.46.93-.67,1.53-.84,2.1-.2.69-.3,1.36-.24,1.99l-1.18.5c-.62-1.21-1.11-2.82-1.11-4.78ZM77.85,135.1c0-.65.27-1.37.99-2.18l1.42.48c-.69.6-.92,1.08-.92,1.46,0,.75.63,1.19,2.29,1.19.66,0,1.63-.09,2.59-.32l.3,1.56c-1.04.17-2.07.21-2.7.21-2.71,0-3.99-.72-3.99-2.4ZM78.01,128.2c1.68.03,4.29-.12,6-.39l.18,1.5c-1.72.27-4.32.43-6.04.39l-.14-1.5Z"/>
        <path d="M86.52,128.23h5.07v1.18h-5.07v-1.18ZM86.94,134.08h4.5v4.79h-1.26v-.52h-1.93v.67h-1.3v-4.93ZM87.19,126.26h4.02v1.16h-4.02v-1.16ZM87.19,130.22h4.02v1.09h-4.02v-1.09ZM87.19,132.13h4.02v1.11h-4.02v-1.11ZM90.18,137.2v-2.03h-1.93v2.03h1.93ZM94.93,135.74h-3.12v-1.29h3.12v-1.86h-2.8v-1.24h2.8v-1.79h-2.94v-1.25h1.72c-.18-.58-.48-1.23-.93-1.92l1.27-.54c.44.68.74,1.23,1,1.95l-1.23.51h2.17c.48-.96.75-1.68,1-2.53l1.46.45c-.39.87-.67,1.47-1.05,2.08h2.07v1.25h-3.15v1.79h2.78v1.24h-2.78v1.86h3.41v1.29h-3.41v3.27h-1.41v-3.27Z"/>
        <path d="M104.29,134.45c0-.84.03-2.66.06-3.78.03-.97.01-2.97-.02-4.27l1.72.03c-.03,1.29-.07,3.18-.12,4.12-.04,1-.08,2.74-.08,3.67,0,1.78.5,2.66,1.89,2.66,1.72,0,3.57-1.23,4.56-3.04l.83,1.63c-1.16,1.65-3.21,2.92-5.4,2.92-2.62,0-3.45-1.63-3.45-3.94Z"/>
        <path d="M119.37,134.33c-1.21-.81-1.58-1.21-1.58-1.89,0-.63.53-1.11,1.72-2.07,1.56-1.25,2.9-2.42,4.32-4.12l1.35,1.02c-1.56,1.75-2.61,2.58-4.36,3.93-1,.77-1.29,1.04-1.29,1.26,0,.29.18.44,1.29,1.12,1.81,1.12,3.06,1.91,5.2,3.93l-1.18,1.19c-1.93-1.95-3.25-2.88-5.47-4.37Z"/>
        <path d="M130.54,135.05c1.35-2.04,2.19-3.66,2.8-5.29-.99.09-1.93.15-2.67.16l-.19-1.42c1-.02,2.19-.08,3.38-.2.22-.77.45-1.56.66-2.43l1.53.38c-.2.66-.38,1.27-.57,1.86.89-.12,1.73-.27,2.42-.45l.27,1.42c-.78.18-1.95.36-3.18.51-.73,2.04-1.6,3.92-3.03,6.27l-1.41-.81ZM133.62,136.36c0-1.14,1.06-2.05,2.67-2.05.36,0,.75.03,1.14.09-.03-.5-.06-1.08-.06-1.37,0-.42.06-1.15.51-1.92l1.33.77c-.29.58-.33.99-.33,1.41,0,.47.03.9.04,1.42,1.06.35,2.16.88,3.15,1.47l-.72,1.3c-.78-.55-1.58-1.02-2.35-1.35v.24c0,1.4-1,2.25-2.58,2.25-1.39,0-2.8-.71-2.8-2.26ZM136.41,137.2c.69,0,1.11-.31,1.11-.95,0-.12,0-.29-.01-.48-.34-.09-.69-.14-1-.14-.79,0-1.33.29-1.33.77,0,.53.55.79,1.25.79ZM138.67,129.98l.67-1.2c1.37.52,2.46,1.14,3.48,2.13l-.82,1.19c-1.16-1.07-2.04-1.59-3.33-2.12Z"/>
        <path d="M147,130.39c0-1.29.17-2.5.5-4.14l1.5.36c-.36,1.44-.6,2.98-.6,4.08,0,.3,0,.58.02.84.3-.75.67-1.53.97-2.12l.76,1.04c-.46.77-.78,1.5-.96,2.03-.27.81-.3,1.33-.27,2.07l-1.2.4c-.55-1.57-.72-3.07-.72-4.56ZM149.25,137.87c2.73-1.65,3.96-3.45,3.96-6.75,0-1.19-.12-2.93-.33-4.63l1.59-.2c.18,1.81.27,3.36.27,4.66,0,3.95-1.15,5.94-4,7.83l-1.48-.92Z"/>
        <path d="M160.95,136.16c0-1.09,1.11-2.12,2.86-2.12.44,0,.9.03,1.32.09l-.04-1.15c0-.08-.02-.15-.02-.24-.36.02-.67.03-.96.03-1.71,0-2.54-.38-2.54-1.2,0-.46.29-1.08.94-1.84l.99.57c-.36.36-.5.6-.5.77,0,.36.5.42,1.23.42.19,0,.45-.02.75-.03l-.09-2c-.56.02-1.1.03-1.65.03-1.04,0-1.95-.01-2.85-.08l-.06-1.48c1.16.07,2.27.11,3.32.11.42,0,.82,0,1.23-.02,0-.67-.01-1.39,0-2l1.61.08c-.04.55-.08,1.19-.08,1.83,1.29-.09,2.55-.27,3.79-.53l.18,1.47c-1.21.22-2.58.39-3.99.49l.05,1.92c.97-.13,2.1-.38,3.18-.75l.39,1.44c-1.14.32-2.4.52-3.51.65,0,.13.01.25.01.38.03.48.06.99.08,1.45,1.32.41,2.75,1.07,4.05,1.92l-.85,1.32c-1.17-.8-2.22-1.37-3.12-1.73v.08c0,1.68-1.09,2.35-2.7,2.35-1.81,0-3.03-.76-3.03-2.23ZM163.8,136.99c.85,0,1.37-.29,1.37-1.09v-.36c-.48-.1-.95-.15-1.21-.15-.84,0-1.47.31-1.47.81s.48.79,1.32.79Z"/>
        <path d="M176.59,134.45c0-.84.03-2.66.06-3.78.03-.97.02-2.97-.01-4.27l1.72.03c-.03,1.29-.07,3.18-.12,4.12-.04,1-.08,2.74-.08,3.67,0,1.78.5,2.66,1.89,2.66,1.72,0,3.57-1.23,4.56-3.04l.83,1.63c-1.16,1.65-3.21,2.92-5.4,2.92-2.62,0-3.45-1.63-3.45-3.94Z"/>
        <path d="M190.33,136.63c0-1.12,1-1.86,2.59-1.86.24,0,.5.01.76.04-.01-.2-.01-.39-.03-.57-.06-1.04-.18-3.3-.2-3.97-.01-.46-.01-.83-.01-1.37l1.44.06c-.03.57-.04,1.29-.04,1.93.96-.08,1.89-.27,2.85-.56l.15,1.35c-1.11.32-2.07.43-2.99.48.02.69.04,1.46.09,2.06l.04.79c1.09.28,2.28.79,3.25,1.41l-.66,1.29c-.87-.63-1.74-1.08-2.52-1.35v.17c0,1.33-.85,2.01-2.26,2.01-1.5,0-2.47-.67-2.47-1.92ZM192.76,137.26c.55,0,.99-.23.99-.83,0-.07,0-.19-.02-.34-.36-.08-.66-.09-.87-.09-.66,0-1.14.24-1.14.65,0,.43.48.62,1.04.62Z"/>
        <path d="M206.67,137.83c1.84-.72,2.59-1.23,3.33-2.01.67-.72,1.26-1.88,1.26-2.96,0-1.47-.98-2-1.91-2-.5,0-.97.08-2.21.41-1.12.3-1.69.46-2.61.72l-.44-1.47c.92-.23,1.49-.38,2.54-.63,1.39-.35,2.13-.48,2.94-.48,1.77,0,3.36.99,3.36,3.21,0,1.89-.79,3.13-1.56,4.03-.81.94-1.95,1.68-3.45,2.26l-1.26-1.09ZM206.28,127.36l.57-1.33c1.5.27,2.91.57,4.54,1.35l-.63,1.38c-1.46-.72-3-1.09-4.49-1.39Z"/>
        <path d="M222,136.94c0-.66.49-1.23,1.21-1.23s1.21.57,1.21,1.23-.5,1.21-1.21,1.21-1.21-.56-1.21-1.21ZM222.33,127.25h1.76l-.09,7.34h-1.56l-.11-7.34Z"/>
      </g>
      <circle class="cls-5" cx="309.96" cy="147.64" r="30"/>
      <g>
        <path class="cls-4" d="M321.48,164.13l2.44-1.25,1.46-4.73.45-7.2-1.46-6.87-4.68-6.99-5.39-2.36-6.79-.22-6.1,3.81-4.7,6.93-3.53,4.99-1.3,4.93,1.86,3.93,6.11,3.68c3.93,2.14,16.2,3.55,21.64,1.34Z"/>
        <path class="cls-7" d="M292.65,151.8c4.13.27,6.52,4.64,4.99,9.32-4.03-2.19-6.28-4.42-4.99-9.32Z"/>
        <path class="cls-1" d="M327.47,140.9c1.96.16,1.33,2.31.37,3.56-.2.26-.59.3-.84.08-1.7-1.45-1.1-3.77.47-3.64Z"/>
        <path class="cls-1" d="M327.37,141.73c-.33,0-.6-.27-.6-.6v-3.87l-.98-1.36c-.19-.27-.13-.64.14-.83.27-.19.64-.13.83.14l1.09,1.52c.07.1.11.22.11.35v4.07c0,.33-.27.6-.6.6Z"/>
        <ellipse class="cls-1" cx="303.64" cy="150.71" rx="1.67" ry="1.55" transform="translate(107.53 427.2) rotate(-81.05)"/>
        <ellipse class="cls-1" cx="313.14" cy="152.38" rx="1.55" ry="1.67" transform="translate(-7.3 16.02) rotate(-2.9)"/>
        <path class="cls-1" d="M302.79,150.16c-.06,0-.13-.02-.19-.06-.7-.55-1.05-1.12-1.32-2.09-.04-.16.05-.32.21-.37.16-.04.32.05.37.21.26.96.59,1.37,1.11,1.78.13.1.15.29.05.42-.06.07-.15.11-.23.11Z"/>
        <path class="cls-1" d="M302.61,150.7c-.74,0-1.53-.42-2.16-1.16-.11-.13-.09-.31.03-.42.13-.11.31-.09.42.03.55.65,1.26,1.01,1.85.95.16-.02.31.1.33.26.02.16-.1.31-.26.33-.07,0-.14.01-.21.01Z"/>
        <path class="cls-1" d="M314.22,151.95c-.15,0-.27-.11-.3-.26-.02-.16.09-.31.26-.34.49-.07,1.22-.49,1.67-1.25.08-.14.27-.19.41-.1.14.08.19.27.1.41-.48.82-1.33,1.44-2.11,1.54-.01,0-.03,0-.04,0Z"/>
        <path class="cls-1" d="M315.21,153.09c-.34,0-.7-.06-1.04-.22-.15-.07-.22-.25-.15-.4.07-.15.25-.22.4-.15.77.35,1.64.08,2.24-.22.15-.07.33-.01.4.14.07.15.01.33-.14.4-.46.23-1.07.45-1.71.45Z"/>
        <polygon class="cls-3" points="323.73 130.62 317.73 130.06 320.4 135.45 326.51 136.1 323.73 130.62"/>
        <polygon class="cls-3" points="322.12 138.68 316.85 134.66 318.75 131.94 323.87 136 322.12 138.68"/>
        <path class="cls-7" d="M326,154.8c-5.72-.79-10.1,4.13-9.2,10.53,6.07-1.7,9.72-3.92,9.2-10.53Z"/>
        <path class="cls-1" d="M307.17,146.05c-1.73-.3-2.63-1.6-2.54-3.04.02-.34.41-.4.6-.09.59.98,1.31,1.72,2.13,2.48.27.25.15.71-.18.65Z"/>
        <path class="cls-1" d="M312.9,146.55c1.54.83,3.06.36,3.88-.82.19-.28-.08-.57-.41-.44-1.07.4-2.09.55-3.2.64-.37.03-.55.46-.26.62Z"/>
        <path class="cls-1" d="M314.7,165.82c-2.36,0-4.28-.24-4.41-.25-.33-.04-.56-.34-.52-.67s.34-.56.67-.52c.06,0,5.61.69,9.39-.29,5.98-1.55,5.72-6.95,5.57-10.19-.01-.26-.02-.5-.03-.71-.07-2.22-.44-6.51-2.13-10.33-2.12-4.8-5.64-7.39-10.45-7.72-9.35-.63-12.53,5.04-14.64,8.79-.48.86-.9,1.6-1.33,2.17-.17.23-.38.49-.61.78-1.72,2.17-4.59,5.8-3.56,9.3.77,2.6,3.63,4.77,8.5,6.43.31.11.48.45.37.76-.11.31-.45.48-.76.37-5.26-1.79-8.37-4.22-9.26-7.22-1.21-4.09,2.03-8.18,3.77-10.38.22-.28.42-.54.59-.76.38-.51.78-1.22,1.24-2.04,2.12-3.77,5.66-10.08,15.76-9.4,5.29.36,9.15,3.19,11.46,8.43,1.77,4.01,2.16,8.47,2.23,10.77,0,.21.02.44.03.69.15,3.12.45,9.61-6.46,11.4-1.7.44-3.69.57-5.43.57Z"/>
        <path class="cls-1" d="M322.12,139.26c-.13,0-.26-.04-.37-.13-.26-.2-.3-.58-.1-.84l2.2-2.79c.13-.16.33-.25.53-.22l1.09.12-2.14-4.21-4.6-.43.65,1.31c.1.2.08.44-.06.62l-1.77,2.35c-.2.26-.57.32-.84.12-.26-.2-.32-.57-.12-.84l1.55-2.06-.96-1.94c-.1-.19-.08-.42.04-.6.12-.18.33-.28.55-.26l6,.56c.2.02.38.14.48.32l2.78,5.49c.1.2.08.43-.04.61-.12.18-.34.28-.55.25l-1.86-.2-2,2.54c-.12.15-.29.23-.47.23Z"/>
        <g>
          <path class="cls-2" d="M311.86,156.76c-.54-1.83-3.33-3.94-4.82-3.82s-4.72,1.72-5.69,1.6c-.97-.12-1.6-.82-1.86,1.44s1.44,3.53,3.87,2.85c3.18,2.08,9.43,1.07,8.5-2.07Z"/>
          <path class="cls-2" d="M311.95,158.26c-.96,3.55-5.93,6.02-7.13,5.41s-3.89-1.63-2.34-4.67c2.41.67,7.43.52,7.63-.95s1.84.22,1.84.22Z"/>
          <path class="cls-1" d="M307.11,160.51c-1.13,0-2.33-.39-3.55-1.18-2.28.5-3.5-.18-4.12-.86-.78-.85-1.02-2.14-.61-3.38.41-1.25,1.01-1.32,1.88-1.29.63.02,1.59.06,3.19-.65,3.58-1.6,5.53-.43,7.38,1.82.18.22.15.55-.07.73-.22.18-.55.15-.73-.07-1.62-1.98-3.15-2.87-6.14-1.53-1.83.82-2.97.77-3.66.75q-.65-.02-.84.57c-.28.86-.13,1.78.38,2.34.65.7,1.8.87,3.33.5.14-.03.29,0,.42.07,1.8,1.22,4.44,2.05,6.76-.92.15-.19.42-.25.64-.15,0,0,.68.33,1.29.5.28.08.44.37.36.65s-.37.44-.65.36c-.39-.11-.8-.28-1.08-.4-1.22,1.42-2.63,2.13-4.16,2.13Z"/>
          <path class="cls-1" d="M305.65,163.92c-.84,0-1.62-.2-2.27-.61-2.95-1.84-1.53-4.57-1.52-4.59.14-.25.45-.35.71-.21.25.14.35.45.21.71-.1.19-.92,1.92,1.15,3.21.99.62,2.52.59,3.97-.09,1.83-.85,3.09-2.45,3.35-4.27.04-.29.31-.48.59-.44.29.04.48.31.44.59-.32,2.17-1.79,4.06-3.95,5.06-.91.42-1.83.63-2.69.63Z"/>
        </g>
      </g>
      <g>
        <polygon class="cls-6" points="292.35 138.29 290.14 140.74 292.47 143.34 294.59 140.7 292.35 138.29"/>
        <path class="cls-1" d="M295.6,140.99c-1.55,0-2.71-.89-3.25-2.38-.54,1.49-1.7,2.38-3.25,2.38-.19,0-.34-.15-.34-.34s.15-.34.34-.34c1.79,0,2.91-1.46,2.91-3.82,0-.19.15-.34.34-.34s.34.15.34.34c0,2.32,1.14,3.82,2.91,3.82.19,0,.34.15.34.34s-.15.34-.34.34Z"/>
        <path class="cls-1" d="M292.49,145.45c-.19,0-.34-.15-.34-.34,0-2.33-1.28-4.02-3.05-4.02-.19,0-.34-.15-.34-.34s.15-.34.34-.34c1.53,0,2.77,1,3.35,2.55.51-1.6,1.64-2.55,3.14-2.55.19,0,.34.15.34.34s-.15.34-.34.34c-1.71,0-2.77,1.54-2.77,4.02,0,.19-.15.34-.34.34Z"/>
      </g>
    </g>
  </g>
</svg>