<?xml version="1.0" encoding="UTF-8"?>
<svg id="_レイヤー_2" data-name="レイヤー 2" xmlns="http://www.w3.org/2000/svg" width="374" height="77.36" viewBox="0 0 374 77.36">
  <defs>
    <style>
      .cls-1 {
        fill: #fff;
      }

      .cls-2 {
        fill: #b2d5d9;
      }

      .cls-3 {
        fill: #739b9e;
      }
    </style>
  </defs>
  <g id="_レイヤー_1-2" data-name="レイヤー 1">
    <g>
      <rect class="cls-2" x="0" y="0" width="374" height="77.36"/>
      <rect class="cls-1" x="7.58" y="14.39" width="358.85" height="51.32" rx="25.57" ry="25.57"/>
      <g>
        <path class="cls-3" d="M124.06,39.25h2.27c.72,0,1.17-.03,1.65-.1v1.74c-.51-.05-.99-.08-1.66-.08h-1.73c.91,1.6,2.24,2.93,3.82,3.83-.51.51-.74.83-1.06,1.6-.66-.46-1.12-.91-1.73-1.6-.78-.91-1.12-1.41-1.63-2.37.03.58.05,1.07.05,1.54v1.94c0,.72.03,1.28.1,1.78h-1.78c.06-.5.1-1.07.1-1.79v-1.82c0-.43.02-.94.05-1.58-.98,1.76-2.06,2.95-3.62,3.99-.4-.75-.62-1.07-.96-1.46,1.65-.94,2.99-2.32,3.92-4.03h-1.01c-.69,0-1.18.03-1.68.1v-.64c-.27.38-.46.74-.66,1.3-.4-.62-.64-1.12-.94-1.92.03.5.06,1.36.06,2.03v3.94c0,.82.03,1.41.1,1.89h-1.78c.06-.5.1-1.09.1-1.89v-3.31c0-.61.02-.99.11-1.98-.46,1.55-.93,2.59-1.62,3.63-.19-.72-.4-1.18-.72-1.71.77-.98,1.57-2.79,2.05-4.64h-.61c-.46,0-.74.02-1.03.06v-1.63c.26.05.54.06,1.03.06h.77v-1.23c0-.82-.02-1.22-.08-1.6h1.76c-.06.42-.08.85-.08,1.6v1.23h.46c.38,0,.58-.02.83-.06v1.52c.61-1.09,1.12-2.69,1.17-3.73l1.55.4c-.06.18-.11.37-.22.85-.08.29-.11.43-.19.74h1.23v-1.06c0-.66-.03-1.06-.1-1.46h1.79c-.06.38-.1.82-.1,1.46v1.06h1.81c.77,0,1.22-.03,1.65-.1v1.68c-.45-.05-.96-.08-1.65-.08h-1.81v1.94ZM120.72,37.32c-.27.66-.42.96-.86,1.71q-.38-.4-1.25-1.01c.13-.18.18-.26.26-.37-.21-.03-.46-.05-.75-.05h-.4c.37.85.75,1.49,1.46,2.43v-.88c.48.06.93.1,1.67.1h1.63v-1.94h-1.75Z"/>
        <path class="cls-3" d="M136.61,43.58c-.77,1.33-1.82,2.06-2.91,2.06-1.66,0-2.85-1.63-2.85-3.91,0-2.53,1.28-4.71,3.47-5.86,1.07-.58,2.22-.83,3.75-.83,3.34,0,5.83,2.37,5.83,5.54,0,2.8-1.38,4.82-4.03,5.95-.53.22-.94.35-1.15.35-.19,0-.27-.06-.48-.37-.27-.42-.58-.72-1.01-1.01,3.3-.85,4.79-2.4,4.79-4.99,0-1.33-.56-2.45-1.55-3.15-.56-.38-1.01-.54-1.89-.69-.45,3.38-.98,5.22-1.95,6.9ZM134.3,37.91c-1.07.94-1.68,2.29-1.68,3.79,0,1.23.4,1.95,1.07,1.95.8,0,1.62-1.1,2.23-3.01.38-1.2.58-2.11.82-3.89-1.14.24-1.7.51-2.43,1.15Z"/>
        <path class="cls-3" d="M148.12,41.13c0-.56,0-1.1.03-1.71-.45.78-.66,1.09-1.07,1.6-.16-.64-.38-1.25-.69-1.82,1.02-1.14,1.7-2.29,2.27-3.83.37-.96.48-1.42.59-2.19l1.74.42q-.75,2.27-1.3,3.46v8.63c0,.67.02,1.2.08,1.78h-1.76c.06-.62.1-1.04.1-1.79v-4.53ZM150.75,47.48c.06-.54.08-.94.08-1.89v-6.77c0-.77-.03-1.28-.1-1.73h1.71c-.05.48-.06.94-.06,1.74v6.45h6.77c.77,0,1.23-.02,1.7-.08v1.65c-.53-.06-1.02-.1-1.71-.1h-6.75v.72h-1.63ZM152.51,36.04c-.62,0-.99.02-1.44.06v-1.62c.4.06.82.08,1.62.08h2.74c.06-.54.08-.69.11-1.28l1.7.1q-.14.85-.21,1.18h2.34c.74,0,1.09-.02,1.6-.1v1.63c-.45-.05-.9-.06-1.41-.06h-2.8c-.06.32-.14.66-.22,1.01h2.21c.64,0,1.01-.02,1.3-.03-.05.5-.05.75-.05,1.47v4.66c0,.64,0,.88.05,1.36-.48-.02-.88-.03-1.31-.03h-3.95c-.45,0-.82.02-1.3.03.03-.34.05-.74.05-1.22v-5.03c0-.58-.02-.99-.05-1.25.38.03.61.03,1.23.03h.22c.11-.37.16-.62.24-1.01h-2.66ZM155.07,39.14h3.36v-.8h-3.36v.8ZM155.07,41.11h3.36v-.82h-3.36v.82ZM155.07,43.16h3.36v-.9h-3.36v.9Z"/>
        <path class="cls-3" d="M172.05,35.33c-.03,1.04-.13,1.55-.38,2.19-.3.77-.66,1.25-1.5,2-.43-.54-.61-.72-1.09-1.07-.58-.05-.66-.05-1.3-.05h-2.19v1.49h2.16c.77,0,.99-.02,1.44-.06v1.55c-.42-.03-.77-.05-1.42-.05h-2.18v1.84c1.68-.21,1.95-.26,3.76-.62l.03,1.49c-1.62.37-2.45.53-3.79.74v1.01c0,.61.03,1.07.1,1.63h-1.81c.06-.61.1-1.04.1-1.62v-.8c-.26.05-.42.08-.51.1-.14.02-.16.02-.24.05l-.19-1.78c.18.02.22.02.27.02.16,0,.43-.02.67-.03v-7.46c0-.66-.02-.94-.08-1.41,1.5-.13,3.15-.48,4.13-.88.38-.14.4-.16.78-.4l.93,1.57q-.27.06-.94.29c-1.41.45-1.74.53-3.2.8v1.1h2.18c.77,0,.99-.02,1.44-.06v1.2c1.01-.8,1.33-1.65,1.33-3.51,0-.35-.02-.62-.05-.88.32.03.62.05,1.12.05h2.32c.59,0,.85-.02,1.22-.05-.03.4-.05.72-.05,1.28v2.23c0,.21.1.26.5.26.32,0,.42-.08.48-.38.06-.35.1-.7.11-1.44.46.29.8.43,1.33.61-.1,1.26-.21,1.81-.45,2.19-.24.37-.61.48-1.63.48-.7,0-1.25-.06-1.47-.19-.27-.14-.35-.35-.35-.88v-2.53h-1.55ZM176.75,40.52c-.16.24-.29.45-.42.69-.72,1.33-1.34,2.24-2.13,3.1,1.01.69,2.03,1.14,3.49,1.47-.38.56-.51.8-.82,1.6-1.7-.58-2.77-1.14-3.86-1.98-1.14.88-2.48,1.54-4.31,2.08-.22-.62-.45-1.04-.85-1.57,1.74-.4,2.85-.85,4.02-1.65-.75-.94-1.14-1.63-1.62-2.99-.27.02-.42.03-.7.06v-1.7c.29.05.51.06.99.06h4.24c.58,0,.78-.02,1.09-.06l.86.88ZM171.81,41.27c.37.91.64,1.36,1.23,2,.75-.77.98-1.06,1.49-2h-2.72Z"/>
        <path class="cls-3" d="M183.87,43.11c.05.06.06.11.06.18q0,.1-.27.83c-.34.98-.54,1.78-.61,2.4-.02.21-.08.29-.29.34-.22.06-.66.1-1.07.1-.16,0-.24-.03-.29-.13-.14-.3-.4-1.41-.53-2.31-.11-.75-.16-1.54-.16-2.35,0-1.84.21-3.59.79-6.72.1-.51.13-.75.18-1.25.74.1,1.25.24,1.71.46.24.13.34.24.34.38,0,.1-.03.18-.11.3-.66,1.12-1.27,4.58-1.27,7.14,0,.38.02.99.06,1.76.38-.99.56-1.44.91-2.21.11.43.22.64.54,1.07ZM186.56,38.9c-.77,0-.93-.03-.98-.21-.05-.14-.1-.66-.1-1.02,0-.13,0-.26.02-.54.43.03.69.05,1.22.05.86,0,1.41-.02,2.24-.08-.02-2.03-.03-2.29-.19-3.04.78.02,1.38.08,1.89.21.24.06.34.14.34.3,0,.06-.02.11-.06.24-.16.37-.24.99-.27,2.11.59-.08,1.1-.19,2.07-.42.08-.03.11-.03.16-.03.1,0,.14.05.18.16.03.14.08.75.08,1.09,0,.4-.02.46-.18.53-.26.13-.96.24-2.32.42,0,1.1.1,2.93.21,3.97,1.01.43,1.7.8,2.4,1.3.45.32.54.43.54.54,0,.18-.29.72-.62,1.18-.19.27-.29.35-.4.35s-.11,0-.48-.35c-.35-.35-.72-.62-1.42-1.09v.13c0,1.41-1.17,2.34-2.95,2.34s-2.99-.96-2.99-2.4,1.22-2.51,2.83-2.51c.59,0,.9.02,1.33.08q-.06-1.25-.11-3.39c-.69.05-1.78.1-2.42.1ZM187.87,43.61c-.8,0-1.33.37-1.33.93,0,.51.5.83,1.27.83.85,0,1.3-.38,1.3-1.12,0-.22-.02-.4-.02-.4-.42-.16-.78-.24-1.22-.24Z"/>
        <path class="cls-3" d="M200.81,38.66c-.21-.7-.27-1.14-.46-3.1-.06-.77-.13-1.15-.29-1.7.98.02,1.6.06,2.03.18.24.06.35.18.35.35,0,.06-.02.14-.05.27-.11.38-.16.67-.16,1.09,0,.78.16,2.06.34,2.62.1.3.19.42.37.42.38,0,1.79-.74,2.56-1.33.21-.16.24-.18.32-.18.14,0,.29.11.53.42.4.54.72,1.14.72,1.36,0,.18-.11.29-.38.37-.99.27-2.62.91-3.73,1.44-1.95.96-2.83,1.84-2.83,2.83s.82,1.38,2.88,1.38c1.2,0,2.29-.11,3.76-.35.06-.02.18-.03.21-.03.13,0,.21.06.27.19.05.16.16,1.14.16,1.52,0,.22-.06.3-.27.37-.35.08-2.29.19-3.5.19-2.05,0-3.41-.27-4.26-.85-.72-.5-1.1-1.28-1.1-2.24,0-.74.21-1.39.64-2.03.56-.83,1.17-1.36,2.51-2.16-.34-.3-.46-.53-.61-1.02ZM206.62,35.08c.13-.1.21-.13.3-.13.22,0,1.62,1.47,1.62,1.71,0,.1-.13.24-.43.5-.32.27-.35.29-.43.29-.1,0-.11,0-.42-.45-.32-.45-.77-.96-1.1-1.25-.05-.05-.08-.1-.08-.14,0-.08.14-.22.54-.53ZM210.1,35.51c0,.1-.05.16-.24.32-.22.19-.53.4-.59.4-.1,0-.13-.05-.32-.3-.37-.53-.59-.78-1.17-1.31-.06-.06-.08-.1-.08-.14,0-.14.61-.61.8-.61.27,0,1.6,1.36,1.6,1.65Z"/>
        <path class="cls-3" d="M217.45,37.69c1.04-.27,1.73-.37,2.48-.37,2.27,0,3.59,1.34,3.59,3.65,0,2-.87,3.62-2.61,4.9-.93.69-2.34,1.38-2.8,1.38-.21,0-.26-.05-.59-.53-.24-.37-.48-.59-.88-.88,1.84-.62,2.61-1.02,3.44-1.74.96-.85,1.44-1.87,1.44-3.09,0-1.3-.61-2.03-1.68-2.03-.86,0-1.98.34-3.44,1.04-.21.1-.32.18-.59.37-.06.03-.13.06-.19.06-.3,0-.82-.9-1.17-2.1.59-.05.9-.13,3.01-.66ZM218.53,33.78c.58.18,1.44.34,2.22.43.32.03.43.05,1.25.08.24,0,.3.06.3.24,0,.53-.11,1.39-.21,1.55-.03.1-.11.13-.22.13-.37,0-1.67-.18-2.42-.34-1.26-.26-2.37-.58-2.59-.75-.05-.05-.08-.11-.08-.18,0-.13.34-.99.5-1.3.08-.13.13-.16.22-.16q.08,0,1.02.29Z"/>
        <path class="cls-3" d="M229.61,37.19c1.1.61,1.68,1.02,2.77,1.94l-.98,1.44c-1.06-.98-1.65-1.44-2.77-2.11l.98-1.26ZM232.33,42.41c-.59,1.81-1.12,3.06-1.84,4.34q-.11.21-.19.37t-.13.22l-1.47-1.28c.86-1.04,1.5-2.3,2.29-4.61l1.34.96ZM230.27,33.4c1.09.64,1.7,1.1,2.71,2.05l-1.07,1.38c-.98-1.01-1.46-1.41-2.69-2.19l1.06-1.23ZM238.26,41.4c.91,2,2.42,3.36,4.71,4.27-.42.54-.59.9-.9,1.74-2.3-1.17-4.03-2.9-4.83-4.8-.75,2.19-2.07,3.63-4.47,4.91-.27-.62-.53-.99-1.06-1.55,2.43-1.02,3.7-2.4,4.19-4.58h-1.47c-.72,0-1.25.03-1.73.1v-1.81c.48.05,1.02.08,1.71.08h1.73c.06-.9.1-1.76.11-2.62h-1.26c-.66,0-1.23.03-1.63.08v-1.74c.5.06.96.08,1.63.08h1.25v-.82c0-.72-.03-1.02-.1-1.46h1.86c-.08.45-.1.72-.1,1.42v.85h2.37c.7,0,1.07-.02,1.42-.06-.05.3-.06.64-.06,1.23v3.04q.64-.02,1.28-.1v1.82c-.5-.06-1.02-.1-1.7-.1h-2.96ZM240.02,39.77v-2.62h-2.13c-.02,1.22-.05,1.94-.11,2.62h2.24Z"/>
        <path class="cls-3" d="M251.39,39.27q-.03-.78-.05-1.78c-.14.02-.29.02-.35.02-1.06,0-2.42-.11-2.98-.26-.16-.05-.19-.08-.19-.24,0-.35.05-.78.16-1.41.9.18,2,.29,2.96.29.08,0,.22,0,.4-.02v-1.06c0-.56-.02-.82-.05-1.38.8.05,1.35.1,1.73.19.32.06.42.14.42.32,0,.08-.02.11-.13.37-.11.27-.13.34-.19,1.44.96-.11,1.73-.27,2.48-.5.05-.02.06-.02.08-.02.11,0,.11.02.29.53.11.34.22.75.22.88,0,.11-.05.18-.21.22-.53.18-1.91.42-2.91.53,0,1.14,0,1.18.02,1.75,1.12-.14,1.73-.3,2.99-.77.08-.03.11-.05.16-.05.1,0,.13.05.29.43.16.4.3.85.3,1.01,0,.08-.06.14-.18.19-.88.32-2.48.7-3.49.82.03.61.06.94.16,2.19.9.27,1.26.42,1.95.78.77.38,1.18.66,1.87,1.2.13.1.18.18.18.3,0,.11-.14.38-.45.86-.35.53-.53.74-.64.74-.05,0-.1-.02-.14-.06-.96-.91-1.58-1.36-2.66-1.89-.06.77-.24,1.2-.67,1.6-.54.53-1.46.82-2.59.82-1.97,0-3.18-.86-3.18-2.26,0-.61.26-1.2.69-1.6.62-.58,1.57-.88,2.77-.88.38,0,.72.03,1.12.08-.08-1.04-.11-1.41-.13-1.74-.37.02-.58.02-.77.02-1.11,0-2.45-.18-3.2-.4-.16-.05-.22-.13-.22-.26,0-.24.1-.75.24-1.41.99.24,2.26.38,3.44.38h.46ZM250.29,44.15c-1.02,0-1.58.3-1.58.85,0,.48.46.74,1.36.74,1.04,0,1.52-.37,1.52-1.17v-.27c-.42-.11-.74-.14-1.3-.14Z"/>
        <path class="cls-3" d="M270.27,38.93c2.26,0,3.86,1.54,3.86,3.71,0,1.49-.78,2.83-2.1,3.62-.91.54-2.03.82-3.3.82-2.03,0-3.22-.82-3.22-2.21,0-1.26,1.06-2.16,2.56-2.16,1.36,0,2.34.69,2.99,2.1.82-.59,1.15-1.22,1.15-2.08,0-1.38-.98-2.27-2.51-2.27s-3.25.78-4.64,2.18c-.26.26-.5.53-.78.9-.11.16-.19.22-.29.22-.29,0-1.42-1.12-1.42-1.41,0-.14.06-.22.42-.48.37-.29.9-.75,1.57-1.39,1.55-1.47,2.69-2.71,4.37-4.75-2,.26-3.35.48-3.84.66-.08.02-.13.03-.18.03-.13,0-.21-.08-.3-.32-.19-.48-.29-1.01-.34-1.71.43.06.74.08,1.09.08.77,0,2.07-.11,3.75-.3.59-.06.79-.11,1.23-.29.14-.06.22-.08.32-.08.22,0,.45.19.87.83.3.42.4.62.4.75,0,.21-.05.27-.4.5-.29.18-.46.32-.83.67-.8.77-.82.77-1.81,1.78-.7.72-.78.8-1.42,1.44,1.04-.58,1.86-.82,2.82-.82ZM268.74,44.47c-.24-.16-.51-.24-.82-.24-.5,0-.82.24-.82.62,0,.46.5.75,1.26.75.35,0,.66-.03,1.06-.14-.19-.53-.35-.77-.69-.99Z"/>
        <path class="cls-3" d="M284.21,43.58c-.77,1.33-1.82,2.06-2.91,2.06-1.67,0-2.85-1.63-2.85-3.91,0-2.53,1.28-4.71,3.47-5.86,1.07-.58,2.22-.83,3.75-.83,3.35,0,5.83,2.37,5.83,5.54,0,2.8-1.38,4.82-4.03,5.95-.53.22-.95.35-1.15.35-.19,0-.27-.06-.48-.37-.27-.42-.58-.72-1.01-1.01,3.3-.85,4.79-2.4,4.79-4.99,0-1.33-.56-2.45-1.55-3.15-.56-.38-1.01-.54-1.89-.69-.45,3.38-.98,5.22-1.95,6.9ZM281.9,37.91c-1.07.94-1.68,2.29-1.68,3.79,0,1.23.4,1.95,1.07,1.95.8,0,1.62-1.1,2.23-3.01.38-1.2.58-2.11.82-3.89-1.14.24-1.7.51-2.43,1.15Z"/>
        <path class="cls-3" d="M297.33,36.5c.37-.96.72-1.47,1.33-1.98.74-.61,1.62-.9,2.74-.9,2.4,0,3.94,1.31,3.94,3.36,0,.69-.19,1.34-.56,1.87-.29.42-.42.54-1.31,1.36-1.25,1.12-1.52,1.55-1.52,2.4v.85h-1.63v-.9c0-.72.14-1.36.43-1.87.22-.4.46-.67,1.1-1.31.67-.66.88-.9,1.06-1.18.22-.32.35-.77.35-1.2,0-1.07-.72-1.74-1.86-1.74s-1.81.59-2.29,1.98l-1.78-.74ZM302.43,45.83c0,.7-.56,1.26-1.26,1.26s-1.27-.56-1.27-1.26.56-1.26,1.27-1.26,1.26.56,1.26,1.26Z"/>
        <path class="cls-3" d="M310.14,40.36c0-4.24,3.44-7.67,7.67-7.67s7.67,3.43,7.67,7.67c0,2.03-.83,4.05-2.24,5.43-1.49,1.44-3.41,2.24-5.43,2.24-4.23,0-7.67-3.44-7.67-7.67ZM317.82,47.35c3.86,0,7-3.14,7-7.01s-3.14-6.99-7-6.99-7.01,3.14-7.01,6.99,3.14,7.01,7.01,7.01ZM320.88,45.19h-6.23v-1.3c.38-.75.8-1.36,1.42-2.06.5-.54.77-.8,2.15-1.98.75-.64,1.04-1.17,1.04-1.84,0-.88-.58-1.49-1.42-1.49-.61,0-1.07.29-1.38.85-.16.29-.24.59-.35,1.36l-1.52-.38c.16-.98.37-1.52.79-2.06.56-.72,1.42-1.1,2.48-1.1,1.86,0,3.09,1.14,3.09,2.88,0,.9-.27,1.57-.88,2.19-.37.38-.46.46-1.62,1.34-.86.66-1.62,1.47-2.08,2.21h4.51v1.39Z"/>
      </g>
      <g>
        <g>
          <path class="cls-3" d="M42.72,35.58c.02-1.97.63-3.49,1.83-4.55,1.13-1.05,2.47-1.58,4.03-1.58s2.98.53,4.1,1.58c1.15,1.06,1.74,2.58,1.78,4.56v9.42c-.04,1.96-.63,3.48-1.78,4.54-1.13,1.05-2.5,1.59-4.1,1.61-1.56-.02-2.91-.56-4.03-1.61-1.2-1.06-1.81-2.57-1.83-4.53v-9.44ZM51.51,35.77c-.06-2.14-1.03-3.23-2.92-3.27-1.9.04-2.87,1.13-2.91,3.27v9.07c.04,2.16,1.01,3.25,2.91,3.27,1.89-.02,2.87-1.11,2.92-3.27v-9.07Z"/>
          <path class="cls-3" d="M56.52,44.94l6.91-15.31h3.3l-6.99,15.31h5.4v-6.15h2.96v6.15h1.66v2.87h-1.66v3.18h-2.96v-3.18h-8.62v-2.87Z"/>
        </g>
        <path class="cls-3" d="M33.72,42.84c-.76.79-1.8,1.41-3.01,1.81-.17-.32-.31-.52-.56-.82,1.2-.29,2.21-.79,2.94-1.47h-1.5c-.05.18-.06.22-.13.43l-1.01-.02c.24-.56.38-1.02.49-1.58.08-.39.14-.77.14-.95.17.02.4.03.82.03h1.78l-.02-.58h-1.93c-.34,0-.56,0-.8.04v-.83c-.1.08-.13.12-.26.23-.17-.29-.35-.5-.56-.69.74-.57,1.16-1.12,1.35-1.76l.93.17c-.11.23-.14.29-.25.47h1.11c.41,0,.64-.02.85-.04v.7c.34-.4.55-.78.7-1.3l.92.16q-.07.17-.22.49h1.65c.46,0,.67,0,.95-.05v.9c-.26-.04-.52-.05-.9-.05h-.68c.23.33.23.35.38.59l-.71.2h.41c.43,0,.59,0,.81-.03-.03.16-.04.3-.04.61v.91c0,.31,0,.45.04.63-.2-.02-.47-.03-.81-.03h-1.99v.57h2.47c.33,0,.52,0,.74-.03-.02.11-.02.17-.03.26t-.03.26s-.02.22-.05.55c-.09.86-.14,1.07-.31,1.27-.17.2-.43.26-1.02.26-.25,0-.43,0-.8-.03-.05-.36-.11-.56-.22-.85.33.04.74.08.95.08.47,0,.49-.05.55-1.01h-2.22l.02,1.45c0,.46.02.68.06.95h-1.02c.04-.25.05-.4.05-.75v-.22l-.02-.96ZM32.48,38.94c-.11-.29-.22-.5-.39-.8h-.48c-.21.29-.4.5-.68.77.21.03.38.04.79.04h.75ZM33.69,41.04h-1.77c-.03.19-.04.21-.12.57h1.9v-.57ZM34.18,38.94c-.13-.16-.31-.33-.56-.51.15-.12.2-.15.32-.27-.15,0-.32-.02-.49-.02h-.48c.11.17.17.26.34.58l-.71.22h1.58ZM36.01,38.94c-.1-.22-.26-.51-.44-.79h-.53c-.23.33-.42.55-.69.79h1.67ZM34.59,40.28h1.87v-.58h-1.88v.58Z"/>
        <path class="cls-3" d="M80.3,44.74v-.47h-5.38v.47h-1.01c.04-.28.05-.64.05-1.12v-5.46c0-.42-.02-.69-.05-1.04.32.04.59.05,1.02.05h5.36c.42,0,.7,0,1.02-.05-.04.32-.04.6-.04,1.04v5.47c0,.47.02.89.04,1.11h-1ZM74.92,43.42h5.38v-5.39h-5.38v5.39ZM78.52,39.01c.38,0,.6,0,.83-.03-.02.21-.03.41-.03.68v2.06c0,.29,0,.47.03.68-.26-.02-.47-.03-.83-.03h-1.85c-.43,0-.57,0-.84.03.03-.23.04-.42.04-.68v-2.06c0-.25,0-.45-.04-.68.22.02.46.03.84.03h1.85ZM76.78,41.58h1.63v-1.76h-1.63v1.76Z"/>
      </g>
      <rect class="cls-2" x="95.06" y="32.52" width="1.42" height="15.06"/>
    </g>
  </g>
</svg>